<?xml version="1.0" encoding="utf-8"?>
<!-- Generator: Adobe Illustrator 23.1.1, SVG Export Plug-In . SVG Version: 6.00 Build 0)  -->
<svg version="1.1" id="Camada_1" xmlns="http://www.w3.org/2000/svg" xmlns:xlink="http://www.w3.org/1999/xlink" x="0px" y="0px"
	 viewBox="0 0 886.8 388.9" style="enable-background:new 0 0 886.8 388.9;" xml:space="preserve">
<style type="text/css">
	.st0{fill:#0A6D80;stroke:#515151;stroke-width:0.25;}
</style>
<g>
	<path class="st0" d="M24,59.8c0,0.5,0,0.9,0,1.3c0,7.8,0,15.6,0,23.4c0,0.4,0,0.8,0,1.2c0.2,1.4,1.2,2.6,2.6,2.8
		c2.2,0.4,4-1.2,4-3.6c0-14.8,0-29.7,0-44.5c0-0.6-0.3-1.5,0.6-1.6c0.9-0.1,1,0.9,1.1,1.6c0.3,2.8,0.5,5.6,0.7,8.5
		c0.2,2.5,0.4,5.1,0.6,7.6c0.2,1.8,1.5,3,3,2.8c1.7-0.1,2.6-1.5,2.5-3.3c-0.5-5.7-0.9-11.5-1.4-17.2c-0.4-4.8-4.2-8.5-9-8.6
		c-4-0.1-7.9-0.1-11.9,0c-4.5,0.1-8.4,3.7-8.9,8.1C7.5,44.1,7,50,6.5,56c-0.1,1.8,0.9,3.1,2.5,3.2c1.6,0.1,2.9-1,3-2.8
		c0.4-5.2,0.9-10.5,1.3-15.7c0-0.5,0.1-1,0.3-1.5c0.1-0.3,0.6-0.5,0.9-0.5c0.2,0,0.5,0.4,0.6,0.7c0.1,0.4,0.1,0.8,0.1,1.2
		c0,14.6,0,29.2,0,43.8c0,0.4,0,0.8,0,1.2c0.2,1.4,1.2,2.6,2.6,2.8c2.2,0.4,4-1.2,4-3.5c0-8,0-16,0-24c0-0.4,0-0.7,0-1.2
		c0.3,0,0.5-0.1,0.7-0.1C22.9,59.8,23.4,59.8,24,59.8z M30.3,20.2c0-4.1-3.4-7.5-7.5-7.5c-4.2,0-7.5,3.4-7.5,7.6
		c0,4.1,3.4,7.4,7.6,7.4C27,27.7,30.4,24.3,30.3,20.2z"/>
</g>
<g>
	<path class="st0" d="M76.6,59.8c0,0.5,0,0.9,0,1.3c0,7.8,0,15.6,0,23.4c0,0.4,0,0.8,0,1.2c0.2,1.4,1.2,2.6,2.6,2.8
		c2.2,0.4,4-1.2,4-3.6c0-14.8,0-29.7,0-44.5c0-0.6-0.3-1.5,0.6-1.6c0.9-0.1,1,0.9,1.1,1.6c0.3,2.8,0.5,5.6,0.7,8.5
		c0.2,2.5,0.4,5.1,0.6,7.6c0.2,1.8,1.5,3,3,2.8c1.7-0.1,2.6-1.5,2.5-3.3c-0.5-5.7-0.9-11.5-1.4-17.2c-0.4-4.8-4.2-8.5-9-8.6
		c-4-0.1-7.9-0.1-11.9,0c-4.5,0.1-8.4,3.7-8.9,8.1C60.1,44.1,59.7,50,59.2,56c-0.1,1.8,0.9,3.1,2.5,3.2c1.6,0.1,2.9-1,3-2.8
		c0.4-5.2,0.9-10.5,1.3-15.7c0-0.5,0.1-1,0.3-1.5c0.1-0.3,0.6-0.5,0.9-0.5c0.2,0,0.5,0.4,0.6,0.7c0.1,0.4,0.1,0.8,0.1,1.2
		c0,14.6,0,29.2,0,43.8c0,0.4,0,0.8,0,1.2c0.2,1.4,1.2,2.6,2.6,2.8c2.2,0.4,4-1.2,4-3.5c0-8,0-16,0-24c0-0.4,0-0.7,0-1.2
		c0.3,0,0.5-0.1,0.7-0.1C75.6,59.8,76,59.8,76.6,59.8z M83,20.2c0-4.1-3.4-7.5-7.5-7.5c-4.2,0-7.5,3.4-7.5,7.6
		c0,4.1,3.4,7.4,7.6,7.4C79.7,27.7,83,24.3,83,20.2z"/>
</g>
<g>
	<path class="st0" d="M129.3,59.8c0,0.5,0,0.9,0,1.3c0,7.8,0,15.6,0,23.4c0,0.4,0,0.8,0,1.2c0.2,1.4,1.2,2.6,2.6,2.8
		c2.2,0.4,4-1.2,4-3.6c0-14.8,0-29.7,0-44.5c0-0.6-0.3-1.5,0.6-1.6c0.9-0.1,1,0.9,1.1,1.6c0.3,2.8,0.5,5.6,0.7,8.5
		c0.2,2.5,0.4,5.1,0.6,7.6c0.2,1.8,1.5,3,3,2.8c1.7-0.1,2.6-1.5,2.5-3.3c-0.5-5.7-0.9-11.5-1.4-17.2c-0.4-4.8-4.2-8.5-9-8.6
		c-4-0.1-7.9-0.1-11.9,0c-4.5,0.1-8.4,3.7-8.9,8.1c-0.6,5.9-1.1,11.9-1.5,17.8c-0.1,1.8,0.9,3.1,2.5,3.2c1.6,0.1,2.9-1,3-2.8
		c0.4-5.2,0.9-10.5,1.3-15.7c0-0.5,0.1-1,0.3-1.5c0.1-0.3,0.6-0.5,0.9-0.5c0.2,0,0.5,0.4,0.6,0.7c0.1,0.4,0.1,0.8,0.1,1.2
		c0,14.6,0,29.2,0,43.8c0,0.4,0,0.8,0,1.2c0.2,1.4,1.2,2.6,2.6,2.8c2.2,0.4,4-1.2,4-3.5c0-8,0-16,0-24c0-0.4,0-0.7,0-1.2
		c0.3,0,0.5-0.1,0.7-0.1C128.2,59.8,128.7,59.8,129.3,59.8z M135.6,20.2c0-4.1-3.4-7.5-7.5-7.5c-4.2,0-7.5,3.4-7.5,7.6
		c0,4.1,3.4,7.4,7.6,7.4C132.3,27.7,135.6,24.3,135.6,20.2z"/>
</g>
<g>
	<path class="st0" d="M181.9,59.8c0,0.5,0,0.9,0,1.3c0,7.8,0,15.6,0,23.4c0,0.4,0,0.8,0,1.2c0.2,1.4,1.2,2.6,2.6,2.8
		c2.2,0.4,4-1.2,4-3.6c0-14.8,0-29.7,0-44.5c0-0.6-0.3-1.5,0.6-1.6c0.9-0.1,1,0.9,1.1,1.6c0.3,2.8,0.5,5.6,0.7,8.5
		c0.2,2.5,0.4,5.1,0.6,7.6c0.2,1.8,1.5,3,3,2.8c1.7-0.1,2.6-1.5,2.5-3.3c-0.5-5.7-0.9-11.5-1.4-17.2c-0.4-4.8-4.2-8.5-9-8.6
		c-4-0.1-7.9-0.1-11.9,0c-4.5,0.1-8.4,3.7-8.9,8.1c-0.6,5.9-1.1,11.9-1.5,17.8c-0.1,1.8,0.9,3.1,2.5,3.2c1.6,0.1,2.9-1,3-2.8
		c0.4-5.2,0.9-10.5,1.3-15.7c0-0.5,0.1-1,0.3-1.5c0.1-0.3,0.6-0.5,0.9-0.5c0.2,0,0.5,0.4,0.6,0.7c0.1,0.4,0.1,0.8,0.1,1.2
		c0,14.6,0,29.2,0,43.8c0,0.4,0,0.8,0,1.2c0.2,1.4,1.2,2.6,2.6,2.8c2.2,0.4,4-1.2,4-3.5c0-8,0-16,0-24c0-0.4,0-0.7,0-1.2
		c0.3,0,0.5-0.1,0.7-0.1C180.9,59.8,181.3,59.8,181.9,59.8z M188.3,20.2c0-4.1-3.4-7.5-7.5-7.5c-4.2,0-7.5,3.4-7.5,7.6
		c0,4.1,3.4,7.4,7.6,7.4C185,27.7,188.3,24.3,188.3,20.2z"/>
</g>
<g>
	<path class="st0" d="M234.6,59.8c0,0.5,0,0.9,0,1.3c0,7.8,0,15.6,0,23.4c0,0.4,0,0.8,0,1.2c0.2,1.4,1.2,2.6,2.6,2.8
		c2.2,0.4,4-1.2,4-3.6c0-14.8,0-29.7,0-44.5c0-0.6-0.3-1.5,0.6-1.6c0.9-0.1,1,0.9,1.1,1.6c0.3,2.8,0.5,5.6,0.7,8.5
		c0.2,2.5,0.4,5.1,0.6,7.6c0.2,1.8,1.5,3,3,2.8c1.7-0.1,2.6-1.5,2.5-3.3c-0.5-5.7-0.9-11.5-1.4-17.2c-0.4-4.8-4.2-8.5-9-8.6
		c-4-0.1-7.9-0.1-11.9,0c-4.5,0.1-8.4,3.7-8.9,8.1c-0.6,5.9-1.1,11.9-1.5,17.8c-0.1,1.8,0.9,3.1,2.5,3.2c1.6,0.1,2.9-1,3-2.8
		c0.4-5.2,0.9-10.5,1.3-15.7c0-0.5,0.1-1,0.3-1.5c0.1-0.3,0.6-0.5,0.9-0.5c0.2,0,0.5,0.4,0.6,0.7c0.1,0.4,0.1,0.8,0.1,1.2
		c0,14.6,0,29.2,0,43.8c0,0.4,0,0.8,0,1.2c0.2,1.4,1.2,2.6,2.6,2.8c2.2,0.4,4-1.2,4-3.5c0-8,0-16,0-24c0-0.4,0-0.7,0-1.2
		c0.3,0,0.5-0.1,0.7-0.1C233.5,59.8,234,59.8,234.6,59.8z M240.9,20.2c0-4.1-3.4-7.5-7.5-7.5c-4.2,0-7.5,3.4-7.5,7.6
		c0,4.1,3.4,7.4,7.6,7.4C237.6,27.7,240.9,24.3,240.9,20.2z"/>
</g>
<g>
	<path class="st0" d="M287.2,59.8c0,0.5,0,0.9,0,1.3c0,7.8,0,15.6,0,23.4c0,0.4,0,0.8,0,1.2c0.2,1.4,1.2,2.6,2.6,2.8
		c2.2,0.4,4-1.2,4-3.6c0-14.8,0-29.7,0-44.5c0-0.6-0.3-1.5,0.6-1.6c0.9-0.1,1,0.9,1.1,1.6c0.3,2.8,0.5,5.6,0.7,8.5
		c0.2,2.5,0.4,5.1,0.6,7.6c0.2,1.8,1.5,3,3,2.8c1.7-0.1,2.6-1.5,2.5-3.3c-0.5-5.7-0.9-11.5-1.4-17.2c-0.4-4.8-4.2-8.5-9-8.6
		c-4-0.1-7.9-0.1-11.9,0c-4.5,0.1-8.4,3.7-8.9,8.1c-0.6,5.9-1.1,11.9-1.5,17.8c-0.1,1.8,0.9,3.1,2.5,3.2c1.6,0.1,2.9-1,3-2.8
		c0.4-5.2,0.9-10.5,1.3-15.7c0-0.5,0.1-1,0.3-1.5c0.1-0.3,0.6-0.5,0.9-0.5c0.2,0,0.5,0.4,0.6,0.7c0.1,0.4,0.1,0.8,0.1,1.2
		c0,14.6,0,29.2,0,43.8c0,0.4,0,0.8,0,1.2c0.2,1.4,1.2,2.6,2.6,2.8c2.2,0.4,4-1.2,4-3.5c0-8,0-16,0-24c0-0.4,0-0.7,0-1.2
		c0.3,0,0.5-0.1,0.7-0.1C286.2,59.8,286.6,59.8,287.2,59.8z M293.6,20.2c0-4.1-3.4-7.5-7.5-7.5c-4.2,0-7.5,3.4-7.5,7.6
		c0,4.1,3.4,7.4,7.6,7.4C290.3,27.7,293.6,24.3,293.6,20.2z"/>
</g>
<g>
	<path class="st0" d="M339.8,59.8c0,0.5,0,0.9,0,1.3c0,7.8,0,15.6,0,23.4c0,0.4,0,0.8,0,1.2c0.2,1.4,1.2,2.6,2.6,2.8
		c2.2,0.4,4-1.2,4-3.6c0-14.8,0-29.7,0-44.5c0-0.6-0.3-1.5,0.6-1.6c0.9-0.1,1,0.9,1.1,1.6c0.3,2.8,0.5,5.6,0.7,8.5
		c0.2,2.5,0.4,5.1,0.6,7.6c0.2,1.8,1.5,3,3,2.8c1.7-0.1,2.6-1.5,2.5-3.3c-0.5-5.7-0.9-11.5-1.4-17.2c-0.4-4.8-4.2-8.5-9-8.6
		c-4-0.1-7.9-0.1-11.9,0c-4.5,0.1-8.4,3.7-8.9,8.1c-0.6,5.9-1.1,11.9-1.5,17.8c-0.1,1.8,0.9,3.1,2.5,3.2c1.6,0.1,2.9-1,3-2.8
		c0.4-5.2,0.9-10.5,1.3-15.7c0-0.5,0.1-1,0.3-1.5c0.1-0.3,0.6-0.5,0.9-0.5c0.2,0,0.5,0.4,0.6,0.7c0.1,0.4,0.1,0.8,0.1,1.2
		c0,14.6,0,29.2,0,43.8c0,0.4,0,0.8,0,1.2c0.2,1.4,1.2,2.6,2.6,2.8c2.2,0.4,4-1.2,4-3.5c0-8,0-16,0-24c0-0.4,0-0.7,0-1.2
		c0.3,0,0.5-0.1,0.7-0.1C338.8,59.8,339.2,59.8,339.8,59.8z M346.2,20.2c0-4.1-3.4-7.5-7.5-7.5c-4.2,0-7.5,3.4-7.5,7.6
		c0,4.1,3.4,7.4,7.6,7.4C342.9,27.7,346.2,24.3,346.2,20.2z"/>
</g>
<g>
	<path class="st0" d="M392.5,59.8c0,0.5,0,0.9,0,1.3c0,7.8,0,15.6,0,23.4c0,0.4,0,0.8,0,1.2c0.2,1.4,1.2,2.6,2.6,2.8
		c2.2,0.4,4-1.2,4-3.6c0-14.8,0-29.7,0-44.5c0-0.6-0.3-1.5,0.6-1.6c0.9-0.1,1,0.9,1.1,1.6c0.3,2.8,0.5,5.6,0.7,8.5
		c0.2,2.5,0.4,5.1,0.6,7.6c0.2,1.8,1.5,3,3,2.8c1.7-0.1,2.6-1.5,2.5-3.3c-0.5-5.7-0.9-11.5-1.4-17.2c-0.4-4.8-4.2-8.5-9-8.6
		c-4-0.1-7.9-0.1-11.9,0c-4.5,0.1-8.4,3.7-8.9,8.1c-0.6,5.9-1.1,11.9-1.5,17.8c-0.1,1.8,0.9,3.1,2.5,3.2c1.6,0.1,2.9-1,3-2.8
		c0.4-5.2,0.9-10.5,1.3-15.7c0-0.5,0.1-1,0.3-1.5c0.1-0.3,0.6-0.5,0.9-0.5c0.2,0,0.5,0.4,0.6,0.7c0.1,0.4,0.1,0.8,0.1,1.2
		c0,14.6,0,29.2,0,43.8c0,0.4,0,0.8,0,1.2c0.2,1.4,1.2,2.6,2.6,2.8c2.2,0.4,4-1.2,4-3.5c0-8,0-16,0-24c0-0.4,0-0.7,0-1.2
		c0.3,0,0.5-0.1,0.7-0.1C391.5,59.8,391.9,59.8,392.5,59.8z M398.9,20.2c0-4.1-3.4-7.5-7.5-7.5c-4.2,0-7.5,3.4-7.5,7.6
		c0,4.1,3.4,7.4,7.6,7.4C395.6,27.7,398.9,24.3,398.9,20.2z"/>
</g>
<g>
	<path class="st0" d="M445.1,59.8c0,0.5,0,0.9,0,1.3c0,7.8,0,15.6,0,23.4c0,0.4,0,0.8,0,1.2c0.2,1.4,1.2,2.6,2.6,2.8
		c2.2,0.4,4-1.2,4-3.6c0-14.8,0-29.7,0-44.5c0-0.6-0.3-1.5,0.6-1.6c0.9-0.1,1,0.9,1.1,1.6c0.3,2.8,0.5,5.6,0.7,8.5
		c0.2,2.5,0.4,5.1,0.6,7.6c0.2,1.8,1.5,3,3,2.8c1.7-0.1,2.6-1.5,2.5-3.3c-0.5-5.7-0.9-11.5-1.4-17.2c-0.4-4.8-4.2-8.5-9-8.6
		c-4-0.1-7.9-0.1-11.9,0c-4.5,0.1-8.4,3.7-8.9,8.1c-0.6,5.9-1.1,11.9-1.5,17.8c-0.1,1.8,0.9,3.1,2.5,3.2c1.6,0.1,2.9-1,3-2.8
		c0.4-5.2,0.9-10.5,1.3-15.7c0-0.5,0.1-1,0.3-1.5c0.1-0.3,0.6-0.5,0.9-0.5c0.2,0,0.5,0.4,0.6,0.7c0.1,0.4,0.1,0.8,0.1,1.2
		c0,14.6,0,29.2,0,43.8c0,0.4,0,0.8,0,1.2c0.2,1.4,1.2,2.6,2.6,2.8c2.2,0.4,4-1.2,4-3.5c0-8,0-16,0-24c0-0.4,0-0.7,0-1.2
		c0.3,0,0.5-0.1,0.7-0.1C444.1,59.8,444.5,59.8,445.1,59.8z M451.5,20.2c0-4.1-3.4-7.5-7.5-7.5c-4.2,0-7.5,3.4-7.5,7.6
		c0,4.1,3.4,7.4,7.6,7.4C448.2,27.7,451.5,24.3,451.5,20.2z"/>
</g>
<g>
	<path class="st0" d="M497.8,59.8c0,0.5,0,0.9,0,1.3c0,7.8,0,15.6,0,23.4c0,0.4,0,0.8,0,1.2c0.2,1.4,1.2,2.6,2.6,2.8
		c2.2,0.4,4-1.2,4-3.6c0-14.8,0-29.7,0-44.5c0-0.6-0.3-1.5,0.6-1.6c0.9-0.1,1,0.9,1.1,1.6c0.3,2.8,0.5,5.6,0.7,8.5
		c0.2,2.5,0.4,5.1,0.6,7.6c0.2,1.8,1.5,3,3,2.8c1.7-0.1,2.6-1.5,2.5-3.3c-0.5-5.7-0.9-11.5-1.4-17.2c-0.4-4.8-4.2-8.5-9-8.6
		c-4-0.1-7.9-0.1-11.9,0c-4.5,0.1-8.4,3.7-8.9,8.1c-0.6,5.9-1.1,11.9-1.5,17.8c-0.1,1.8,0.9,3.1,2.5,3.2c1.6,0.1,2.9-1,3-2.8
		c0.4-5.2,0.9-10.5,1.3-15.7c0-0.5,0.1-1,0.3-1.5c0.1-0.3,0.6-0.5,0.9-0.5c0.2,0,0.5,0.4,0.6,0.7c0.1,0.4,0.1,0.8,0.1,1.2
		c0,14.6,0,29.2,0,43.8c0,0.4,0,0.8,0,1.2c0.2,1.4,1.2,2.6,2.6,2.8c2.2,0.4,4-1.2,4-3.5c0-8,0-16,0-24c0-0.4,0-0.7,0-1.2
		c0.3,0,0.5-0.1,0.7-0.1C496.8,59.8,497.2,59.8,497.8,59.8z M504.2,20.2c0-4.1-3.4-7.5-7.5-7.5c-4.2,0-7.5,3.4-7.5,7.6
		c0,4.1,3.4,7.4,7.6,7.4C500.9,27.7,504.2,24.3,504.2,20.2z"/>
</g>
<g>
	<path class="st0" d="M24,155.7c0,0.5,0,0.9,0,1.3c0,7.8,0,15.6,0,23.4c0,0.4,0,0.8,0,1.2c0.2,1.4,1.2,2.6,2.6,2.8
		c2.2,0.4,4-1.2,4-3.6c0-14.8,0-29.7,0-44.5c0-0.6-0.3-1.5,0.6-1.6c0.9-0.1,1,0.9,1.1,1.6c0.3,2.8,0.5,5.6,0.7,8.5
		c0.2,2.5,0.4,5.1,0.6,7.6c0.2,1.8,1.5,3,3,2.8c1.7-0.1,2.6-1.5,2.5-3.3c-0.5-5.7-0.9-11.5-1.4-17.2c-0.4-4.8-4.2-8.5-9-8.6
		c-4-0.1-7.9-0.1-11.9,0c-4.5,0.1-8.4,3.7-8.9,8.1C7.5,140,7,145.9,6.5,151.9c-0.1,1.8,0.9,3.1,2.5,3.2c1.6,0.1,2.9-1,3-2.8
		c0.4-5.2,0.9-10.5,1.3-15.7c0-0.5,0.1-1,0.3-1.5c0.1-0.3,0.6-0.5,0.9-0.5c0.2,0,0.5,0.4,0.6,0.7c0.1,0.4,0.1,0.8,0.1,1.2
		c0,14.6,0,29.2,0,43.8c0,0.4,0,0.8,0,1.2c0.2,1.4,1.2,2.6,2.6,2.8c2.2,0.4,4-1.2,4-3.5c0-8,0-16,0-24c0-0.4,0-0.7,0-1.2
		c0.3,0,0.5-0.1,0.7-0.1C22.9,155.7,23.4,155.7,24,155.7z M30.3,116c0-4.1-3.4-7.5-7.5-7.5c-4.2,0-7.5,3.4-7.5,7.6
		c0,4.1,3.4,7.4,7.6,7.4C27,123.6,30.4,120.2,30.3,116z"/>
</g>
<g>
	<path class="st0" d="M76.6,155.7c0,0.5,0,0.9,0,1.3c0,7.8,0,15.6,0,23.4c0,0.4,0,0.8,0,1.2c0.2,1.4,1.2,2.6,2.6,2.8
		c2.2,0.4,4-1.2,4-3.6c0-14.8,0-29.7,0-44.5c0-0.6-0.3-1.5,0.6-1.6c0.9-0.1,1,0.9,1.1,1.6c0.3,2.8,0.5,5.6,0.7,8.5
		c0.2,2.5,0.4,5.1,0.6,7.6c0.2,1.8,1.5,3,3,2.8c1.7-0.1,2.6-1.5,2.5-3.3c-0.5-5.7-0.9-11.5-1.4-17.2c-0.4-4.8-4.2-8.5-9-8.6
		c-4-0.1-7.9-0.1-11.9,0c-4.5,0.1-8.4,3.7-8.9,8.1c-0.6,5.9-1.1,11.9-1.5,17.8c-0.1,1.8,0.9,3.1,2.5,3.2c1.6,0.1,2.9-1,3-2.8
		c0.4-5.2,0.9-10.5,1.3-15.7c0-0.5,0.1-1,0.3-1.5c0.1-0.3,0.6-0.5,0.9-0.5c0.2,0,0.5,0.4,0.6,0.7c0.1,0.4,0.1,0.8,0.1,1.2
		c0,14.6,0,29.2,0,43.8c0,0.4,0,0.8,0,1.2c0.2,1.4,1.2,2.6,2.6,2.8c2.2,0.4,4-1.2,4-3.5c0-8,0-16,0-24c0-0.4,0-0.7,0-1.2
		c0.3,0,0.5-0.1,0.7-0.1C75.6,155.7,76,155.7,76.6,155.7z M83,116c0-4.1-3.4-7.5-7.5-7.5c-4.2,0-7.5,3.4-7.5,7.6
		c0,4.1,3.4,7.4,7.6,7.4C79.7,123.6,83,120.2,83,116z"/>
</g>
<g>
	<path class="st0" d="M548.9,59.8c0,0.5,0,0.9,0,1.3c0,7.8,0,15.6,0,23.4c0,0.4,0,0.8,0,1.2c0.2,1.4,1.2,2.6,2.6,2.8
		c2.2,0.4,4-1.2,4-3.6c0-14.8,0-29.7,0-44.5c0-0.6-0.3-1.5,0.6-1.6c0.9-0.1,1,0.9,1.1,1.6c0.3,2.8,0.5,5.6,0.7,8.5
		c0.2,2.5,0.4,5.1,0.6,7.6c0.2,1.8,1.5,3,3,2.8c1.7-0.1,2.6-1.5,2.5-3.3c-0.5-5.7-0.9-11.5-1.4-17.2c-0.4-4.8-4.2-8.5-9-8.6
		c-4-0.1-7.9-0.1-11.9,0c-4.5,0.1-8.4,3.7-8.9,8.1c-0.6,5.9-1.1,11.9-1.5,17.8c-0.1,1.8,0.9,3.1,2.5,3.2c1.6,0.1,2.9-1,3-2.8
		c0.4-5.2,0.9-10.5,1.3-15.7c0-0.5,0.1-1,0.3-1.5c0.1-0.3,0.6-0.5,0.9-0.5c0.2,0,0.5,0.4,0.6,0.7c0.1,0.4,0.1,0.8,0.1,1.2
		c0,14.6,0,29.2,0,43.8c0,0.4,0,0.8,0,1.2c0.2,1.4,1.2,2.6,2.6,2.8c2.2,0.4,4-1.2,4-3.5c0-8,0-16,0-24c0-0.4,0-0.7,0-1.2
		c0.3,0,0.5-0.1,0.7-0.1C547.9,59.8,548.3,59.8,548.9,59.8z M555.3,20.2c0-4.1-3.4-7.5-7.5-7.5c-4.2,0-7.5,3.4-7.5,7.6
		c0,4.1,3.4,7.4,7.6,7.4C552,27.7,555.3,24.3,555.3,20.2z"/>
</g>
<g>
	<path class="st0" d="M601.6,59.8c0,0.5,0,0.9,0,1.3c0,7.8,0,15.6,0,23.4c0,0.4,0,0.8,0,1.2c0.2,1.4,1.2,2.6,2.6,2.8
		c2.2,0.4,4-1.2,4-3.6c0-14.8,0-29.7,0-44.5c0-0.6-0.3-1.5,0.6-1.6c0.9-0.1,1,0.9,1.1,1.6c0.3,2.8,0.5,5.6,0.7,8.5
		c0.2,2.5,0.4,5.1,0.6,7.6c0.2,1.8,1.5,3,3,2.8c1.7-0.1,2.6-1.5,2.5-3.3c-0.5-5.7-0.9-11.5-1.4-17.2c-0.4-4.8-4.2-8.5-9-8.6
		c-4-0.1-7.9-0.1-11.9,0c-4.5,0.1-8.4,3.7-8.9,8.1c-0.6,5.9-1.1,11.9-1.5,17.8c-0.1,1.8,0.9,3.1,2.5,3.2c1.6,0.1,2.9-1,3-2.8
		c0.4-5.2,0.9-10.5,1.3-15.7c0-0.5,0.1-1,0.3-1.5c0.1-0.3,0.6-0.5,0.9-0.5c0.2,0,0.5,0.4,0.6,0.7c0.1,0.4,0.1,0.8,0.1,1.2
		c0,14.6,0,29.2,0,43.8c0,0.4,0,0.8,0,1.2c0.2,1.4,1.2,2.6,2.6,2.8c2.2,0.4,4-1.2,4-3.5c0-8,0-16,0-24c0-0.4,0-0.7,0-1.2
		c0.3,0,0.5-0.1,0.7-0.1C600.5,59.8,601,59.8,601.6,59.8z M608,20.2c0-4.1-3.4-7.5-7.5-7.5c-4.2,0-7.5,3.4-7.5,7.6
		c0,4.1,3.4,7.4,7.6,7.4C604.7,27.7,608,24.3,608,20.2z"/>
</g>
<g>
	<path class="st0" d="M654.2,59.8c0,0.5,0,0.9,0,1.3c0,7.8,0,15.6,0,23.4c0,0.4,0,0.8,0,1.2c0.2,1.4,1.2,2.6,2.6,2.8
		c2.2,0.4,4-1.2,4-3.6c0-14.8,0-29.7,0-44.5c0-0.6-0.3-1.5,0.6-1.6c0.9-0.1,1,0.9,1.1,1.6c0.3,2.8,0.5,5.6,0.7,8.5
		c0.2,2.5,0.4,5.1,0.6,7.6c0.2,1.8,1.5,3,3,2.8c1.7-0.1,2.6-1.5,2.5-3.3c-0.5-5.7-0.9-11.5-1.4-17.2c-0.4-4.8-4.2-8.5-9-8.6
		c-4-0.1-7.9-0.1-11.9,0c-4.5,0.1-8.4,3.7-8.9,8.1c-0.6,5.9-1.1,11.9-1.5,17.8c-0.1,1.8,0.9,3.1,2.5,3.2c1.6,0.1,2.9-1,3-2.8
		c0.4-5.2,0.9-10.5,1.3-15.7c0-0.5,0.1-1,0.3-1.5c0.1-0.3,0.6-0.5,0.9-0.5c0.2,0,0.5,0.4,0.6,0.7c0.1,0.4,0.1,0.8,0.1,1.2
		c0,14.6,0,29.2,0,43.8c0,0.4,0,0.8,0,1.2c0.2,1.4,1.2,2.6,2.6,2.8c2.2,0.4,4-1.2,4-3.5c0-8,0-16,0-24c0-0.4,0-0.7,0-1.2
		c0.3,0,0.5-0.1,0.7-0.1C653.2,59.8,653.6,59.8,654.2,59.8z M660.6,20.2c0-4.1-3.4-7.5-7.5-7.5c-4.2,0-7.5,3.4-7.5,7.6
		c0,4.1,3.4,7.4,7.6,7.4C657.3,27.7,660.6,24.3,660.6,20.2z"/>
</g>
<g>
	<path class="st0" d="M706.9,59.8c0,0.5,0,0.9,0,1.3c0,7.8,0,15.6,0,23.4c0,0.4,0,0.8,0,1.2c0.2,1.4,1.2,2.6,2.6,2.8
		c2.2,0.4,4-1.2,4-3.6c0-14.8,0-29.7,0-44.5c0-0.6-0.3-1.5,0.6-1.6c0.9-0.1,1,0.9,1.1,1.6c0.3,2.8,0.5,5.6,0.7,8.5
		c0.2,2.5,0.4,5.1,0.6,7.6c0.2,1.8,1.5,3,3,2.8c1.7-0.1,2.6-1.5,2.5-3.3c-0.5-5.7-0.9-11.5-1.4-17.2c-0.4-4.8-4.2-8.5-9-8.6
		c-4-0.1-7.9-0.1-11.9,0c-4.5,0.1-8.4,3.7-8.9,8.1c-0.6,5.9-1.1,11.9-1.5,17.8c-0.1,1.8,0.9,3.1,2.5,3.2c1.6,0.1,2.9-1,3-2.8
		c0.4-5.2,0.9-10.5,1.3-15.7c0-0.5,0.1-1,0.3-1.5c0.1-0.3,0.6-0.5,0.9-0.5c0.2,0,0.5,0.4,0.6,0.7c0.1,0.4,0.1,0.8,0.1,1.2
		c0,14.6,0,29.2,0,43.8c0,0.4,0,0.8,0,1.2c0.2,1.4,1.2,2.6,2.6,2.8c2.2,0.4,4-1.2,4-3.5c0-8,0-16,0-24c0-0.4,0-0.7,0-1.2
		c0.3,0,0.5-0.1,0.7-0.1C705.8,59.8,706.3,59.8,706.9,59.8z M713.3,20.2c0-4.1-3.4-7.5-7.5-7.5c-4.2,0-7.5,3.4-7.5,7.6
		c0,4.1,3.4,7.4,7.6,7.4C710,27.7,713.3,24.3,713.3,20.2z"/>
</g>
<g>
	<path class="st0" d="M759.5,59.8c0,0.5,0,0.9,0,1.3c0,7.8,0,15.6,0,23.4c0,0.4,0,0.8,0,1.2c0.2,1.4,1.2,2.6,2.6,2.8
		c2.2,0.4,4-1.2,4-3.6c0-14.8,0-29.7,0-44.5c0-0.6-0.3-1.5,0.6-1.6c0.9-0.1,1,0.9,1.1,1.6c0.3,2.8,0.5,5.6,0.7,8.5
		c0.2,2.5,0.4,5.1,0.6,7.6c0.2,1.8,1.5,3,3,2.8c1.7-0.1,2.6-1.5,2.5-3.3c-0.5-5.7-0.9-11.5-1.4-17.2c-0.4-4.8-4.2-8.5-9-8.6
		c-4-0.1-7.9-0.1-11.9,0c-4.5,0.1-8.4,3.7-8.9,8.1c-0.6,5.9-1.1,11.9-1.5,17.8c-0.1,1.8,0.9,3.1,2.5,3.2c1.6,0.1,2.9-1,3-2.8
		c0.4-5.2,0.9-10.5,1.3-15.7c0-0.5,0.1-1,0.3-1.5c0.1-0.3,0.6-0.5,0.9-0.5c0.2,0,0.5,0.4,0.6,0.7c0.1,0.4,0.1,0.8,0.1,1.2
		c0,14.6,0,29.2,0,43.8c0,0.4,0,0.8,0,1.2c0.2,1.4,1.2,2.6,2.6,2.8c2.2,0.4,4-1.2,4-3.5c0-8,0-16,0-24c0-0.4,0-0.7,0-1.2
		c0.3,0,0.5-0.1,0.7-0.1C758.5,59.8,758.9,59.8,759.5,59.8z M765.9,20.2c0-4.1-3.4-7.5-7.5-7.5c-4.2,0-7.5,3.4-7.5,7.6
		c0,4.1,3.4,7.4,7.6,7.4C762.6,27.7,765.9,24.3,765.9,20.2z"/>
</g>
<g>
	<path class="st0" d="M812.2,59.8c0,0.5,0,0.9,0,1.3c0,7.8,0,15.6,0,23.4c0,0.4,0,0.8,0,1.2c0.2,1.4,1.2,2.6,2.6,2.8
		c2.2,0.4,4-1.2,4-3.6c0-14.8,0-29.7,0-44.5c0-0.6-0.3-1.5,0.6-1.6c0.9-0.1,1,0.9,1.1,1.6c0.3,2.8,0.5,5.6,0.7,8.5
		c0.2,2.5,0.4,5.1,0.6,7.6c0.2,1.8,1.5,3,3,2.8c1.7-0.1,2.6-1.5,2.5-3.3c-0.5-5.7-0.9-11.5-1.4-17.2c-0.4-4.8-4.2-8.5-9-8.6
		c-4-0.1-7.9-0.1-11.9,0c-4.5,0.1-8.4,3.7-8.9,8.1c-0.6,5.9-1.1,11.9-1.5,17.8c-0.1,1.8,0.9,3.1,2.5,3.2c1.6,0.1,2.9-1,3-2.8
		c0.4-5.2,0.9-10.5,1.3-15.7c0-0.5,0.1-1,0.3-1.5c0.1-0.3,0.6-0.5,0.9-0.5c0.2,0,0.5,0.4,0.6,0.7c0.1,0.4,0.1,0.8,0.1,1.2
		c0,14.6,0,29.2,0,43.8c0,0.4,0,0.8,0,1.2c0.2,1.4,1.2,2.6,2.6,2.8c2.2,0.4,4-1.2,4-3.5c0-8,0-16,0-24c0-0.4,0-0.7,0-1.2
		c0.3,0,0.5-0.1,0.7-0.1C811.1,59.8,811.6,59.8,812.2,59.8z M818.6,20.2c0-4.1-3.4-7.5-7.5-7.5c-4.2,0-7.5,3.4-7.5,7.6
		c0,4.1,3.4,7.4,7.6,7.4C815.3,27.7,818.6,24.3,818.6,20.2z"/>
</g>
<g>
	<path class="st0" d="M864.8,59.8c0,0.5,0,0.9,0,1.3c0,7.8,0,15.6,0,23.4c0,0.4,0,0.8,0,1.2c0.2,1.4,1.2,2.6,2.6,2.8
		c2.2,0.4,4-1.2,4-3.6c0-14.8,0-29.7,0-44.5c0-0.6-0.3-1.5,0.6-1.6c0.9-0.1,1,0.9,1.1,1.6c0.3,2.8,0.5,5.6,0.7,8.5
		c0.2,2.5,0.4,5.1,0.6,7.6c0.2,1.8,1.5,3,3,2.8c1.7-0.1,2.6-1.5,2.5-3.3c-0.5-5.7-0.9-11.5-1.4-17.2c-0.4-4.8-4.2-8.5-9-8.6
		c-4-0.1-7.9-0.1-11.9,0c-4.5,0.1-8.4,3.7-8.9,8.1c-0.6,5.9-1.1,11.9-1.5,17.8c-0.1,1.8,0.9,3.1,2.5,3.2c1.6,0.1,2.9-1,3-2.8
		c0.4-5.2,0.9-10.5,1.3-15.7c0-0.5,0.1-1,0.3-1.5c0.1-0.3,0.6-0.5,0.9-0.5c0.2,0,0.5,0.4,0.6,0.7c0.1,0.4,0.1,0.8,0.1,1.2
		c0,14.6,0,29.2,0,43.8c0,0.4,0,0.8,0,1.2c0.2,1.4,1.2,2.6,2.6,2.8c2.2,0.4,4-1.2,4-3.5c0-8,0-16,0-24c0-0.4,0-0.7,0-1.2
		c0.3,0,0.5-0.1,0.7-0.1C863.8,59.8,864.2,59.8,864.8,59.8z M871.2,20.2c0-4.1-3.4-7.5-7.5-7.5c-4.2,0-7.5,3.4-7.5,7.6
		c0,4.1,3.4,7.4,7.6,7.4C867.9,27.7,871.2,24.3,871.2,20.2z"/>
</g>
</svg>
