<?xml version="1.0" encoding="utf-8"?>
<!-- Generator: Adobe Illustrator 23.1.1, SVG Export Plug-In . SVG Version: 6.00 Build 0)  -->
<svg version="1.1" id="Camada_1" xmlns="http://www.w3.org/2000/svg" xmlns:xlink="http://www.w3.org/1999/xlink" x="0px" y="0px"
	 viewBox="0 0 886.8 595.4" style="enable-background:new 0 0 886.8 595.4;" xml:space="preserve">
<style type="text/css">
	.st0{fill:#0A6D80;stroke:#515151;stroke-width:0.25;}
	.st1{fill:#FCFCFC;stroke:#0A6D80;}
	.st2{fill:#FFFFFF;stroke:#0A6D80;}
</style>
<g>
	<path class="st0" d="M24,59.8c0,0.5,0,0.9,0,1.3c0,7.8,0,15.6,0,23.4c0,0.4,0,0.8,0,1.2c0.2,1.4,1.2,2.6,2.6,2.8
		c2.2,0.4,4-1.2,4-3.6c0-14.8,0-29.7,0-44.5c0-0.6-0.3-1.5,0.6-1.6c0.9-0.1,1,0.9,1.1,1.6c0.3,2.8,0.5,5.6,0.7,8.5
		c0.2,2.5,0.4,5.1,0.6,7.6c0.2,1.8,1.5,3,3,2.8c1.7-0.1,2.6-1.5,2.5-3.3c-0.5-5.7-0.9-11.5-1.4-17.2c-0.4-4.8-4.2-8.5-9-8.6
		c-4-0.1-7.9-0.1-11.9,0c-4.5,0.1-8.4,3.7-8.9,8.1C7.5,44.1,7,50,6.5,56c-0.1,1.8,0.9,3.1,2.5,3.2c1.6,0.1,2.9-1,3-2.8
		c0.4-5.2,0.9-10.5,1.3-15.7c0-0.5,0.1-1,0.3-1.5c0.1-0.3,0.6-0.5,0.9-0.5c0.2,0,0.5,0.4,0.6,0.7c0.1,0.4,0.1,0.8,0.1,1.2
		c0,14.6,0,29.2,0,43.8c0,0.4,0,0.8,0,1.2c0.2,1.4,1.2,2.6,2.6,2.8c2.2,0.4,4-1.2,4-3.5c0-8,0-16,0-24c0-0.4,0-0.7,0-1.2
		c0.3,0,0.5-0.1,0.7-0.1C22.9,59.8,23.4,59.8,24,59.8z M30.3,20.2c0-4.1-3.4-7.5-7.5-7.5c-4.2,0-7.5,3.4-7.5,7.6
		c0,4.1,3.4,7.4,7.6,7.4C27,27.7,30.4,24.3,30.3,20.2z"/>
</g>
<g>
	<path class="st0" d="M76.6,59.8c0,0.5,0,0.9,0,1.3c0,7.8,0,15.6,0,23.4c0,0.4,0,0.8,0,1.2c0.2,1.4,1.2,2.6,2.6,2.8
		c2.2,0.4,4-1.2,4-3.6c0-14.8,0-29.7,0-44.5c0-0.6-0.3-1.5,0.6-1.6s1,0.9,1.1,1.6c0.3,2.8,0.5,5.6,0.7,8.5c0.2,2.5,0.4,5.1,0.6,7.6
		c0.2,1.8,1.5,3,3,2.8c1.7-0.1,2.6-1.5,2.5-3.3c-0.5-5.7-0.9-11.5-1.4-17.2c-0.4-4.8-4.2-8.5-9-8.6c-4-0.1-7.9-0.1-11.9,0
		c-4.5,0.1-8.4,3.7-8.9,8.1C60.1,44.1,59.7,50,59.2,56c-0.1,1.8,0.9,3.1,2.5,3.2c1.6,0.1,2.9-1,3-2.8c0.4-5.2,0.9-10.5,1.3-15.7
		c0-0.5,0.1-1,0.3-1.5c0.1-0.3,0.6-0.5,0.9-0.5c0.2,0,0.5,0.4,0.6,0.7c0.1,0.4,0.1,0.8,0.1,1.2c0,14.6,0,29.2,0,43.8
		c0,0.4,0,0.8,0,1.2c0.2,1.4,1.2,2.6,2.6,2.8c2.2,0.4,4-1.2,4-3.5c0-8,0-16,0-24c0-0.4,0-0.7,0-1.2c0.3,0,0.5-0.1,0.7-0.1
		C75.6,59.8,76,59.8,76.6,59.8z M83,20.2c0-4.1-3.4-7.5-7.5-7.5c-4.2,0-7.5,3.4-7.5,7.6c0,4.1,3.4,7.4,7.6,7.4
		C79.7,27.7,83,24.3,83,20.2z"/>
</g>
<g>
	<path class="st0" d="M129.3,59.8c0,0.5,0,0.9,0,1.3c0,7.8,0,15.6,0,23.4c0,0.4,0,0.8,0,1.2c0.2,1.4,1.2,2.6,2.6,2.8
		c2.2,0.4,4-1.2,4-3.6c0-14.8,0-29.7,0-44.5c0-0.6-0.3-1.5,0.6-1.6c0.9-0.1,1,0.9,1.1,1.6c0.3,2.8,0.5,5.6,0.7,8.5
		c0.2,2.5,0.4,5.1,0.6,7.6c0.2,1.8,1.5,3,3,2.8c1.7-0.1,2.6-1.5,2.5-3.3c-0.5-5.7-0.9-11.5-1.4-17.2c-0.4-4.8-4.2-8.5-9-8.6
		c-4-0.1-7.9-0.1-11.9,0c-4.5,0.1-8.4,3.7-8.9,8.1c-0.6,5.9-1.1,11.9-1.5,17.8c-0.1,1.8,0.9,3.1,2.5,3.2c1.6,0.1,2.9-1,3-2.8
		c0.4-5.2,0.9-10.5,1.3-15.7c0-0.5,0.1-1,0.3-1.5c0.1-0.3,0.6-0.5,0.9-0.5c0.2,0,0.5,0.4,0.6,0.7c0.1,0.4,0.1,0.8,0.1,1.2
		c0,14.6,0,29.2,0,43.8c0,0.4,0,0.8,0,1.2c0.2,1.4,1.2,2.6,2.6,2.8c2.2,0.4,4-1.2,4-3.5c0-8,0-16,0-24c0-0.4,0-0.7,0-1.2
		c0.3,0,0.5-0.1,0.7-0.1C128.2,59.8,128.7,59.8,129.3,59.8z M135.6,20.2c0-4.1-3.4-7.5-7.5-7.5c-4.2,0-7.5,3.4-7.5,7.6
		c0,4.1,3.4,7.4,7.6,7.4C132.3,27.7,135.6,24.3,135.6,20.2z"/>
</g>
<g>
	<path class="st0" d="M181.9,59.8c0,0.5,0,0.9,0,1.3c0,7.8,0,15.6,0,23.4c0,0.4,0,0.8,0,1.2c0.2,1.4,1.2,2.6,2.6,2.8
		c2.2,0.4,4-1.2,4-3.6c0-14.8,0-29.7,0-44.5c0-0.6-0.3-1.5,0.6-1.6c0.9-0.1,1,0.9,1.1,1.6c0.3,2.8,0.5,5.6,0.7,8.5
		c0.2,2.5,0.4,5.1,0.6,7.6c0.2,1.8,1.5,3,3,2.8c1.7-0.1,2.6-1.5,2.5-3.3c-0.5-5.7-0.9-11.5-1.4-17.2c-0.4-4.8-4.2-8.5-9-8.6
		c-4-0.1-7.9-0.1-11.9,0c-4.5,0.1-8.4,3.7-8.9,8.1c-0.6,5.9-1.1,11.9-1.5,17.8c-0.1,1.8,0.9,3.1,2.5,3.2c1.6,0.1,2.9-1,3-2.8
		c0.4-5.2,0.9-10.5,1.3-15.7c0-0.5,0.1-1,0.3-1.5c0.1-0.3,0.6-0.5,0.9-0.5c0.2,0,0.5,0.4,0.6,0.7c0.1,0.4,0.1,0.8,0.1,1.2
		c0,14.6,0,29.2,0,43.8c0,0.4,0,0.8,0,1.2c0.2,1.4,1.2,2.6,2.6,2.8c2.2,0.4,4-1.2,4-3.5c0-8,0-16,0-24c0-0.4,0-0.7,0-1.2
		c0.3,0,0.5-0.1,0.7-0.1C180.9,59.8,181.3,59.8,181.9,59.8z M188.3,20.2c0-4.1-3.4-7.5-7.5-7.5c-4.2,0-7.5,3.4-7.5,7.6
		c0,4.1,3.4,7.4,7.6,7.4C185,27.7,188.3,24.3,188.3,20.2z"/>
</g>
<g>
	<path class="st0" d="M234.6,59.8c0,0.5,0,0.9,0,1.3c0,7.8,0,15.6,0,23.4c0,0.4,0,0.8,0,1.2c0.2,1.4,1.2,2.6,2.6,2.8
		c2.2,0.4,4-1.2,4-3.6c0-14.8,0-29.7,0-44.5c0-0.6-0.3-1.5,0.6-1.6c0.9-0.1,1,0.9,1.1,1.6c0.3,2.8,0.5,5.6,0.7,8.5
		c0.2,2.5,0.4,5.1,0.6,7.6c0.2,1.8,1.5,3,3,2.8c1.7-0.1,2.6-1.5,2.5-3.3c-0.5-5.7-0.9-11.5-1.4-17.2c-0.4-4.8-4.2-8.5-9-8.6
		c-4-0.1-7.9-0.1-11.9,0c-4.5,0.1-8.4,3.7-8.9,8.1c-0.6,5.9-1.1,11.9-1.5,17.8c-0.1,1.8,0.9,3.1,2.5,3.2c1.6,0.1,2.9-1,3-2.8
		c0.4-5.2,0.9-10.5,1.3-15.7c0-0.5,0.1-1,0.3-1.5c0.1-0.3,0.6-0.5,0.9-0.5c0.2,0,0.5,0.4,0.6,0.7c0.1,0.4,0.1,0.8,0.1,1.2
		c0,14.6,0,29.2,0,43.8c0,0.4,0,0.8,0,1.2c0.2,1.4,1.2,2.6,2.6,2.8c2.2,0.4,4-1.2,4-3.5c0-8,0-16,0-24c0-0.4,0-0.7,0-1.2
		c0.3,0,0.5-0.1,0.7-0.1C233.5,59.8,234,59.8,234.6,59.8z M240.9,20.2c0-4.1-3.4-7.5-7.5-7.5c-4.2,0-7.5,3.4-7.5,7.6
		c0,4.1,3.4,7.4,7.6,7.4C237.6,27.7,240.9,24.3,240.9,20.2z"/>
</g>
<g>
	<path class="st0" d="M287.2,59.8c0,0.5,0,0.9,0,1.3c0,7.8,0,15.6,0,23.4c0,0.4,0,0.8,0,1.2c0.2,1.4,1.2,2.6,2.6,2.8
		c2.2,0.4,4-1.2,4-3.6c0-14.8,0-29.7,0-44.5c0-0.6-0.3-1.5,0.6-1.6s1,0.9,1.1,1.6c0.3,2.8,0.5,5.6,0.7,8.5c0.2,2.5,0.4,5.1,0.6,7.6
		c0.2,1.8,1.5,3,3,2.8c1.7-0.1,2.6-1.5,2.5-3.3c-0.5-5.7-0.9-11.5-1.4-17.2c-0.4-4.8-4.2-8.5-9-8.6c-4-0.1-7.9-0.1-11.9,0
		c-4.5,0.1-8.4,3.7-8.9,8.1c-0.6,5.9-1.1,11.9-1.5,17.8c-0.1,1.8,0.9,3.1,2.5,3.2c1.6,0.1,2.9-1,3-2.8c0.4-5.2,0.9-10.5,1.3-15.7
		c0-0.5,0.1-1,0.3-1.5c0.1-0.3,0.6-0.5,0.9-0.5c0.2,0,0.5,0.4,0.6,0.7c0.1,0.4,0.1,0.8,0.1,1.2c0,14.6,0,29.2,0,43.8
		c0,0.4,0,0.8,0,1.2c0.2,1.4,1.2,2.6,2.6,2.8c2.2,0.4,4-1.2,4-3.5c0-8,0-16,0-24c0-0.4,0-0.7,0-1.2c0.3,0,0.5-0.1,0.7-0.1
		C286.2,59.8,286.6,59.8,287.2,59.8z M293.6,20.2c0-4.1-3.4-7.5-7.5-7.5c-4.2,0-7.5,3.4-7.5,7.6c0,4.1,3.4,7.4,7.6,7.4
		C290.3,27.7,293.6,24.3,293.6,20.2z"/>
</g>
<g>
	<path class="st0" d="M339.8,59.8c0,0.5,0,0.9,0,1.3c0,7.8,0,15.6,0,23.4c0,0.4,0,0.8,0,1.2c0.2,1.4,1.2,2.6,2.6,2.8
		c2.2,0.4,4-1.2,4-3.6c0-14.8,0-29.7,0-44.5c0-0.6-0.3-1.5,0.6-1.6s1,0.9,1.1,1.6c0.3,2.8,0.5,5.6,0.7,8.5c0.2,2.5,0.4,5.1,0.6,7.6
		c0.2,1.8,1.5,3,3,2.8c1.7-0.1,2.6-1.5,2.5-3.3c-0.5-5.7-0.9-11.5-1.4-17.2c-0.4-4.8-4.2-8.5-9-8.6c-4-0.1-7.9-0.1-11.9,0
		c-4.5,0.1-8.4,3.7-8.9,8.1c-0.6,5.9-1.1,11.9-1.5,17.8c-0.1,1.8,0.9,3.1,2.5,3.2c1.6,0.1,2.9-1,3-2.8c0.4-5.2,0.9-10.5,1.3-15.7
		c0-0.5,0.1-1,0.3-1.5c0.1-0.3,0.6-0.5,0.9-0.5c0.2,0,0.5,0.4,0.6,0.7c0.1,0.4,0.1,0.8,0.1,1.2c0,14.6,0,29.2,0,43.8
		c0,0.4,0,0.8,0,1.2c0.2,1.4,1.2,2.6,2.6,2.8c2.2,0.4,4-1.2,4-3.5c0-8,0-16,0-24c0-0.4,0-0.7,0-1.2c0.3,0,0.5-0.1,0.7-0.1
		C338.8,59.8,339.2,59.8,339.8,59.8z M346.2,20.2c0-4.1-3.4-7.5-7.5-7.5c-4.2,0-7.5,3.4-7.5,7.6c0,4.1,3.4,7.4,7.6,7.4
		C342.9,27.7,346.2,24.3,346.2,20.2z"/>
</g>
<g>
	<path class="st0" d="M392.5,59.8c0,0.5,0,0.9,0,1.3c0,7.8,0,15.6,0,23.4c0,0.4,0,0.8,0,1.2c0.2,1.4,1.2,2.6,2.6,2.8
		c2.2,0.4,4-1.2,4-3.6c0-14.8,0-29.7,0-44.5c0-0.6-0.3-1.5,0.6-1.6s1,0.9,1.1,1.6c0.3,2.8,0.5,5.6,0.7,8.5c0.2,2.5,0.4,5.1,0.6,7.6
		c0.2,1.8,1.5,3,3,2.8c1.7-0.1,2.6-1.5,2.5-3.3c-0.5-5.7-0.9-11.5-1.4-17.2c-0.4-4.8-4.2-8.5-9-8.6c-4-0.1-7.9-0.1-11.9,0
		c-4.5,0.1-8.4,3.7-8.9,8.1c-0.6,5.9-1.1,11.9-1.5,17.8c-0.1,1.8,0.9,3.1,2.5,3.2c1.6,0.1,2.9-1,3-2.8c0.4-5.2,0.9-10.5,1.3-15.7
		c0-0.5,0.1-1,0.3-1.5c0.1-0.3,0.6-0.5,0.9-0.5c0.2,0,0.5,0.4,0.6,0.7c0.1,0.4,0.1,0.8,0.1,1.2c0,14.6,0,29.2,0,43.8
		c0,0.4,0,0.8,0,1.2c0.2,1.4,1.2,2.6,2.6,2.8c2.2,0.4,4-1.2,4-3.5c0-8,0-16,0-24c0-0.4,0-0.7,0-1.2c0.3,0,0.5-0.1,0.7-0.1
		C391.5,59.8,391.9,59.8,392.5,59.8z M398.9,20.2c0-4.1-3.4-7.5-7.5-7.5c-4.2,0-7.5,3.4-7.5,7.6c0,4.1,3.4,7.4,7.6,7.4
		C395.6,27.7,398.9,24.3,398.9,20.2z"/>
</g>
<g>
	<path class="st0" d="M445.1,59.8c0,0.5,0,0.9,0,1.3c0,7.8,0,15.6,0,23.4c0,0.4,0,0.8,0,1.2c0.2,1.4,1.2,2.6,2.6,2.8
		c2.2,0.4,4-1.2,4-3.6c0-14.8,0-29.7,0-44.5c0-0.6-0.3-1.5,0.6-1.6s1,0.9,1.1,1.6c0.3,2.8,0.5,5.6,0.7,8.5c0.2,2.5,0.4,5.1,0.6,7.6
		c0.2,1.8,1.5,3,3,2.8c1.7-0.1,2.6-1.5,2.5-3.3c-0.5-5.7-0.9-11.5-1.4-17.2c-0.4-4.8-4.2-8.5-9-8.6c-4-0.1-7.9-0.1-11.9,0
		c-4.5,0.1-8.4,3.7-8.9,8.1c-0.6,5.9-1.1,11.9-1.5,17.8c-0.1,1.8,0.9,3.1,2.5,3.2c1.6,0.1,2.9-1,3-2.8c0.4-5.2,0.9-10.5,1.3-15.7
		c0-0.5,0.1-1,0.3-1.5c0.1-0.3,0.6-0.5,0.9-0.5c0.2,0,0.5,0.4,0.6,0.7c0.1,0.4,0.1,0.8,0.1,1.2c0,14.6,0,29.2,0,43.8
		c0,0.4,0,0.8,0,1.2c0.2,1.4,1.2,2.6,2.6,2.8c2.2,0.4,4-1.2,4-3.5c0-8,0-16,0-24c0-0.4,0-0.7,0-1.2c0.3,0,0.5-0.1,0.7-0.1
		C444.1,59.8,444.5,59.8,445.1,59.8z M451.5,20.2c0-4.1-3.4-7.5-7.5-7.5c-4.2,0-7.5,3.4-7.5,7.6c0,4.1,3.4,7.4,7.6,7.4
		C448.2,27.7,451.5,24.3,451.5,20.2z"/>
</g>
<g>
	<path class="st0" d="M497.8,59.8c0,0.5,0,0.9,0,1.3c0,7.8,0,15.6,0,23.4c0,0.4,0,0.8,0,1.2c0.2,1.4,1.2,2.6,2.6,2.8
		c2.2,0.4,4-1.2,4-3.6c0-14.8,0-29.7,0-44.5c0-0.6-0.3-1.5,0.6-1.6s1,0.9,1.1,1.6c0.3,2.8,0.5,5.6,0.7,8.5c0.2,2.5,0.4,5.1,0.6,7.6
		c0.2,1.8,1.5,3,3,2.8c1.7-0.1,2.6-1.5,2.5-3.3c-0.5-5.7-0.9-11.5-1.4-17.2c-0.4-4.8-4.2-8.5-9-8.6c-4-0.1-7.9-0.1-11.9,0
		c-4.5,0.1-8.4,3.7-8.9,8.1c-0.6,5.9-1.1,11.9-1.5,17.8c-0.1,1.8,0.9,3.1,2.5,3.2c1.6,0.1,2.9-1,3-2.8c0.4-5.2,0.9-10.5,1.3-15.7
		c0-0.5,0.1-1,0.3-1.5c0.1-0.3,0.6-0.5,0.9-0.5c0.2,0,0.5,0.4,0.6,0.7c0.1,0.4,0.1,0.8,0.1,1.2c0,14.6,0,29.2,0,43.8
		c0,0.4,0,0.8,0,1.2c0.2,1.4,1.2,2.6,2.6,2.8c2.2,0.4,4-1.2,4-3.5c0-8,0-16,0-24c0-0.4,0-0.7,0-1.2c0.3,0,0.5-0.1,0.7-0.1
		C496.8,59.8,497.2,59.8,497.8,59.8z M504.2,20.2c0-4.1-3.4-7.5-7.5-7.5c-4.2,0-7.5,3.4-7.5,7.6c0,4.1,3.4,7.4,7.6,7.4
		C500.9,27.7,504.2,24.3,504.2,20.2z"/>
</g>
<g>
	<path class="st1" d="M392.3,155.9c-0.6,0-1,0-1.5,0c-0.2,0-0.4,0-0.7,0.1c0,0.4,0,0.8,0,1.1c0,7.9,0,15.8,0,23.7
		c0,2.3-1.8,3.9-3.9,3.5c-1.4-0.3-2.5-1.4-2.6-2.8c0-0.4,0-0.8,0-1.2c0-14.5,0-28.9,0-43.4c0-0.4,0-0.8-0.1-1.2
		c-0.1-0.3-0.4-0.7-0.6-0.7c-0.3,0-0.7,0.3-0.9,0.5c-0.2,0.4-0.3,1-0.3,1.4c-0.4,5.2-0.8,10.4-1.3,15.6c-0.2,1.8-1.4,2.9-3,2.8
		c-1.5-0.1-2.6-1.5-2.4-3.2c0.5-5.9,0.9-11.8,1.5-17.7c0.5-4.4,4.3-7.9,8.8-8.1c3.9-0.1,7.8-0.1,11.8,0c4.7,0.1,8.5,3.8,8.9,8.6
		c0.5,5.7,0.9,11.4,1.4,17c0.2,1.9-0.8,3.2-2.5,3.3c-1.5,0.1-2.8-1.1-3-2.8c-0.2-2.5-0.4-5-0.6-7.5c-0.2-2.8-0.4-5.6-0.7-8.4
		c-0.1-0.7-0.1-1.6-1.1-1.6c-0.9,0.1-0.6,1-0.6,1.6c0,14.7,0,29.4,0,44.1c0,2.4-1.7,4-3.9,3.6c-1.4-0.3-2.5-1.4-2.6-2.8
		c0-0.4,0-0.8,0-1.2c0-7.7,0-15.5,0-23.2C392.3,156.8,392.3,156.4,392.3,155.9z"/>
	<path class="st2" d="M398.7,116c0,4.1-3.3,7.5-7.3,7.5c-4.1,0-7.5-3.3-7.5-7.3c0-4.1,3.3-7.5,7.4-7.5
		C395.3,108.5,398.7,111.9,398.7,116z"/>
</g>
<g>
	<path class="st0" d="M24,155.7c0,0.5,0,0.9,0,1.3c0,7.8,0,15.6,0,23.4c0,0.4,0,0.8,0,1.2c0.2,1.4,1.2,2.6,2.6,2.8
		c2.2,0.4,4-1.2,4-3.6c0-14.8,0-29.7,0-44.5c0-0.6-0.3-1.5,0.6-1.6c0.9-0.1,1,0.9,1.1,1.6c0.3,2.8,0.5,5.6,0.7,8.5
		c0.2,2.5,0.4,5.1,0.6,7.6c0.2,1.8,1.5,3,3,2.8c1.7-0.1,2.6-1.5,2.5-3.3c-0.5-5.7-0.9-11.5-1.4-17.2c-0.4-4.8-4.2-8.5-9-8.6
		c-4-0.1-7.9-0.1-11.9,0c-4.5,0.1-8.4,3.7-8.9,8.1C7.5,140,7,145.9,6.5,151.9c-0.1,1.8,0.9,3.1,2.5,3.2c1.6,0.1,2.9-1,3-2.8
		c0.4-5.2,0.9-10.5,1.3-15.7c0-0.5,0.1-1,0.3-1.5c0.1-0.3,0.6-0.5,0.9-0.5c0.2,0,0.5,0.4,0.6,0.7c0.1,0.4,0.1,0.8,0.1,1.2
		c0,14.6,0,29.2,0,43.8c0,0.4,0,0.8,0,1.2c0.2,1.4,1.2,2.6,2.6,2.8c2.2,0.4,4-1.2,4-3.5c0-8,0-16,0-24c0-0.4,0-0.7,0-1.2
		c0.3,0,0.5-0.1,0.7-0.1C22.9,155.7,23.4,155.7,24,155.7z M30.3,116c0-4.1-3.4-7.5-7.5-7.5c-4.2,0-7.5,3.4-7.5,7.6
		c0,4.1,3.4,7.4,7.6,7.4C27,123.6,30.4,120.2,30.3,116z"/>
</g>
<g>
	<path class="st0" d="M76.6,155.7c0,0.5,0,0.9,0,1.3c0,7.8,0,15.6,0,23.4c0,0.4,0,0.8,0,1.2c0.2,1.4,1.2,2.6,2.6,2.8
		c2.2,0.4,4-1.2,4-3.6c0-14.8,0-29.7,0-44.5c0-0.6-0.3-1.5,0.6-1.6s1,0.9,1.1,1.6c0.3,2.8,0.5,5.6,0.7,8.5c0.2,2.5,0.4,5.1,0.6,7.6
		c0.2,1.8,1.5,3,3,2.8c1.7-0.1,2.6-1.5,2.5-3.3c-0.5-5.7-0.9-11.5-1.4-17.2c-0.4-4.8-4.2-8.5-9-8.6c-4-0.1-7.9-0.1-11.9,0
		c-4.5,0.1-8.4,3.7-8.9,8.1c-0.6,5.9-1.1,11.9-1.5,17.8c-0.1,1.8,0.9,3.1,2.5,3.2c1.6,0.1,2.9-1,3-2.8c0.4-5.2,0.9-10.5,1.3-15.7
		c0-0.5,0.1-1,0.3-1.5c0.1-0.3,0.6-0.5,0.9-0.5c0.2,0,0.5,0.4,0.6,0.7c0.1,0.4,0.1,0.8,0.1,1.2c0,14.6,0,29.2,0,43.8
		c0,0.4,0,0.8,0,1.2c0.2,1.4,1.2,2.6,2.6,2.8c2.2,0.4,4-1.2,4-3.5c0-8,0-16,0-24c0-0.4,0-0.7,0-1.2c0.3,0,0.5-0.1,0.7-0.1
		C75.6,155.7,76,155.7,76.6,155.7z M83,116c0-4.1-3.4-7.5-7.5-7.5c-4.2,0-7.5,3.4-7.5,7.6c0,4.1,3.4,7.4,7.6,7.4
		C79.7,123.6,83,120.2,83,116z"/>
</g>
<g>
	<path class="st1" d="M444.7,155.9c-0.6,0-1,0-1.5,0c-0.2,0-0.4,0-0.7,0.1c0,0.4,0,0.8,0,1.1c0,7.9,0,15.8,0,23.7
		c0,2.3-1.8,3.9-3.9,3.5c-1.4-0.3-2.5-1.4-2.6-2.8c0-0.4,0-0.8,0-1.2c0-14.5,0-28.9,0-43.4c0-0.4,0-0.8-0.1-1.2
		c-0.1-0.3-0.4-0.7-0.6-0.7c-0.3,0-0.7,0.3-0.9,0.5c-0.2,0.4-0.3,1-0.3,1.4c-0.4,5.2-0.8,10.4-1.3,15.6c-0.2,1.8-1.4,2.9-3,2.8
		c-1.5-0.1-2.6-1.5-2.4-3.2c0.5-5.9,0.9-11.8,1.5-17.7c0.5-4.4,4.3-7.9,8.8-8.1c3.9-0.1,7.8-0.1,11.8,0c4.7,0.1,8.5,3.8,8.9,8.6
		c0.5,5.7,0.9,11.4,1.4,17c0.2,1.9-0.8,3.2-2.5,3.3c-1.5,0.1-2.8-1.1-3-2.8c-0.2-2.5-0.4-5-0.6-7.5c-0.2-2.8-0.4-5.6-0.7-8.4
		c-0.1-0.7-0.1-1.6-1.1-1.6c-0.9,0.1-0.6,1-0.6,1.6c0,14.7,0,29.4,0,44.1c0,2.4-1.7,4-3.9,3.6c-1.4-0.3-2.5-1.4-2.6-2.8
		c0-0.4,0-0.8,0-1.2c0-7.7,0-15.5,0-23.2C444.7,156.8,444.7,156.4,444.7,155.9z"/>
	<path class="st2" d="M451,116c0,4.1-3.3,7.5-7.3,7.5c-4.1,0-7.5-3.3-7.5-7.3c0-4.1,3.3-7.5,7.4-7.5C447.7,108.5,451,111.9,451,116z
		"/>
</g>
<g>
	<path class="st1" d="M497.1,155.9c-0.6,0-1,0-1.5,0c-0.2,0-0.4,0-0.7,0.1c0,0.4,0,0.8,0,1.1c0,7.9,0,15.8,0,23.7
		c0,2.3-1.8,3.9-3.9,3.5c-1.4-0.3-2.5-1.4-2.6-2.8c0-0.4,0-0.8,0-1.2c0-14.5,0-28.9,0-43.4c0-0.4,0-0.8-0.1-1.2
		c-0.1-0.3-0.4-0.7-0.6-0.7c-0.3,0-0.7,0.3-0.9,0.5c-0.2,0.4-0.3,1-0.3,1.4c-0.4,5.2-0.8,10.4-1.3,15.6c-0.2,1.8-1.4,2.9-3,2.8
		c-1.5-0.1-2.6-1.5-2.4-3.2c0.5-5.9,0.9-11.8,1.5-17.7c0.5-4.4,4.3-7.9,8.8-8.1c3.9-0.1,7.8-0.1,11.8,0c4.7,0.1,8.5,3.8,8.9,8.6
		c0.5,5.7,0.9,11.4,1.4,17c0.2,1.9-0.8,3.2-2.5,3.3c-1.5,0.1-2.8-1.1-3-2.8c-0.2-2.5-0.4-5-0.6-7.5c-0.2-2.8-0.4-5.6-0.7-8.4
		c-0.1-0.7-0.1-1.6-1.1-1.6c-0.9,0.1-0.6,1-0.6,1.6c0,14.7,0,29.4,0,44.1c0,2.4-1.7,4-3.9,3.6c-1.4-0.3-2.5-1.4-2.6-2.8
		c0-0.4,0-0.8,0-1.2c0-7.7,0-15.5,0-23.2C497.1,156.8,497.1,156.4,497.1,155.9z"/>
	<path class="st2" d="M503.4,116c0,4.1-3.3,7.5-7.3,7.5c-4.1,0-7.5-3.3-7.5-7.3c0-4.1,3.3-7.5,7.4-7.5
		C500,108.5,503.4,111.9,503.4,116z"/>
</g>
<g>
	<path class="st1" d="M25.5,251.8c-0.6,0-1,0-1.5,0c-0.2,0-0.4,0-0.7,0.1c0,0.4,0,0.8,0,1.1c0,7.9,0,15.8,0,23.7
		c0,2.3-1.8,3.9-3.9,3.5c-1.4-0.3-2.5-1.4-2.6-2.8c0-0.4,0-0.8,0-1.2c0-14.5,0-28.9,0-43.4c0-0.4,0-0.8-0.1-1.2
		c-0.1-0.3-0.4-0.7-0.6-0.7c-0.3,0-0.7,0.3-0.9,0.5c-0.2,0.4-0.3,1-0.3,1.4c-0.4,5.2-0.8,10.4-1.3,15.6c-0.2,1.8-1.4,2.9-3,2.8
		c-1.5-0.1-2.6-1.5-2.4-3.2c0.5-5.9,0.9-11.8,1.5-17.7c0.5-4.4,4.3-7.9,8.8-8.1c3.9-0.1,7.8-0.1,11.8,0c4.7,0.1,8.5,3.8,8.9,8.6
		c0.5,5.7,0.9,11.4,1.4,17c0.2,1.9-0.8,3.2-2.5,3.3c-1.5,0.1-2.8-1.1-3-2.8c-0.2-2.5-0.4-5-0.6-7.5c-0.2-2.8-0.4-5.6-0.7-8.4
		c-0.1-0.7-0.1-1.6-1.1-1.6c-0.9,0.1-0.6,1-0.6,1.6c0,14.7,0,29.4,0,44.1c0,2.4-1.7,4-3.9,3.6c-1.4-0.3-2.5-1.4-2.6-2.8
		c0-0.4,0-0.8,0-1.2c0-7.7,0-15.5,0-23.2C25.5,252.7,25.5,252.3,25.5,251.8z"/>
	<path class="st2" d="M31.9,211.8c0,4.1-3.3,7.5-7.3,7.5c-4.1,0-7.5-3.3-7.5-7.3c0-4.1,3.3-7.5,7.4-7.5
		C28.5,204.4,31.9,207.7,31.9,211.8z"/>
</g>
<g>
	<path class="st1" d="M77.9,251.8c-0.6,0-1,0-1.5,0c-0.2,0-0.4,0-0.7,0.1c0,0.4,0,0.8,0,1.1c0,7.9,0,15.8,0,23.7
		c0,2.3-1.8,3.9-3.9,3.5c-1.4-0.3-2.5-1.4-2.6-2.8c0-0.4,0-0.8,0-1.2c0-14.5,0-28.9,0-43.4c0-0.4,0-0.8-0.1-1.2
		c-0.1-0.3-0.4-0.7-0.6-0.7c-0.3,0-0.7,0.3-0.9,0.5c-0.2,0.4-0.3,1-0.3,1.4c-0.4,5.2-0.8,10.4-1.3,15.6c-0.2,1.8-1.4,2.9-3,2.8
		c-1.5-0.1-2.6-1.5-2.4-3.2c0.5-5.9,0.9-11.8,1.5-17.7c0.5-4.4,4.3-7.9,8.8-8.1c3.9-0.1,7.8-0.1,11.8,0c4.7,0.1,8.5,3.8,8.9,8.6
		c0.5,5.7,0.9,11.4,1.4,17c0.2,1.9-0.8,3.2-2.5,3.3c-1.5,0.1-2.8-1.1-3-2.8c-0.2-2.5-0.4-5-0.6-7.5c-0.2-2.8-0.4-5.6-0.7-8.4
		c-0.1-0.7-0.1-1.6-1.1-1.6c-0.9,0.1-0.6,1-0.6,1.6c0,14.7,0,29.4,0,44.1c0,2.4-1.7,4-3.9,3.6c-1.4-0.3-2.5-1.4-2.6-2.8
		c0-0.4,0-0.8,0-1.2c0-7.7,0-15.5,0-23.2C77.9,252.7,77.9,252.3,77.9,251.8z"/>
	<path class="st2" d="M84.2,211.8c0,4.1-3.3,7.5-7.3,7.5c-4.1,0-7.5-3.3-7.5-7.3c0-4.1,3.3-7.5,7.4-7.5
		C80.9,204.4,84.2,207.7,84.2,211.8z"/>
</g>
<g>
	<path class="st1" d="M130.3,251.8c-0.6,0-1,0-1.5,0c-0.2,0-0.4,0-0.7,0.1c0,0.4,0,0.8,0,1.1c0,7.9,0,15.8,0,23.7
		c0,2.3-1.8,3.9-3.9,3.5c-1.4-0.3-2.5-1.4-2.6-2.8c0-0.4,0-0.8,0-1.2c0-14.5,0-28.9,0-43.4c0-0.4,0-0.8-0.1-1.2
		c-0.1-0.3-0.4-0.7-0.6-0.7c-0.3,0-0.7,0.3-0.9,0.5c-0.2,0.4-0.3,1-0.3,1.4c-0.4,5.2-0.8,10.4-1.3,15.6c-0.2,1.8-1.4,2.9-3,2.8
		c-1.5-0.1-2.6-1.5-2.4-3.2c0.5-5.9,0.9-11.8,1.5-17.7c0.5-4.4,4.3-7.9,8.8-8.1c3.9-0.1,7.8-0.1,11.8,0c4.7,0.1,8.5,3.8,8.9,8.6
		c0.5,5.7,0.9,11.4,1.4,17c0.2,1.9-0.8,3.2-2.5,3.3c-1.5,0.1-2.8-1.1-3-2.8c-0.2-2.5-0.4-5-0.6-7.5c-0.2-2.8-0.4-5.6-0.7-8.4
		c-0.1-0.7-0.1-1.6-1.1-1.6c-0.9,0.1-0.6,1-0.6,1.6c0,14.7,0,29.4,0,44.1c0,2.4-1.7,4-3.9,3.6c-1.4-0.3-2.5-1.4-2.6-2.8
		c0-0.4,0-0.8,0-1.2c0-7.7,0-15.5,0-23.2C130.3,252.7,130.3,252.3,130.3,251.8z"/>
	<path class="st2" d="M136.6,211.8c0,4.1-3.3,7.5-7.3,7.5c-4.1,0-7.5-3.3-7.5-7.3c0-4.1,3.3-7.5,7.4-7.5
		C133.2,204.4,136.6,207.7,136.6,211.8z"/>
</g>
<g>
	<path class="st1" d="M182.6,251.8c-0.6,0-1,0-1.5,0c-0.2,0-0.4,0-0.7,0.1c0,0.4,0,0.8,0,1.1c0,7.9,0,15.8,0,23.7
		c0,2.3-1.8,3.9-3.9,3.5c-1.4-0.3-2.5-1.4-2.6-2.8c0-0.4,0-0.8,0-1.2c0-14.5,0-28.9,0-43.4c0-0.4,0-0.8-0.1-1.2
		c-0.1-0.3-0.4-0.7-0.6-0.7c-0.3,0-0.7,0.3-0.9,0.5c-0.2,0.4-0.3,1-0.3,1.4c-0.4,5.2-0.8,10.4-1.3,15.6c-0.2,1.8-1.4,2.9-3,2.8
		c-1.5-0.1-2.6-1.5-2.4-3.2c0.5-5.9,0.9-11.8,1.5-17.7c0.5-4.4,4.3-7.9,8.8-8.1c3.9-0.1,7.8-0.1,11.8,0c4.7,0.1,8.5,3.8,8.9,8.6
		c0.5,5.7,0.9,11.4,1.4,17c0.2,1.9-0.8,3.2-2.5,3.3c-1.5,0.1-2.8-1.1-3-2.8c-0.2-2.5-0.4-5-0.6-7.5c-0.2-2.8-0.4-5.6-0.7-8.4
		c-0.1-0.7-0.1-1.6-1.1-1.6c-0.9,0.1-0.6,1-0.6,1.6c0,14.7,0,29.4,0,44.1c0,2.4-1.7,4-3.9,3.6c-1.4-0.3-2.5-1.4-2.6-2.8
		c0-0.4,0-0.8,0-1.2c0-7.7,0-15.5,0-23.2C182.6,252.7,182.6,252.3,182.6,251.8z"/>
	<path class="st2" d="M188.9,211.8c0,4.1-3.3,7.5-7.3,7.5c-4.1,0-7.5-3.3-7.5-7.3c0-4.1,3.3-7.5,7.4-7.5
		C185.6,204.4,188.9,207.7,188.9,211.8z"/>
</g>
<g>
	<path class="st1" d="M235,251.8c-0.6,0-1,0-1.5,0c-0.2,0-0.4,0-0.7,0.1c0,0.4,0,0.8,0,1.1c0,7.9,0,15.8,0,23.7
		c0,2.3-1.8,3.9-3.9,3.5c-1.4-0.3-2.5-1.4-2.6-2.8c0-0.4,0-0.8,0-1.2c0-14.5,0-28.9,0-43.4c0-0.4,0-0.8-0.1-1.2
		c-0.1-0.3-0.4-0.7-0.6-0.7c-0.3,0-0.7,0.3-0.9,0.5c-0.2,0.4-0.3,1-0.3,1.4c-0.4,5.2-0.8,10.4-1.3,15.6c-0.2,1.8-1.4,2.9-3,2.8
		c-1.5-0.1-2.6-1.5-2.4-3.2c0.5-5.9,0.9-11.8,1.5-17.7c0.5-4.4,4.3-7.9,8.8-8.1c3.9-0.1,7.8-0.1,11.8,0c4.7,0.1,8.5,3.8,8.9,8.6
		c0.5,5.7,0.9,11.4,1.4,17c0.2,1.9-0.8,3.2-2.5,3.3c-1.5,0.1-2.8-1.1-3-2.8c-0.2-2.5-0.4-5-0.6-7.5c-0.2-2.8-0.4-5.6-0.7-8.4
		c-0.1-0.7-0.1-1.6-1.1-1.6c-0.9,0.1-0.6,1-0.6,1.6c0,14.7,0,29.4,0,44.1c0,2.4-1.7,4-3.9,3.6c-1.4-0.3-2.5-1.4-2.6-2.8
		c0-0.4,0-0.8,0-1.2c0-7.7,0-15.5,0-23.2C235,252.7,235,252.3,235,251.8z"/>
	<path class="st2" d="M241.3,211.8c0,4.1-3.3,7.5-7.3,7.5c-4.1,0-7.5-3.3-7.5-7.3c0-4.1,3.3-7.5,7.4-7.5
		C237.9,204.4,241.3,207.7,241.3,211.8z"/>
</g>
<g>
	<path class="st1" d="M287.3,251.8c-0.6,0-1,0-1.5,0c-0.2,0-0.4,0-0.7,0.1c0,0.4,0,0.8,0,1.1c0,7.9,0,15.8,0,23.7
		c0,2.3-1.8,3.9-3.9,3.5c-1.4-0.3-2.5-1.4-2.6-2.8c0-0.4,0-0.8,0-1.2c0-14.5,0-28.9,0-43.4c0-0.4,0-0.8-0.1-1.2
		c-0.1-0.3-0.4-0.7-0.6-0.7c-0.3,0-0.7,0.3-0.9,0.5c-0.2,0.4-0.3,1-0.3,1.4c-0.4,5.2-0.8,10.4-1.3,15.6c-0.2,1.8-1.4,2.9-3,2.8
		c-1.5-0.1-2.6-1.5-2.4-3.2c0.5-5.9,0.9-11.8,1.5-17.7c0.5-4.4,4.3-7.9,8.8-8.1c3.9-0.1,7.8-0.1,11.8,0c4.7,0.1,8.5,3.8,8.9,8.6
		c0.5,5.7,0.9,11.4,1.4,17c0.2,1.9-0.8,3.2-2.5,3.3c-1.5,0.1-2.8-1.1-3-2.8c-0.2-2.5-0.4-5-0.6-7.5c-0.2-2.8-0.4-5.6-0.7-8.4
		c-0.1-0.7-0.1-1.6-1.1-1.6c-0.9,0.1-0.6,1-0.6,1.6c0,14.7,0,29.4,0,44.1c0,2.4-1.7,4-3.9,3.6c-1.4-0.3-2.5-1.4-2.6-2.8
		c0-0.4,0-0.8,0-1.2c0-7.7,0-15.5,0-23.2C287.3,252.7,287.3,252.3,287.3,251.8z"/>
	<path class="st2" d="M293.7,211.8c0,4.1-3.3,7.5-7.3,7.5c-4.1,0-7.5-3.3-7.5-7.3c0-4.1,3.3-7.5,7.4-7.5
		C290.3,204.4,293.6,207.7,293.7,211.8z"/>
</g>
<g>
	<path class="st1" d="M339.7,251.8c-0.6,0-1,0-1.5,0c-0.2,0-0.4,0-0.7,0.1c0,0.4,0,0.8,0,1.1c0,7.9,0,15.8,0,23.7
		c0,2.3-1.8,3.9-3.9,3.5c-1.4-0.3-2.5-1.4-2.6-2.8c0-0.4,0-0.8,0-1.2c0-14.5,0-28.9,0-43.4c0-0.4,0-0.8-0.1-1.2
		c-0.1-0.3-0.4-0.7-0.6-0.7c-0.3,0-0.7,0.3-0.9,0.5c-0.2,0.4-0.3,1-0.3,1.4c-0.4,5.2-0.8,10.4-1.3,15.6c-0.2,1.8-1.4,2.9-3,2.8
		c-1.5-0.1-2.6-1.5-2.4-3.2c0.5-5.9,0.9-11.8,1.5-17.7c0.5-4.4,4.3-7.9,8.8-8.1c3.9-0.1,7.8-0.1,11.8,0c4.7,0.1,8.5,3.8,8.9,8.6
		c0.5,5.7,0.9,11.4,1.4,17c0.2,1.9-0.8,3.2-2.5,3.3c-1.5,0.1-2.8-1.1-3-2.8c-0.2-2.5-0.4-5-0.6-7.5c-0.2-2.8-0.4-5.6-0.7-8.4
		c-0.1-0.7-0.1-1.6-1.1-1.6c-0.9,0.1-0.6,1-0.6,1.6c0,14.7,0,29.4,0,44.1c0,2.4-1.7,4-3.9,3.6c-1.4-0.3-2.5-1.4-2.6-2.8
		c0-0.4,0-0.8,0-1.2c0-7.7,0-15.5,0-23.2C339.7,252.7,339.7,252.3,339.7,251.8z"/>
	<path class="st2" d="M346,211.8c0,4.1-3.3,7.5-7.3,7.5c-4.1,0-7.5-3.3-7.5-7.3c0-4.1,3.3-7.5,7.4-7.5
		C342.6,204.4,346,207.7,346,211.8z"/>
</g>
<g>
	<path class="st1" d="M392.1,251.8c-0.6,0-1,0-1.5,0c-0.2,0-0.4,0-0.7,0.1c0,0.4,0,0.8,0,1.1c0,7.9,0,15.8,0,23.7
		c0,2.3-1.8,3.9-3.9,3.5c-1.4-0.3-2.5-1.4-2.6-2.8c0-0.4,0-0.8,0-1.2c0-14.5,0-28.9,0-43.4c0-0.4,0-0.8-0.1-1.2
		c-0.1-0.3-0.4-0.7-0.6-0.7c-0.3,0-0.7,0.3-0.9,0.5c-0.2,0.4-0.3,1-0.3,1.4c-0.4,5.2-0.8,10.4-1.3,15.6c-0.2,1.8-1.4,2.9-3,2.8
		c-1.5-0.1-2.6-1.5-2.4-3.2c0.5-5.9,0.9-11.8,1.5-17.7c0.5-4.4,4.3-7.9,8.8-8.1c3.9-0.1,7.8-0.1,11.8,0c4.7,0.1,8.5,3.8,8.9,8.6
		c0.5,5.7,0.9,11.4,1.4,17c0.2,1.9-0.8,3.2-2.5,3.3c-1.5,0.1-2.8-1.1-3-2.8c-0.2-2.5-0.4-5-0.6-7.5c-0.2-2.8-0.4-5.6-0.7-8.4
		c-0.1-0.7-0.1-1.6-1.1-1.6c-0.9,0.1-0.6,1-0.6,1.6c0,14.7,0,29.4,0,44.1c0,2.4-1.7,4-3.9,3.6c-1.4-0.3-2.5-1.4-2.6-2.8
		c0-0.4,0-0.8,0-1.2c0-7.7,0-15.5,0-23.2C392.1,252.7,392.1,252.3,392.1,251.8z"/>
	<path class="st2" d="M398.4,211.8c0,4.1-3.3,7.5-7.3,7.5c-4.1,0-7.5-3.3-7.5-7.3c0-4.1,3.3-7.5,7.4-7.5
		C395,204.4,398.4,207.7,398.4,211.8z"/>
</g>
<g>
	<path class="st1" d="M444.4,251.8c-0.6,0-1,0-1.5,0c-0.2,0-0.4,0-0.7,0.1c0,0.4,0,0.8,0,1.1c0,7.9,0,15.8,0,23.7
		c0,2.3-1.8,3.9-3.9,3.5c-1.4-0.3-2.5-1.4-2.6-2.8c0-0.4,0-0.8,0-1.2c0-14.5,0-28.9,0-43.4c0-0.4,0-0.8-0.1-1.2
		c-0.1-0.3-0.4-0.7-0.6-0.7c-0.3,0-0.7,0.3-0.9,0.5c-0.2,0.4-0.3,1-0.3,1.4c-0.4,5.2-0.8,10.4-1.3,15.6c-0.2,1.8-1.4,2.9-3,2.8
		c-1.5-0.1-2.6-1.5-2.4-3.2c0.5-5.9,0.9-11.8,1.5-17.7c0.5-4.4,4.3-7.9,8.8-8.1c3.9-0.1,7.8-0.1,11.8,0c4.7,0.1,8.5,3.8,8.9,8.6
		c0.5,5.7,0.9,11.4,1.4,17c0.2,1.9-0.8,3.2-2.5,3.3c-1.5,0.1-2.8-1.1-3-2.8c-0.2-2.5-0.4-5-0.6-7.5c-0.2-2.8-0.4-5.6-0.7-8.4
		c-0.1-0.7-0.1-1.6-1.1-1.6c-0.9,0.1-0.6,1-0.6,1.6c0,14.7,0,29.4,0,44.1c0,2.4-1.7,4-3.9,3.6c-1.4-0.3-2.5-1.4-2.6-2.8
		c0-0.4,0-0.8,0-1.2c0-7.7,0-15.5,0-23.2C444.4,252.7,444.4,252.3,444.4,251.8z"/>
	<path class="st2" d="M450.7,211.8c0,4.1-3.3,7.5-7.3,7.5c-4.1,0-7.5-3.3-7.5-7.3c0-4.1,3.3-7.5,7.4-7.5
		C447.4,204.4,450.7,207.7,450.7,211.8z"/>
</g>
<g>
	<path class="st1" d="M496.8,251.8c-0.6,0-1,0-1.5,0c-0.2,0-0.4,0-0.7,0.1c0,0.4,0,0.8,0,1.1c0,7.9,0,15.8,0,23.7
		c0,2.3-1.8,3.9-3.9,3.5c-1.4-0.3-2.5-1.4-2.6-2.8c0-0.4,0-0.8,0-1.2c0-14.5,0-28.9,0-43.4c0-0.4,0-0.8-0.1-1.2
		c-0.1-0.3-0.4-0.7-0.6-0.7c-0.3,0-0.7,0.3-0.9,0.5c-0.2,0.4-0.3,1-0.3,1.4c-0.4,5.2-0.8,10.4-1.3,15.6c-0.2,1.8-1.4,2.9-3,2.8
		c-1.5-0.1-2.6-1.5-2.4-3.2c0.5-5.9,0.9-11.8,1.5-17.7c0.5-4.4,4.3-7.9,8.8-8.1c3.9-0.1,7.8-0.1,11.8,0c4.7,0.1,8.5,3.8,8.9,8.6
		c0.5,5.7,0.9,11.4,1.4,17c0.2,1.9-0.8,3.2-2.5,3.3c-1.5,0.1-2.8-1.1-3-2.8c-0.2-2.5-0.4-5-0.6-7.5c-0.2-2.8-0.4-5.6-0.7-8.4
		c-0.1-0.7-0.1-1.6-1.1-1.6c-0.9,0.1-0.6,1-0.6,1.6c0,14.7,0,29.4,0,44.1c0,2.4-1.7,4-3.9,3.6c-1.4-0.3-2.5-1.4-2.6-2.8
		c0-0.4,0-0.8,0-1.2c0-7.7,0-15.5,0-23.2C496.8,252.7,496.8,252.3,496.8,251.8z"/>
	<path class="st2" d="M503.1,211.8c0,4.1-3.3,7.5-7.3,7.5c-4.1,0-7.5-3.3-7.5-7.3c0-4.1,3.3-7.5,7.4-7.5
		C499.7,204.4,503.1,207.7,503.1,211.8z"/>
</g>
<g>
	<path class="st1" d="M25.5,347.6c-0.6,0-1,0-1.5,0c-0.2,0-0.4,0-0.7,0.1c0,0.4,0,0.8,0,1.1c0,7.9,0,15.8,0,23.7
		c0,2.3-1.8,3.9-3.9,3.5c-1.4-0.3-2.5-1.4-2.6-2.8c0-0.4,0-0.8,0-1.2c0-14.5,0-28.9,0-43.4c0-0.4,0-0.8-0.1-1.2
		c-0.1-0.3-0.4-0.7-0.6-0.7c-0.3,0-0.7,0.3-0.9,0.5c-0.2,0.4-0.3,1-0.3,1.4c-0.4,5.2-0.8,10.4-1.3,15.6c-0.2,1.8-1.4,2.9-3,2.8
		c-1.5-0.1-2.6-1.5-2.4-3.2c0.5-5.9,0.9-11.8,1.5-17.7c0.5-4.4,4.3-7.9,8.8-8.1c3.9-0.1,7.8-0.1,11.8,0c4.7,0.1,8.5,3.8,8.9,8.6
		c0.5,5.7,0.9,11.4,1.4,17c0.2,1.9-0.8,3.2-2.5,3.3c-1.5,0.1-2.8-1.1-3-2.8c-0.2-2.5-0.4-5-0.6-7.5c-0.2-2.8-0.4-5.6-0.7-8.4
		c-0.1-0.7-0.1-1.6-1.1-1.6c-0.9,0.1-0.6,1-0.6,1.6c0,14.7,0,29.4,0,44.1c0,2.4-1.7,4-3.9,3.6c-1.4-0.3-2.5-1.4-2.6-2.8
		c0-0.4,0-0.8,0-1.2c0-7.7,0-15.5,0-23.2C25.5,348.5,25.5,348.2,25.5,347.6z"/>
	<path class="st2" d="M31.9,307.7c0,4.1-3.3,7.5-7.3,7.5c-4.1,0-7.5-3.3-7.5-7.3c0-4.1,3.3-7.5,7.4-7.5
		C28.5,300.2,31.9,303.6,31.9,307.7z"/>
</g>
<g>
	<path class="st1" d="M77.9,347.6c-0.6,0-1,0-1.5,0c-0.2,0-0.4,0-0.7,0.1c0,0.4,0,0.8,0,1.1c0,7.9,0,15.8,0,23.7
		c0,2.3-1.8,3.9-3.9,3.5c-1.4-0.3-2.5-1.4-2.6-2.8c0-0.4,0-0.8,0-1.2c0-14.5,0-28.9,0-43.4c0-0.4,0-0.8-0.1-1.2
		c-0.1-0.3-0.4-0.7-0.6-0.7c-0.3,0-0.7,0.3-0.9,0.5c-0.2,0.4-0.3,1-0.3,1.4c-0.4,5.2-0.8,10.4-1.3,15.6c-0.2,1.8-1.4,2.9-3,2.8
		c-1.5-0.1-2.6-1.5-2.4-3.2c0.5-5.9,0.9-11.8,1.5-17.7c0.5-4.4,4.3-7.9,8.8-8.1c3.9-0.1,7.8-0.1,11.8,0c4.7,0.1,8.5,3.8,8.9,8.6
		c0.5,5.7,0.9,11.4,1.4,17c0.2,1.9-0.8,3.2-2.5,3.3c-1.5,0.1-2.8-1.1-3-2.8c-0.2-2.5-0.4-5-0.6-7.5c-0.2-2.8-0.4-5.6-0.7-8.4
		c-0.1-0.7-0.1-1.6-1.1-1.6c-0.9,0.1-0.6,1-0.6,1.6c0,14.7,0,29.4,0,44.1c0,2.4-1.7,4-3.9,3.6c-1.4-0.3-2.5-1.4-2.6-2.8
		c0-0.4,0-0.8,0-1.2c0-7.7,0-15.5,0-23.2C77.9,348.5,77.9,348.2,77.9,347.6z"/>
	<path class="st2" d="M84.2,307.7c0,4.1-3.3,7.5-7.3,7.5c-4.1,0-7.5-3.3-7.5-7.3c0-4.1,3.3-7.5,7.4-7.5
		C80.9,300.2,84.2,303.6,84.2,307.7z"/>
</g>
<g>
	<path class="st1" d="M130.3,347.6c-0.6,0-1,0-1.5,0c-0.2,0-0.4,0-0.7,0.1c0,0.4,0,0.8,0,1.1c0,7.9,0,15.8,0,23.7
		c0,2.3-1.8,3.9-3.9,3.5c-1.4-0.3-2.5-1.4-2.6-2.8c0-0.4,0-0.8,0-1.2c0-14.5,0-28.9,0-43.4c0-0.4,0-0.8-0.1-1.2
		c-0.1-0.3-0.4-0.7-0.6-0.7c-0.3,0-0.7,0.3-0.9,0.5c-0.2,0.4-0.3,1-0.3,1.4c-0.4,5.2-0.8,10.4-1.3,15.6c-0.2,1.8-1.4,2.9-3,2.8
		c-1.5-0.1-2.6-1.5-2.4-3.2c0.5-5.9,0.9-11.8,1.5-17.7c0.5-4.4,4.3-7.9,8.8-8.1c3.9-0.1,7.8-0.1,11.8,0c4.7,0.1,8.5,3.8,8.9,8.6
		c0.5,5.7,0.9,11.4,1.4,17c0.2,1.9-0.8,3.2-2.5,3.3c-1.5,0.1-2.8-1.1-3-2.8c-0.2-2.5-0.4-5-0.6-7.5c-0.2-2.8-0.4-5.6-0.7-8.4
		c-0.1-0.7-0.1-1.6-1.1-1.6c-0.9,0.1-0.6,1-0.6,1.6c0,14.7,0,29.4,0,44.1c0,2.4-1.7,4-3.9,3.6c-1.4-0.3-2.5-1.4-2.6-2.8
		c0-0.4,0-0.8,0-1.2c0-7.7,0-15.5,0-23.2C130.3,348.5,130.3,348.2,130.3,347.6z"/>
	<path class="st2" d="M136.6,307.7c0,4.1-3.3,7.5-7.3,7.5c-4.1,0-7.5-3.3-7.5-7.3c0-4.1,3.3-7.5,7.4-7.5
		C133.2,300.2,136.6,303.6,136.6,307.7z"/>
</g>
<g>
	<path class="st1" d="M182.6,347.6c-0.6,0-1,0-1.5,0c-0.2,0-0.4,0-0.7,0.1c0,0.4,0,0.8,0,1.1c0,7.9,0,15.8,0,23.7
		c0,2.3-1.8,3.9-3.9,3.5c-1.4-0.3-2.5-1.4-2.6-2.8c0-0.4,0-0.8,0-1.2c0-14.5,0-28.9,0-43.4c0-0.4,0-0.8-0.1-1.2
		c-0.1-0.3-0.4-0.7-0.6-0.7c-0.3,0-0.7,0.3-0.9,0.5c-0.2,0.4-0.3,1-0.3,1.4c-0.4,5.2-0.8,10.4-1.3,15.6c-0.2,1.8-1.4,2.9-3,2.8
		c-1.5-0.1-2.6-1.5-2.4-3.2c0.5-5.9,0.9-11.8,1.5-17.7c0.5-4.4,4.3-7.9,8.8-8.1c3.9-0.1,7.8-0.1,11.8,0c4.7,0.1,8.5,3.8,8.9,8.6
		c0.5,5.7,0.9,11.4,1.4,17c0.2,1.9-0.8,3.2-2.5,3.3c-1.5,0.1-2.8-1.1-3-2.8c-0.2-2.5-0.4-5-0.6-7.5c-0.2-2.8-0.4-5.6-0.7-8.4
		c-0.1-0.7-0.1-1.6-1.1-1.6c-0.9,0.1-0.6,1-0.6,1.6c0,14.7,0,29.4,0,44.1c0,2.4-1.7,4-3.9,3.6c-1.4-0.3-2.5-1.4-2.6-2.8
		c0-0.4,0-0.8,0-1.2c0-7.7,0-15.5,0-23.2C182.6,348.5,182.6,348.2,182.6,347.6z"/>
	<path class="st2" d="M188.9,307.7c0,4.1-3.3,7.5-7.3,7.5c-4.1,0-7.5-3.3-7.5-7.3c0-4.1,3.3-7.5,7.4-7.5
		C185.6,300.2,188.9,303.6,188.9,307.7z"/>
</g>
<g>
	<path class="st1" d="M235,347.6c-0.6,0-1,0-1.5,0c-0.2,0-0.4,0-0.7,0.1c0,0.4,0,0.8,0,1.1c0,7.9,0,15.8,0,23.7
		c0,2.3-1.8,3.9-3.9,3.5c-1.4-0.3-2.5-1.4-2.6-2.8c0-0.4,0-0.8,0-1.2c0-14.5,0-28.9,0-43.4c0-0.4,0-0.8-0.1-1.2
		c-0.1-0.3-0.4-0.7-0.6-0.7c-0.3,0-0.7,0.3-0.9,0.5c-0.2,0.4-0.3,1-0.3,1.4c-0.4,5.2-0.8,10.4-1.3,15.6c-0.2,1.8-1.4,2.9-3,2.8
		c-1.5-0.1-2.6-1.5-2.4-3.2c0.5-5.9,0.9-11.8,1.5-17.7c0.5-4.4,4.3-7.9,8.8-8.1c3.9-0.1,7.8-0.1,11.8,0c4.7,0.1,8.5,3.8,8.9,8.6
		c0.5,5.7,0.9,11.4,1.4,17c0.2,1.9-0.8,3.2-2.5,3.3c-1.5,0.1-2.8-1.1-3-2.8c-0.2-2.5-0.4-5-0.6-7.5c-0.2-2.8-0.4-5.6-0.7-8.4
		c-0.1-0.7-0.1-1.6-1.1-1.6c-0.9,0.1-0.6,1-0.6,1.6c0,14.7,0,29.4,0,44.1c0,2.4-1.7,4-3.9,3.6c-1.4-0.3-2.5-1.4-2.6-2.8
		c0-0.4,0-0.8,0-1.2c0-7.7,0-15.5,0-23.2C235,348.5,235,348.2,235,347.6z"/>
	<path class="st2" d="M241.3,307.7c0,4.1-3.3,7.5-7.3,7.5c-4.1,0-7.5-3.3-7.5-7.3c0-4.1,3.3-7.5,7.4-7.5
		C237.9,300.2,241.3,303.6,241.3,307.7z"/>
</g>
<g>
	<path class="st1" d="M287.3,347.6c-0.6,0-1,0-1.5,0c-0.2,0-0.4,0-0.7,0.1c0,0.4,0,0.8,0,1.1c0,7.9,0,15.8,0,23.7
		c0,2.3-1.8,3.9-3.9,3.5c-1.4-0.3-2.5-1.4-2.6-2.8c0-0.4,0-0.8,0-1.2c0-14.5,0-28.9,0-43.4c0-0.4,0-0.8-0.1-1.2
		c-0.1-0.3-0.4-0.7-0.6-0.7c-0.3,0-0.7,0.3-0.9,0.5c-0.2,0.4-0.3,1-0.3,1.4c-0.4,5.2-0.8,10.4-1.3,15.6c-0.2,1.8-1.4,2.9-3,2.8
		c-1.5-0.1-2.6-1.5-2.4-3.2c0.5-5.9,0.9-11.8,1.5-17.7c0.5-4.4,4.3-7.9,8.8-8.1c3.9-0.1,7.8-0.1,11.8,0c4.7,0.1,8.5,3.8,8.9,8.6
		c0.5,5.7,0.9,11.4,1.4,17c0.2,1.9-0.8,3.2-2.5,3.3c-1.5,0.1-2.8-1.1-3-2.8c-0.2-2.5-0.4-5-0.6-7.5c-0.2-2.8-0.4-5.6-0.7-8.4
		c-0.1-0.7-0.1-1.6-1.1-1.6c-0.9,0.1-0.6,1-0.6,1.6c0,14.7,0,29.4,0,44.1c0,2.4-1.7,4-3.9,3.6c-1.4-0.3-2.5-1.4-2.6-2.8
		c0-0.4,0-0.8,0-1.2c0-7.7,0-15.5,0-23.2C287.3,348.5,287.3,348.2,287.3,347.6z"/>
	<path class="st2" d="M293.7,307.7c0,4.1-3.3,7.5-7.3,7.5c-4.1,0-7.5-3.3-7.5-7.3c0-4.1,3.3-7.5,7.4-7.5
		C290.3,300.2,293.6,303.6,293.7,307.7z"/>
</g>
<g>
	<path class="st1" d="M339.7,347.6c-0.6,0-1,0-1.5,0c-0.2,0-0.4,0-0.7,0.1c0,0.4,0,0.8,0,1.1c0,7.9,0,15.8,0,23.7
		c0,2.3-1.8,3.9-3.9,3.5c-1.4-0.3-2.5-1.4-2.6-2.8c0-0.4,0-0.8,0-1.2c0-14.5,0-28.9,0-43.4c0-0.4,0-0.8-0.1-1.2
		c-0.1-0.3-0.4-0.7-0.6-0.7c-0.3,0-0.7,0.3-0.9,0.5c-0.2,0.4-0.3,1-0.3,1.4c-0.4,5.2-0.8,10.4-1.3,15.6c-0.2,1.8-1.4,2.9-3,2.8
		c-1.5-0.1-2.6-1.5-2.4-3.2c0.5-5.9,0.9-11.8,1.5-17.7c0.5-4.4,4.3-7.9,8.8-8.1c3.9-0.1,7.8-0.1,11.8,0c4.7,0.1,8.5,3.8,8.9,8.6
		c0.5,5.7,0.9,11.4,1.4,17c0.2,1.9-0.8,3.2-2.5,3.3c-1.5,0.1-2.8-1.1-3-2.8c-0.2-2.5-0.4-5-0.6-7.5c-0.2-2.8-0.4-5.6-0.7-8.4
		c-0.1-0.7-0.1-1.6-1.1-1.6c-0.9,0.1-0.6,1-0.6,1.6c0,14.7,0,29.4,0,44.1c0,2.4-1.7,4-3.9,3.6c-1.4-0.3-2.5-1.4-2.6-2.8
		c0-0.4,0-0.8,0-1.2c0-7.7,0-15.5,0-23.2C339.7,348.5,339.7,348.2,339.7,347.6z"/>
	<path class="st2" d="M346,307.7c0,4.1-3.3,7.5-7.3,7.5c-4.1,0-7.5-3.3-7.5-7.3c0-4.1,3.3-7.5,7.4-7.5
		C342.6,300.2,346,303.6,346,307.7z"/>
</g>
<g>
	<path class="st1" d="M392.1,347.6c-0.6,0-1,0-1.5,0c-0.2,0-0.4,0-0.7,0.1c0,0.4,0,0.8,0,1.1c0,7.9,0,15.8,0,23.7
		c0,2.3-1.8,3.9-3.9,3.5c-1.4-0.3-2.5-1.4-2.6-2.8c0-0.4,0-0.8,0-1.2c0-14.5,0-28.9,0-43.4c0-0.4,0-0.8-0.1-1.2
		c-0.1-0.3-0.4-0.7-0.6-0.7c-0.3,0-0.7,0.3-0.9,0.5c-0.2,0.4-0.3,1-0.3,1.4c-0.4,5.2-0.8,10.4-1.3,15.6c-0.2,1.8-1.4,2.9-3,2.8
		c-1.5-0.1-2.6-1.5-2.4-3.2c0.5-5.9,0.9-11.8,1.5-17.7c0.5-4.4,4.3-7.9,8.8-8.1c3.9-0.1,7.8-0.1,11.8,0c4.7,0.1,8.5,3.8,8.9,8.6
		c0.5,5.7,0.9,11.4,1.4,17c0.2,1.9-0.8,3.2-2.5,3.3c-1.5,0.1-2.8-1.1-3-2.8c-0.2-2.5-0.4-5-0.6-7.5c-0.2-2.8-0.4-5.6-0.7-8.4
		c-0.1-0.7-0.1-1.6-1.1-1.6c-0.9,0.1-0.6,1-0.6,1.6c0,14.7,0,29.4,0,44.1c0,2.4-1.7,4-3.9,3.6c-1.4-0.3-2.5-1.4-2.6-2.8
		c0-0.4,0-0.8,0-1.2c0-7.7,0-15.5,0-23.2C392.1,348.5,392.1,348.2,392.1,347.6z"/>
	<path class="st2" d="M398.4,307.7c0,4.1-3.3,7.5-7.3,7.5c-4.1,0-7.5-3.3-7.5-7.3c0-4.1,3.3-7.5,7.4-7.5
		C395,300.2,398.4,303.6,398.4,307.7z"/>
</g>
<g>
	<path class="st1" d="M444.4,347.6c-0.6,0-1,0-1.5,0c-0.2,0-0.4,0-0.7,0.1c0,0.4,0,0.8,0,1.1c0,7.9,0,15.8,0,23.7
		c0,2.3-1.8,3.9-3.9,3.5c-1.4-0.3-2.5-1.4-2.6-2.8c0-0.4,0-0.8,0-1.2c0-14.5,0-28.9,0-43.4c0-0.4,0-0.8-0.1-1.2
		c-0.1-0.3-0.4-0.7-0.6-0.7c-0.3,0-0.7,0.3-0.9,0.5c-0.2,0.4-0.3,1-0.3,1.4c-0.4,5.2-0.8,10.4-1.3,15.6c-0.2,1.8-1.4,2.9-3,2.8
		c-1.5-0.1-2.6-1.5-2.4-3.2c0.5-5.9,0.9-11.8,1.5-17.7c0.5-4.4,4.3-7.9,8.8-8.1c3.9-0.1,7.8-0.1,11.8,0c4.7,0.1,8.5,3.8,8.9,8.6
		c0.5,5.7,0.9,11.4,1.4,17c0.2,1.9-0.8,3.2-2.5,3.3c-1.5,0.1-2.8-1.1-3-2.8c-0.2-2.5-0.4-5-0.6-7.5c-0.2-2.8-0.4-5.6-0.7-8.4
		c-0.1-0.7-0.1-1.6-1.1-1.6c-0.9,0.1-0.6,1-0.6,1.6c0,14.7,0,29.4,0,44.1c0,2.4-1.7,4-3.9,3.6c-1.4-0.3-2.5-1.4-2.6-2.8
		c0-0.4,0-0.8,0-1.2c0-7.7,0-15.5,0-23.2C444.4,348.5,444.4,348.2,444.4,347.6z"/>
	<path class="st2" d="M450.7,307.7c0,4.1-3.3,7.5-7.3,7.5c-4.1,0-7.5-3.3-7.5-7.3c0-4.1,3.3-7.5,7.4-7.5
		C447.4,300.2,450.7,303.6,450.7,307.7z"/>
</g>
<g>
	<path class="st1" d="M496.8,347.6c-0.6,0-1,0-1.5,0c-0.2,0-0.4,0-0.7,0.1c0,0.4,0,0.8,0,1.1c0,7.9,0,15.8,0,23.7
		c0,2.3-1.8,3.9-3.9,3.5c-1.4-0.3-2.5-1.4-2.6-2.8c0-0.4,0-0.8,0-1.2c0-14.5,0-28.9,0-43.4c0-0.4,0-0.8-0.1-1.2
		c-0.1-0.3-0.4-0.7-0.6-0.7c-0.3,0-0.7,0.3-0.9,0.5c-0.2,0.4-0.3,1-0.3,1.4c-0.4,5.2-0.8,10.4-1.3,15.6c-0.2,1.8-1.4,2.9-3,2.8
		c-1.5-0.1-2.6-1.5-2.4-3.2c0.5-5.9,0.9-11.8,1.5-17.7c0.5-4.4,4.3-7.9,8.8-8.1c3.9-0.1,7.8-0.1,11.8,0c4.7,0.1,8.5,3.8,8.9,8.6
		c0.5,5.7,0.9,11.4,1.4,17c0.2,1.9-0.8,3.2-2.5,3.3c-1.5,0.1-2.8-1.1-3-2.8c-0.2-2.5-0.4-5-0.6-7.5c-0.2-2.8-0.4-5.6-0.7-8.4
		c-0.1-0.7-0.1-1.6-1.1-1.6c-0.9,0.1-0.6,1-0.6,1.6c0,14.7,0,29.4,0,44.1c0,2.4-1.7,4-3.9,3.6c-1.4-0.3-2.5-1.4-2.6-2.8
		c0-0.4,0-0.8,0-1.2c0-7.7,0-15.5,0-23.2C496.8,348.5,496.8,348.2,496.8,347.6z"/>
	<path class="st2" d="M503.1,307.7c0,4.1-3.3,7.5-7.3,7.5c-4.1,0-7.5-3.3-7.5-7.3c0-4.1,3.3-7.5,7.4-7.5
		C499.7,300.2,503.1,303.6,503.1,307.7z"/>
</g>
<g>
	<path class="st0" d="M548.9,59.8c0,0.5,0,0.9,0,1.3c0,7.8,0,15.6,0,23.4c0,0.4,0,0.8,0,1.2c0.2,1.4,1.2,2.6,2.6,2.8
		c2.2,0.4,4-1.2,4-3.6c0-14.8,0-29.7,0-44.5c0-0.6-0.3-1.5,0.6-1.6c0.9-0.1,1,0.9,1.1,1.6c0.3,2.8,0.5,5.6,0.7,8.5
		c0.2,2.5,0.4,5.1,0.6,7.6c0.2,1.8,1.5,3,3,2.8c1.7-0.1,2.6-1.5,2.5-3.3c-0.5-5.7-0.9-11.5-1.4-17.2c-0.4-4.8-4.2-8.5-9-8.6
		c-4-0.1-7.9-0.1-11.9,0c-4.5,0.1-8.4,3.7-8.9,8.1c-0.6,5.9-1.1,11.9-1.5,17.8c-0.1,1.8,0.9,3.1,2.5,3.2c1.6,0.1,2.9-1,3-2.8
		c0.4-5.2,0.9-10.5,1.3-15.7c0-0.5,0.1-1,0.3-1.5c0.1-0.3,0.6-0.5,0.9-0.5c0.2,0,0.5,0.4,0.6,0.7c0.1,0.4,0.1,0.8,0.1,1.2
		c0,14.6,0,29.2,0,43.8c0,0.4,0,0.8,0,1.2c0.2,1.4,1.2,2.6,2.6,2.8c2.2,0.4,4-1.2,4-3.5c0-8,0-16,0-24c0-0.4,0-0.7,0-1.2
		c0.3,0,0.5-0.1,0.7-0.1C547.9,59.8,548.3,59.8,548.9,59.8z M555.3,20.2c0-4.1-3.4-7.5-7.5-7.5c-4.2,0-7.5,3.4-7.5,7.6
		c0,4.1,3.4,7.4,7.6,7.4C552,27.7,555.3,24.3,555.3,20.2z"/>
</g>
<g>
	<path class="st0" d="M601.6,59.8c0,0.5,0,0.9,0,1.3c0,7.8,0,15.6,0,23.4c0,0.4,0,0.8,0,1.2c0.2,1.4,1.2,2.6,2.6,2.8
		c2.2,0.4,4-1.2,4-3.6c0-14.8,0-29.7,0-44.5c0-0.6-0.3-1.5,0.6-1.6c0.9-0.1,1,0.9,1.1,1.6c0.3,2.8,0.5,5.6,0.7,8.5
		c0.2,2.5,0.4,5.1,0.6,7.6c0.2,1.8,1.5,3,3,2.8c1.7-0.1,2.6-1.5,2.5-3.3c-0.5-5.7-0.9-11.5-1.4-17.2c-0.4-4.8-4.2-8.5-9-8.6
		c-4-0.1-7.9-0.1-11.9,0c-4.5,0.1-8.4,3.7-8.9,8.1c-0.6,5.9-1.1,11.9-1.5,17.8c-0.1,1.8,0.9,3.1,2.5,3.2c1.6,0.1,2.9-1,3-2.8
		c0.4-5.2,0.9-10.5,1.3-15.7c0-0.5,0.1-1,0.3-1.5c0.1-0.3,0.6-0.5,0.9-0.5c0.2,0,0.5,0.4,0.6,0.7c0.1,0.4,0.1,0.8,0.1,1.2
		c0,14.6,0,29.2,0,43.8c0,0.4,0,0.8,0,1.2c0.2,1.4,1.2,2.6,2.6,2.8c2.2,0.4,4-1.2,4-3.5c0-8,0-16,0-24c0-0.4,0-0.7,0-1.2
		c0.3,0,0.5-0.1,0.7-0.1C600.5,59.8,601,59.8,601.6,59.8z M608,20.2c0-4.1-3.4-7.5-7.5-7.5c-4.2,0-7.5,3.4-7.5,7.6
		c0,4.1,3.4,7.4,7.6,7.4C604.7,27.7,608,24.3,608,20.2z"/>
</g>
<g>
	<path class="st0" d="M654.2,59.8c0,0.5,0,0.9,0,1.3c0,7.8,0,15.6,0,23.4c0,0.4,0,0.8,0,1.2c0.2,1.4,1.2,2.6,2.6,2.8
		c2.2,0.4,4-1.2,4-3.6c0-14.8,0-29.7,0-44.5c0-0.6-0.3-1.5,0.6-1.6c0.9-0.1,1,0.9,1.1,1.6c0.3,2.8,0.5,5.6,0.7,8.5
		c0.2,2.5,0.4,5.1,0.6,7.6c0.2,1.8,1.5,3,3,2.8c1.7-0.1,2.6-1.5,2.5-3.3c-0.5-5.7-0.9-11.5-1.4-17.2c-0.4-4.8-4.2-8.5-9-8.6
		c-4-0.1-7.9-0.1-11.9,0c-4.5,0.1-8.4,3.7-8.9,8.1c-0.6,5.9-1.1,11.9-1.5,17.8c-0.1,1.8,0.9,3.1,2.5,3.2c1.6,0.1,2.9-1,3-2.8
		c0.4-5.2,0.9-10.5,1.3-15.7c0-0.5,0.1-1,0.3-1.5c0.1-0.3,0.6-0.5,0.9-0.5c0.2,0,0.5,0.4,0.6,0.7c0.1,0.4,0.1,0.8,0.1,1.2
		c0,14.6,0,29.2,0,43.8c0,0.4,0,0.8,0,1.2c0.2,1.4,1.2,2.6,2.6,2.8c2.2,0.4,4-1.2,4-3.5c0-8,0-16,0-24c0-0.4,0-0.7,0-1.2
		c0.3,0,0.5-0.1,0.7-0.1C653.2,59.8,653.6,59.8,654.2,59.8z M660.6,20.2c0-4.1-3.4-7.5-7.5-7.5c-4.2,0-7.5,3.4-7.5,7.6
		c0,4.1,3.4,7.4,7.6,7.4C657.3,27.7,660.6,24.3,660.6,20.2z"/>
</g>
<g>
	<path class="st0" d="M706.9,59.8c0,0.5,0,0.9,0,1.3c0,7.8,0,15.6,0,23.4c0,0.4,0,0.8,0,1.2c0.2,1.4,1.2,2.6,2.6,2.8
		c2.2,0.4,4-1.2,4-3.6c0-14.8,0-29.7,0-44.5c0-0.6-0.3-1.5,0.6-1.6c0.9-0.1,1,0.9,1.1,1.6c0.3,2.8,0.5,5.6,0.7,8.5
		c0.2,2.5,0.4,5.1,0.6,7.6c0.2,1.8,1.5,3,3,2.8c1.7-0.1,2.6-1.5,2.5-3.3c-0.5-5.7-0.9-11.5-1.4-17.2c-0.4-4.8-4.2-8.5-9-8.6
		c-4-0.1-7.9-0.1-11.9,0c-4.5,0.1-8.4,3.7-8.9,8.1c-0.6,5.9-1.1,11.9-1.5,17.8c-0.1,1.8,0.9,3.1,2.5,3.2c1.6,0.1,2.9-1,3-2.8
		c0.4-5.2,0.9-10.5,1.3-15.7c0-0.5,0.1-1,0.3-1.5c0.1-0.3,0.6-0.5,0.9-0.5c0.2,0,0.5,0.4,0.6,0.7c0.1,0.4,0.1,0.8,0.1,1.2
		c0,14.6,0,29.2,0,43.8c0,0.4,0,0.8,0,1.2c0.2,1.4,1.2,2.6,2.6,2.8c2.2,0.4,4-1.2,4-3.5c0-8,0-16,0-24c0-0.4,0-0.7,0-1.2
		c0.3,0,0.5-0.1,0.7-0.1C705.8,59.8,706.3,59.8,706.9,59.8z M713.3,20.2c0-4.1-3.4-7.5-7.5-7.5c-4.2,0-7.5,3.4-7.5,7.6
		c0,4.1,3.4,7.4,7.6,7.4C710,27.7,713.3,24.3,713.3,20.2z"/>
</g>
<g>
	<path class="st0" d="M759.5,59.8c0,0.5,0,0.9,0,1.3c0,7.8,0,15.6,0,23.4c0,0.4,0,0.8,0,1.2c0.2,1.4,1.2,2.6,2.6,2.8
		c2.2,0.4,4-1.2,4-3.6c0-14.8,0-29.7,0-44.5c0-0.6-0.3-1.5,0.6-1.6c0.9-0.1,1,0.9,1.1,1.6c0.3,2.8,0.5,5.6,0.7,8.5
		c0.2,2.5,0.4,5.1,0.6,7.6c0.2,1.8,1.5,3,3,2.8c1.7-0.1,2.6-1.5,2.5-3.3c-0.5-5.7-0.9-11.5-1.4-17.2c-0.4-4.8-4.2-8.5-9-8.6
		c-4-0.1-7.9-0.1-11.9,0c-4.5,0.1-8.4,3.7-8.9,8.1c-0.6,5.9-1.1,11.9-1.5,17.8c-0.1,1.8,0.9,3.1,2.5,3.2c1.6,0.1,2.9-1,3-2.8
		c0.4-5.2,0.9-10.5,1.3-15.7c0-0.5,0.1-1,0.3-1.5c0.1-0.3,0.6-0.5,0.9-0.5c0.2,0,0.5,0.4,0.6,0.7c0.1,0.4,0.1,0.8,0.1,1.2
		c0,14.6,0,29.2,0,43.8c0,0.4,0,0.8,0,1.2c0.2,1.4,1.2,2.6,2.6,2.8c2.2,0.4,4-1.2,4-3.5c0-8,0-16,0-24c0-0.4,0-0.7,0-1.2
		c0.3,0,0.5-0.1,0.7-0.1C758.5,59.8,758.9,59.8,759.5,59.8z M765.9,20.2c0-4.1-3.4-7.5-7.5-7.5c-4.2,0-7.5,3.4-7.5,7.6
		c0,4.1,3.4,7.4,7.6,7.4C762.6,27.7,765.9,24.3,765.9,20.2z"/>
</g>
<g>
	<path class="st0" d="M812.2,59.8c0,0.5,0,0.9,0,1.3c0,7.8,0,15.6,0,23.4c0,0.4,0,0.8,0,1.2c0.2,1.4,1.2,2.6,2.6,2.8
		c2.2,0.4,4-1.2,4-3.6c0-14.8,0-29.7,0-44.5c0-0.6-0.3-1.5,0.6-1.6c0.9-0.1,1,0.9,1.1,1.6c0.3,2.8,0.5,5.6,0.7,8.5
		c0.2,2.5,0.4,5.1,0.6,7.6c0.2,1.8,1.5,3,3,2.8c1.7-0.1,2.6-1.5,2.5-3.3c-0.5-5.7-0.9-11.5-1.4-17.2c-0.4-4.8-4.2-8.5-9-8.6
		c-4-0.1-7.9-0.1-11.9,0c-4.5,0.1-8.4,3.7-8.9,8.1c-0.6,5.9-1.1,11.9-1.5,17.8c-0.1,1.8,0.9,3.1,2.5,3.2c1.6,0.1,2.9-1,3-2.8
		c0.4-5.2,0.9-10.5,1.3-15.7c0-0.5,0.1-1,0.3-1.5c0.1-0.3,0.6-0.5,0.9-0.5c0.2,0,0.5,0.4,0.6,0.7c0.1,0.4,0.1,0.8,0.1,1.2
		c0,14.6,0,29.2,0,43.8c0,0.4,0,0.8,0,1.2c0.2,1.4,1.2,2.6,2.6,2.8c2.2,0.4,4-1.2,4-3.5c0-8,0-16,0-24c0-0.4,0-0.7,0-1.2
		c0.3,0,0.5-0.1,0.7-0.1C811.1,59.8,811.6,59.8,812.2,59.8z M818.6,20.2c0-4.1-3.4-7.5-7.5-7.5c-4.2,0-7.5,3.4-7.5,7.6
		c0,4.1,3.4,7.4,7.6,7.4C815.3,27.7,818.6,24.3,818.6,20.2z"/>
</g>
<g>
	<path class="st0" d="M864.8,59.8c0,0.5,0,0.9,0,1.3c0,7.8,0,15.6,0,23.4c0,0.4,0,0.8,0,1.2c0.2,1.4,1.2,2.6,2.6,2.8
		c2.2,0.4,4-1.2,4-3.6c0-14.8,0-29.7,0-44.5c0-0.6-0.3-1.5,0.6-1.6c0.9-0.1,1,0.9,1.1,1.6c0.3,2.8,0.5,5.6,0.7,8.5
		c0.2,2.5,0.4,5.1,0.6,7.6c0.2,1.8,1.5,3,3,2.8c1.7-0.1,2.6-1.5,2.5-3.3c-0.5-5.7-0.9-11.5-1.4-17.2c-0.4-4.8-4.2-8.5-9-8.6
		c-4-0.1-7.9-0.1-11.9,0c-4.5,0.1-8.4,3.7-8.9,8.1c-0.6,5.9-1.1,11.9-1.5,17.8c-0.1,1.8,0.9,3.1,2.5,3.2c1.6,0.1,2.9-1,3-2.8
		c0.4-5.2,0.9-10.5,1.3-15.7c0-0.5,0.1-1,0.3-1.5c0.1-0.3,0.6-0.5,0.9-0.5c0.2,0,0.5,0.4,0.6,0.7c0.1,0.4,0.1,0.8,0.1,1.2
		c0,14.6,0,29.2,0,43.8c0,0.4,0,0.8,0,1.2c0.2,1.4,1.2,2.6,2.6,2.8c2.2,0.4,4-1.2,4-3.5c0-8,0-16,0-24c0-0.4,0-0.7,0-1.2
		c0.3,0,0.5-0.1,0.7-0.1C863.8,59.8,864.2,59.8,864.8,59.8z M871.2,20.2c0-4.1-3.4-7.5-7.5-7.5c-4.2,0-7.5,3.4-7.5,7.6
		c0,4.1,3.4,7.4,7.6,7.4C867.9,27.7,871.2,24.3,871.2,20.2z"/>
</g>
<g>
	<path class="st1" d="M549.4,155.9c-0.6,0-1,0-1.5,0c-0.2,0-0.4,0-0.7,0.1c0,0.4,0,0.8,0,1.1c0,7.9,0,15.8,0,23.7
		c0,2.3-1.8,3.9-3.9,3.5c-1.4-0.3-2.5-1.4-2.6-2.8c0-0.4,0-0.8,0-1.2c0-14.5,0-28.9,0-43.4c0-0.4,0-0.8-0.1-1.2
		c-0.1-0.3-0.4-0.7-0.6-0.7c-0.3,0-0.7,0.3-0.9,0.5c-0.2,0.4-0.3,1-0.3,1.4c-0.4,5.2-0.8,10.4-1.3,15.6c-0.2,1.8-1.4,2.9-3,2.8
		c-1.5-0.1-2.6-1.5-2.4-3.2c0.5-5.9,0.9-11.8,1.5-17.7c0.5-4.4,4.3-7.9,8.8-8.1c3.9-0.1,7.8-0.1,11.8,0c4.7,0.1,8.5,3.8,8.9,8.6
		c0.5,5.7,0.9,11.4,1.4,17c0.2,1.9-0.8,3.2-2.5,3.3c-1.5,0.1-2.8-1.1-3-2.8c-0.2-2.5-0.4-5-0.6-7.5c-0.2-2.8-0.4-5.6-0.7-8.4
		c-0.1-0.7-0.1-1.6-1.1-1.6c-0.9,0.1-0.6,1-0.6,1.6c0,14.7,0,29.4,0,44.1c0,2.4-1.7,4-3.9,3.6c-1.4-0.3-2.5-1.4-2.6-2.8
		c0-0.4,0-0.8,0-1.2c0-7.7,0-15.5,0-23.2C549.4,156.8,549.4,156.4,549.4,155.9z"/>
	<path class="st2" d="M555.7,116c0,4.1-3.3,7.5-7.3,7.5c-4.1,0-7.5-3.3-7.5-7.3c0-4.1,3.3-7.5,7.4-7.5
		C552.3,108.5,555.7,111.9,555.7,116z"/>
</g>
<g>
	<path class="st1" d="M601.7,155.9c-0.6,0-1,0-1.5,0c-0.2,0-0.4,0-0.7,0.1c0,0.4,0,0.8,0,1.1c0,7.9,0,15.8,0,23.7
		c0,2.3-1.8,3.9-3.9,3.5c-1.4-0.3-2.5-1.4-2.6-2.8c0-0.4,0-0.8,0-1.2c0-14.5,0-28.9,0-43.4c0-0.4,0-0.8-0.1-1.2
		c-0.1-0.3-0.4-0.7-0.6-0.7c-0.3,0-0.7,0.3-0.9,0.5c-0.2,0.4-0.3,1-0.3,1.4c-0.4,5.2-0.8,10.4-1.3,15.6c-0.2,1.8-1.4,2.9-3,2.8
		c-1.5-0.1-2.6-1.5-2.4-3.2c0.5-5.9,0.9-11.8,1.5-17.7c0.5-4.4,4.3-7.9,8.8-8.1c3.9-0.1,7.8-0.1,11.8,0c4.7,0.1,8.5,3.8,8.9,8.6
		c0.5,5.7,0.9,11.4,1.4,17c0.2,1.9-0.8,3.2-2.5,3.3c-1.5,0.1-2.8-1.1-3-2.8c-0.2-2.5-0.4-5-0.6-7.5c-0.2-2.8-0.4-5.6-0.7-8.4
		c-0.1-0.7-0.1-1.6-1.1-1.6c-0.9,0.1-0.6,1-0.6,1.6c0,14.7,0,29.4,0,44.1c0,2.4-1.7,4-3.9,3.6c-1.4-0.3-2.5-1.4-2.6-2.8
		c0-0.4,0-0.8,0-1.2c0-7.7,0-15.5,0-23.2C601.7,156.8,601.7,156.4,601.7,155.9z"/>
	<path class="st2" d="M608,116c0,4.1-3.3,7.5-7.3,7.5c-4.1,0-7.5-3.3-7.5-7.3c0-4.1,3.3-7.5,7.4-7.5C604.7,108.5,608,111.9,608,116z
		"/>
</g>
<g>
	<path class="st1" d="M654.1,155.9c-0.6,0-1,0-1.5,0c-0.2,0-0.4,0-0.7,0.1c0,0.4,0,0.8,0,1.1c0,7.9,0,15.8,0,23.7
		c0,2.3-1.8,3.9-3.9,3.5c-1.4-0.3-2.5-1.4-2.6-2.8c0-0.4,0-0.8,0-1.2c0-14.5,0-28.9,0-43.4c0-0.4,0-0.8-0.1-1.2
		c-0.1-0.3-0.4-0.7-0.6-0.7c-0.3,0-0.7,0.3-0.9,0.5c-0.2,0.4-0.3,1-0.3,1.4c-0.4,5.2-0.8,10.4-1.3,15.6c-0.2,1.8-1.4,2.9-3,2.8
		c-1.5-0.1-2.6-1.5-2.4-3.2c0.5-5.9,0.9-11.8,1.5-17.7c0.5-4.4,4.3-7.9,8.8-8.1c3.9-0.1,7.8-0.1,11.8,0c4.7,0.1,8.5,3.8,8.9,8.6
		c0.5,5.7,0.9,11.4,1.4,17c0.2,1.9-0.8,3.2-2.5,3.3c-1.5,0.1-2.8-1.1-3-2.8c-0.2-2.5-0.4-5-0.6-7.5c-0.2-2.8-0.4-5.6-0.7-8.4
		c-0.1-0.7-0.1-1.6-1.1-1.6c-0.9,0.1-0.6,1-0.6,1.6c0,14.7,0,29.4,0,44.1c0,2.4-1.7,4-3.9,3.6c-1.4-0.3-2.5-1.4-2.6-2.8
		c0-0.4,0-0.8,0-1.2c0-7.7,0-15.5,0-23.2C654.1,156.8,654.1,156.4,654.1,155.9z"/>
	<path class="st2" d="M660.4,116c0,4.1-3.3,7.5-7.3,7.5c-4.1,0-7.5-3.3-7.5-7.3c0-4.1,3.3-7.5,7.4-7.5
		C657,108.5,660.4,111.9,660.4,116z"/>
</g>
<g>
	<path class="st1" d="M549.1,251.8c-0.6,0-1,0-1.5,0c-0.2,0-0.4,0-0.7,0.1c0,0.4,0,0.8,0,1.1c0,7.9,0,15.8,0,23.7
		c0,2.3-1.8,3.9-3.9,3.5c-1.4-0.3-2.5-1.4-2.6-2.8c0-0.4,0-0.8,0-1.2c0-14.5,0-28.9,0-43.4c0-0.4,0-0.8-0.1-1.2
		c-0.1-0.3-0.4-0.7-0.6-0.7c-0.3,0-0.7,0.3-0.9,0.5c-0.2,0.4-0.3,1-0.3,1.4c-0.4,5.2-0.8,10.4-1.3,15.6c-0.2,1.8-1.4,2.9-3,2.8
		c-1.5-0.1-2.6-1.5-2.4-3.2c0.5-5.9,0.9-11.8,1.5-17.7c0.5-4.4,4.3-7.9,8.8-8.1c3.9-0.1,7.8-0.1,11.8,0c4.7,0.1,8.5,3.8,8.9,8.6
		c0.5,5.7,0.9,11.4,1.4,17c0.2,1.9-0.8,3.2-2.5,3.3c-1.5,0.1-2.8-1.1-3-2.8c-0.2-2.5-0.4-5-0.6-7.5c-0.2-2.8-0.4-5.6-0.7-8.4
		c-0.1-0.7-0.1-1.6-1.1-1.6c-0.9,0.1-0.6,1-0.6,1.6c0,14.7,0,29.4,0,44.1c0,2.4-1.7,4-3.9,3.6c-1.4-0.3-2.5-1.4-2.6-2.8
		c0-0.4,0-0.8,0-1.2c0-7.7,0-15.5,0-23.2C549.1,252.7,549.1,252.3,549.1,251.8z"/>
	<path class="st2" d="M555.4,211.8c0,4.1-3.3,7.5-7.3,7.5c-4.1,0-7.5-3.3-7.5-7.3c0-4.1,3.3-7.5,7.4-7.5
		C552,204.4,555.4,207.7,555.4,211.8z"/>
</g>
<g>
	<path class="st1" d="M601.4,251.8c-0.6,0-1,0-1.5,0c-0.2,0-0.4,0-0.7,0.1c0,0.4,0,0.8,0,1.1c0,7.9,0,15.8,0,23.7
		c0,2.3-1.8,3.9-3.9,3.5c-1.4-0.3-2.5-1.4-2.6-2.8c0-0.4,0-0.8,0-1.2c0-14.5,0-28.9,0-43.4c0-0.4,0-0.8-0.1-1.2
		c-0.1-0.3-0.4-0.7-0.6-0.7c-0.3,0-0.7,0.3-0.9,0.5c-0.2,0.4-0.3,1-0.3,1.4c-0.4,5.2-0.8,10.4-1.3,15.6c-0.2,1.8-1.4,2.9-3,2.8
		c-1.5-0.1-2.6-1.5-2.4-3.2c0.5-5.9,0.9-11.8,1.5-17.7c0.5-4.4,4.3-7.9,8.8-8.1c3.9-0.1,7.8-0.1,11.8,0c4.7,0.1,8.5,3.8,8.9,8.6
		c0.5,5.7,0.9,11.4,1.4,17c0.2,1.9-0.8,3.2-2.5,3.3c-1.5,0.1-2.8-1.1-3-2.8c-0.2-2.5-0.4-5-0.6-7.5c-0.2-2.8-0.4-5.6-0.7-8.4
		c-0.1-0.7-0.1-1.6-1.1-1.6c-0.9,0.1-0.6,1-0.6,1.6c0,14.7,0,29.4,0,44.1c0,2.4-1.7,4-3.9,3.6c-1.4-0.3-2.5-1.4-2.6-2.8
		c0-0.4,0-0.8,0-1.2c0-7.7,0-15.5,0-23.2C601.4,252.7,601.4,252.3,601.4,251.8z"/>
	<path class="st2" d="M607.8,211.8c0,4.1-3.3,7.5-7.3,7.5c-4.1,0-7.5-3.3-7.5-7.3c0-4.1,3.3-7.5,7.4-7.5
		C604.4,204.4,607.7,207.7,607.8,211.8z"/>
</g>
<g>
	<path class="st1" d="M653.8,251.8c-0.6,0-1,0-1.5,0c-0.2,0-0.4,0-0.7,0.1c0,0.4,0,0.8,0,1.1c0,7.9,0,15.8,0,23.7
		c0,2.3-1.8,3.9-3.9,3.5c-1.4-0.3-2.5-1.4-2.6-2.8c0-0.4,0-0.8,0-1.2c0-14.5,0-28.9,0-43.4c0-0.4,0-0.8-0.1-1.2
		c-0.1-0.3-0.4-0.7-0.6-0.7c-0.3,0-0.7,0.3-0.9,0.5c-0.2,0.4-0.3,1-0.3,1.4c-0.4,5.2-0.8,10.4-1.3,15.6c-0.2,1.8-1.4,2.9-3,2.8
		c-1.5-0.1-2.6-1.5-2.4-3.2c0.5-5.9,0.9-11.8,1.5-17.7c0.5-4.4,4.3-7.9,8.8-8.1c3.9-0.1,7.8-0.1,11.8,0c4.7,0.1,8.5,3.8,8.9,8.6
		c0.5,5.7,0.9,11.4,1.4,17c0.2,1.9-0.8,3.2-2.5,3.3c-1.5,0.1-2.8-1.1-3-2.8c-0.2-2.5-0.4-5-0.6-7.5c-0.2-2.8-0.4-5.6-0.7-8.4
		c-0.1-0.7-0.1-1.6-1.1-1.6c-0.9,0.1-0.6,1-0.6,1.6c0,14.7,0,29.4,0,44.1c0,2.4-1.7,4-3.9,3.6c-1.4-0.3-2.5-1.4-2.6-2.8
		c0-0.4,0-0.8,0-1.2c0-7.7,0-15.5,0-23.2C653.8,252.7,653.8,252.3,653.8,251.8z"/>
	<path class="st2" d="M660.1,211.8c0,4.1-3.3,7.5-7.3,7.5c-4.1,0-7.5-3.3-7.5-7.3c0-4.1,3.3-7.5,7.4-7.5
		C656.7,204.4,660.1,207.7,660.1,211.8z"/>
</g>
<g>
	<path class="st1" d="M549.1,347.6c-0.6,0-1,0-1.5,0c-0.2,0-0.4,0-0.7,0.1c0,0.4,0,0.8,0,1.1c0,7.9,0,15.8,0,23.7
		c0,2.3-1.8,3.9-3.9,3.5c-1.4-0.3-2.5-1.4-2.6-2.8c0-0.4,0-0.8,0-1.2c0-14.5,0-28.9,0-43.4c0-0.4,0-0.8-0.1-1.2
		c-0.1-0.3-0.4-0.7-0.6-0.7c-0.3,0-0.7,0.3-0.9,0.5c-0.2,0.4-0.3,1-0.3,1.4c-0.4,5.2-0.8,10.4-1.3,15.6c-0.2,1.8-1.4,2.9-3,2.8
		c-1.5-0.1-2.6-1.5-2.4-3.2c0.5-5.9,0.9-11.8,1.5-17.7c0.5-4.4,4.3-7.9,8.8-8.1c3.9-0.1,7.8-0.1,11.8,0c4.7,0.1,8.5,3.8,8.9,8.6
		c0.5,5.7,0.9,11.4,1.4,17c0.2,1.9-0.8,3.2-2.5,3.3c-1.5,0.1-2.8-1.1-3-2.8c-0.2-2.5-0.4-5-0.6-7.5c-0.2-2.8-0.4-5.6-0.7-8.4
		c-0.1-0.7-0.1-1.6-1.1-1.6c-0.9,0.1-0.6,1-0.6,1.6c0,14.7,0,29.4,0,44.1c0,2.4-1.7,4-3.9,3.6c-1.4-0.3-2.5-1.4-2.6-2.8
		c0-0.4,0-0.8,0-1.2c0-7.7,0-15.5,0-23.2C549.1,348.5,549.1,348.2,549.1,347.6z"/>
	<path class="st2" d="M555.4,307.7c0,4.1-3.3,7.5-7.3,7.5c-4.1,0-7.5-3.3-7.5-7.3c0-4.1,3.3-7.5,7.4-7.5
		C552,300.2,555.4,303.6,555.4,307.7z"/>
</g>
<g>
	<path class="st1" d="M601.4,347.6c-0.6,0-1,0-1.5,0c-0.2,0-0.4,0-0.7,0.1c0,0.4,0,0.8,0,1.1c0,7.9,0,15.8,0,23.7
		c0,2.3-1.8,3.9-3.9,3.5c-1.4-0.3-2.5-1.4-2.6-2.8c0-0.4,0-0.8,0-1.2c0-14.5,0-28.9,0-43.4c0-0.4,0-0.8-0.1-1.2
		c-0.1-0.3-0.4-0.7-0.6-0.7c-0.3,0-0.7,0.3-0.9,0.5c-0.2,0.4-0.3,1-0.3,1.4c-0.4,5.2-0.8,10.4-1.3,15.6c-0.2,1.8-1.4,2.9-3,2.8
		c-1.5-0.1-2.6-1.5-2.4-3.2c0.5-5.9,0.9-11.8,1.5-17.7c0.5-4.4,4.3-7.9,8.8-8.1c3.9-0.1,7.8-0.1,11.8,0c4.7,0.1,8.5,3.8,8.9,8.6
		c0.5,5.7,0.9,11.4,1.4,17c0.2,1.9-0.8,3.2-2.5,3.3c-1.5,0.1-2.8-1.1-3-2.8c-0.2-2.5-0.4-5-0.6-7.5c-0.2-2.8-0.4-5.6-0.7-8.4
		c-0.1-0.7-0.1-1.6-1.1-1.6c-0.9,0.1-0.6,1-0.6,1.6c0,14.7,0,29.4,0,44.1c0,2.4-1.7,4-3.9,3.6c-1.4-0.3-2.5-1.4-2.6-2.8
		c0-0.4,0-0.8,0-1.2c0-7.7,0-15.5,0-23.2C601.4,348.5,601.4,348.2,601.4,347.6z"/>
	<path class="st2" d="M607.8,307.7c0,4.1-3.3,7.5-7.3,7.5c-4.1,0-7.5-3.3-7.5-7.3c0-4.1,3.3-7.5,7.4-7.5
		C604.4,300.2,607.7,303.6,607.8,307.7z"/>
</g>
<g>
	<path class="st1" d="M653.8,347.6c-0.6,0-1,0-1.5,0c-0.2,0-0.4,0-0.7,0.1c0,0.4,0,0.8,0,1.1c0,7.9,0,15.8,0,23.7
		c0,2.3-1.8,3.9-3.9,3.5c-1.4-0.3-2.5-1.4-2.6-2.8c0-0.4,0-0.8,0-1.2c0-14.5,0-28.9,0-43.4c0-0.4,0-0.8-0.1-1.2
		c-0.1-0.3-0.4-0.7-0.6-0.7c-0.3,0-0.7,0.3-0.9,0.5c-0.2,0.4-0.3,1-0.3,1.4c-0.4,5.2-0.8,10.4-1.3,15.6c-0.2,1.8-1.4,2.9-3,2.8
		c-1.5-0.1-2.6-1.5-2.4-3.2c0.5-5.9,0.9-11.8,1.5-17.7c0.5-4.4,4.3-7.9,8.8-8.1c3.9-0.1,7.8-0.1,11.8,0c4.7,0.1,8.5,3.8,8.9,8.6
		c0.5,5.7,0.9,11.4,1.4,17c0.2,1.9-0.8,3.2-2.5,3.3c-1.5,0.1-2.8-1.1-3-2.8c-0.2-2.5-0.4-5-0.6-7.5c-0.2-2.8-0.4-5.6-0.7-8.4
		c-0.1-0.7-0.1-1.6-1.1-1.6c-0.9,0.1-0.6,1-0.6,1.6c0,14.7,0,29.4,0,44.1c0,2.4-1.7,4-3.9,3.6c-1.4-0.3-2.5-1.4-2.6-2.8
		c0-0.4,0-0.8,0-1.2c0-7.7,0-15.5,0-23.2C653.8,348.5,653.8,348.2,653.8,347.6z"/>
	<path class="st2" d="M660.1,307.7c0,4.1-3.3,7.5-7.3,7.5c-4.1,0-7.5-3.3-7.5-7.3c0-4.1,3.3-7.5,7.4-7.5
		C656.7,300.2,660.1,303.6,660.1,307.7z"/>
</g>
<g>
	<path class="st1" d="M707.3,155.9c-0.6,0-1,0-1.5,0c-0.2,0-0.4,0-0.7,0.1c0,0.4,0,0.8,0,1.1c0,7.9,0,15.8,0,23.7
		c0,2.3-1.8,3.9-3.9,3.5c-1.4-0.3-2.5-1.4-2.6-2.8c0-0.4,0-0.8,0-1.2c0-14.5,0-28.9,0-43.4c0-0.4,0-0.8-0.1-1.2
		c-0.1-0.3-0.4-0.7-0.6-0.7c-0.3,0-0.7,0.3-0.9,0.5c-0.2,0.4-0.3,1-0.3,1.4c-0.4,5.2-0.8,10.4-1.3,15.6c-0.2,1.8-1.4,2.9-3,2.8
		c-1.5-0.1-2.6-1.5-2.4-3.2c0.5-5.9,0.9-11.8,1.5-17.7c0.5-4.4,4.3-7.9,8.8-8.1c3.9-0.1,7.8-0.1,11.8,0c4.7,0.1,8.5,3.8,8.9,8.6
		c0.5,5.7,0.9,11.4,1.4,17c0.2,1.9-0.8,3.2-2.5,3.3c-1.5,0.1-2.8-1.1-3-2.8c-0.2-2.5-0.4-5-0.6-7.5c-0.2-2.8-0.4-5.6-0.7-8.4
		c-0.1-0.7-0.1-1.6-1.1-1.6c-0.9,0.1-0.6,1-0.6,1.6c0,14.7,0,29.4,0,44.1c0,2.4-1.7,4-3.9,3.6c-1.4-0.3-2.5-1.4-2.6-2.8
		c0-0.4,0-0.8,0-1.2c0-7.7,0-15.5,0-23.2C707.3,156.8,707.3,156.4,707.3,155.9z"/>
	<path class="st2" d="M713.6,116c0,4.1-3.3,7.5-7.3,7.5c-4.1,0-7.5-3.3-7.5-7.3c0-4.1,3.3-7.5,7.4-7.5
		C710.3,108.5,713.6,111.9,713.6,116z"/>
</g>
<g>
	<path class="st1" d="M759.7,155.9c-0.6,0-1,0-1.5,0c-0.2,0-0.4,0-0.7,0.1c0,0.4,0,0.8,0,1.1c0,7.9,0,15.8,0,23.7
		c0,2.3-1.8,3.9-3.9,3.5c-1.4-0.3-2.5-1.4-2.6-2.8c0-0.4,0-0.8,0-1.2c0-14.5,0-28.9,0-43.4c0-0.4,0-0.8-0.1-1.2
		c-0.1-0.3-0.4-0.7-0.6-0.7c-0.3,0-0.7,0.3-0.9,0.5c-0.2,0.4-0.3,1-0.3,1.4c-0.4,5.2-0.8,10.4-1.3,15.6c-0.2,1.8-1.4,2.9-3,2.8
		c-1.5-0.1-2.6-1.5-2.4-3.2c0.5-5.9,0.9-11.8,1.5-17.7c0.5-4.4,4.3-7.9,8.8-8.1c3.9-0.1,7.8-0.1,11.8,0c4.7,0.1,8.5,3.8,8.9,8.6
		c0.5,5.7,0.9,11.4,1.4,17c0.2,1.9-0.8,3.2-2.5,3.3c-1.5,0.1-2.8-1.1-3-2.8c-0.2-2.5-0.4-5-0.6-7.5c-0.2-2.8-0.4-5.6-0.7-8.4
		c-0.1-0.7-0.1-1.6-1.1-1.6c-0.9,0.1-0.6,1-0.6,1.6c0,14.7,0,29.4,0,44.1c0,2.4-1.7,4-3.9,3.6c-1.4-0.3-2.5-1.4-2.6-2.8
		c0-0.4,0-0.8,0-1.2c0-7.7,0-15.5,0-23.2C759.7,156.8,759.7,156.4,759.7,155.9z"/>
	<path class="st2" d="M766,116c0,4.1-3.3,7.5-7.3,7.5c-4.1,0-7.5-3.3-7.5-7.3c0-4.1,3.3-7.5,7.4-7.5C762.6,108.5,766,111.9,766,116z
		"/>
</g>
<g>
	<path class="st1" d="M812,155.9c-0.6,0-1,0-1.5,0c-0.2,0-0.4,0-0.7,0.1c0,0.4,0,0.8,0,1.1c0,7.9,0,15.8,0,23.7
		c0,2.3-1.8,3.9-3.9,3.5c-1.4-0.3-2.5-1.4-2.6-2.8c0-0.4,0-0.8,0-1.2c0-14.5,0-28.9,0-43.4c0-0.4,0-0.8-0.1-1.2
		c-0.1-0.3-0.4-0.7-0.6-0.7c-0.3,0-0.7,0.3-0.9,0.5c-0.2,0.4-0.3,1-0.3,1.4c-0.4,5.2-0.8,10.4-1.3,15.6c-0.2,1.8-1.4,2.9-3,2.8
		c-1.5-0.1-2.6-1.5-2.4-3.2c0.5-5.9,0.9-11.8,1.5-17.7c0.5-4.4,4.3-7.9,8.8-8.1c3.9-0.1,7.8-0.1,11.8,0c4.7,0.1,8.5,3.8,8.9,8.6
		c0.5,5.7,0.9,11.4,1.4,17c0.2,1.9-0.8,3.2-2.5,3.3c-1.5,0.1-2.8-1.1-3-2.8c-0.2-2.5-0.4-5-0.6-7.5c-0.2-2.8-0.4-5.6-0.7-8.4
		c-0.1-0.7-0.1-1.6-1.1-1.6c-0.9,0.1-0.6,1-0.6,1.6c0,14.7,0,29.4,0,44.1c0,2.4-1.7,4-3.9,3.6c-1.4-0.3-2.5-1.4-2.6-2.8
		c0-0.4,0-0.8,0-1.2c0-7.7,0-15.5,0-23.2C812,156.8,812,156.4,812,155.9z"/>
	<path class="st2" d="M818.3,116c0,4.1-3.3,7.5-7.3,7.5c-4.1,0-7.5-3.3-7.5-7.3c0-4.1,3.3-7.5,7.4-7.5
		C815,108.5,818.3,111.9,818.3,116z"/>
</g>
<g>
	<path class="st1" d="M707,251.8c-0.6,0-1,0-1.5,0c-0.2,0-0.4,0-0.7,0.1c0,0.4,0,0.8,0,1.1c0,7.9,0,15.8,0,23.7
		c0,2.3-1.8,3.9-3.9,3.5c-1.4-0.3-2.5-1.4-2.6-2.8c0-0.4,0-0.8,0-1.2c0-14.5,0-28.9,0-43.4c0-0.4,0-0.8-0.1-1.2
		c-0.1-0.3-0.4-0.7-0.6-0.7c-0.3,0-0.7,0.3-0.9,0.5c-0.2,0.4-0.3,1-0.3,1.4c-0.4,5.2-0.8,10.4-1.3,15.6c-0.2,1.8-1.4,2.9-3,2.8
		c-1.5-0.1-2.6-1.5-2.4-3.2c0.5-5.9,0.9-11.8,1.5-17.7c0.5-4.4,4.3-7.9,8.8-8.1c3.9-0.1,7.8-0.1,11.8,0c4.7,0.1,8.5,3.8,8.9,8.6
		c0.5,5.7,0.9,11.4,1.4,17c0.2,1.9-0.8,3.2-2.5,3.3c-1.5,0.1-2.8-1.1-3-2.8c-0.2-2.5-0.4-5-0.6-7.5c-0.2-2.8-0.4-5.6-0.7-8.4
		c-0.1-0.7-0.1-1.6-1.1-1.6c-0.9,0.1-0.6,1-0.6,1.6c0,14.7,0,29.4,0,44.1c0,2.4-1.7,4-3.9,3.6c-1.4-0.3-2.5-1.4-2.6-2.8
		c0-0.4,0-0.8,0-1.2c0-7.7,0-15.5,0-23.2C707,252.7,707,252.3,707,251.8z"/>
	<path class="st2" d="M713.3,211.8c0,4.1-3.3,7.5-7.3,7.5c-4.1,0-7.5-3.3-7.5-7.3c0-4.1,3.3-7.5,7.4-7.5
		C710,204.4,713.3,207.7,713.3,211.8z"/>
</g>
<g>
	<path class="st1" d="M759.4,251.8c-0.6,0-1,0-1.5,0c-0.2,0-0.4,0-0.7,0.1c0,0.4,0,0.8,0,1.1c0,7.9,0,15.8,0,23.7
		c0,2.3-1.8,3.9-3.9,3.5c-1.4-0.3-2.5-1.4-2.6-2.8c0-0.4,0-0.8,0-1.2c0-14.5,0-28.9,0-43.4c0-0.4,0-0.8-0.1-1.2
		c-0.1-0.3-0.4-0.7-0.6-0.7c-0.3,0-0.7,0.3-0.9,0.5c-0.2,0.4-0.3,1-0.3,1.4c-0.4,5.2-0.8,10.4-1.3,15.6c-0.2,1.8-1.4,2.9-3,2.8
		c-1.5-0.1-2.6-1.5-2.4-3.2c0.5-5.9,0.9-11.8,1.5-17.7c0.5-4.4,4.3-7.9,8.8-8.1c3.9-0.1,7.8-0.1,11.8,0c4.7,0.1,8.5,3.8,8.9,8.6
		c0.5,5.7,0.9,11.4,1.4,17c0.2,1.9-0.8,3.2-2.5,3.3c-1.5,0.1-2.8-1.1-3-2.8c-0.2-2.5-0.4-5-0.6-7.5c-0.2-2.8-0.4-5.6-0.7-8.4
		c-0.1-0.7-0.1-1.6-1.1-1.6c-0.9,0.1-0.6,1-0.6,1.6c0,14.7,0,29.4,0,44.1c0,2.4-1.7,4-3.9,3.6c-1.4-0.3-2.5-1.4-2.6-2.8
		c0-0.4,0-0.8,0-1.2c0-7.7,0-15.5,0-23.2C759.4,252.7,759.4,252.3,759.4,251.8z"/>
	<path class="st2" d="M765.7,211.8c0,4.1-3.3,7.5-7.3,7.5c-4.1,0-7.5-3.3-7.5-7.3c0-4.1,3.3-7.5,7.4-7.5
		C762.3,204.4,765.7,207.7,765.7,211.8z"/>
</g>
<g>
	<path class="st1" d="M811.7,251.8c-0.6,0-1,0-1.5,0c-0.2,0-0.4,0-0.7,0.1c0,0.4,0,0.8,0,1.1c0,7.9,0,15.8,0,23.7
		c0,2.3-1.8,3.9-3.9,3.5c-1.4-0.3-2.5-1.4-2.6-2.8c0-0.4,0-0.8,0-1.2c0-14.5,0-28.9,0-43.4c0-0.4,0-0.8-0.1-1.2
		c-0.1-0.3-0.4-0.7-0.6-0.7c-0.3,0-0.7,0.3-0.9,0.5c-0.2,0.4-0.3,1-0.3,1.4c-0.4,5.2-0.8,10.4-1.3,15.6c-0.2,1.8-1.4,2.9-3,2.8
		c-1.5-0.1-2.6-1.5-2.4-3.2c0.5-5.9,0.9-11.8,1.5-17.7c0.5-4.4,4.3-7.9,8.8-8.1c3.9-0.1,7.8-0.1,11.8,0c4.7,0.1,8.5,3.8,8.9,8.6
		c0.5,5.7,0.9,11.4,1.4,17c0.2,1.9-0.8,3.2-2.5,3.3c-1.5,0.1-2.8-1.1-3-2.8c-0.2-2.5-0.4-5-0.6-7.5c-0.2-2.8-0.4-5.6-0.7-8.4
		c-0.1-0.7-0.1-1.6-1.1-1.6c-0.9,0.1-0.6,1-0.6,1.6c0,14.7,0,29.4,0,44.1c0,2.4-1.7,4-3.9,3.6c-1.4-0.3-2.5-1.4-2.6-2.8
		c0-0.4,0-0.8,0-1.2c0-7.7,0-15.5,0-23.2C811.7,252.7,811.7,252.3,811.7,251.8z"/>
	<path class="st2" d="M818,211.8c0,4.1-3.3,7.5-7.3,7.5c-4.1,0-7.5-3.3-7.5-7.3c0-4.1,3.3-7.5,7.4-7.5
		C814.7,204.4,818,207.7,818,211.8z"/>
</g>
<g>
	<path class="st1" d="M707,347.6c-0.6,0-1,0-1.5,0c-0.2,0-0.4,0-0.7,0.1c0,0.4,0,0.8,0,1.1c0,7.9,0,15.8,0,23.7
		c0,2.3-1.8,3.9-3.9,3.5c-1.4-0.3-2.5-1.4-2.6-2.8c0-0.4,0-0.8,0-1.2c0-14.5,0-28.9,0-43.4c0-0.4,0-0.8-0.1-1.2
		c-0.1-0.3-0.4-0.7-0.6-0.7c-0.3,0-0.7,0.3-0.9,0.5c-0.2,0.4-0.3,1-0.3,1.4c-0.4,5.2-0.8,10.4-1.3,15.6c-0.2,1.8-1.4,2.9-3,2.8
		c-1.5-0.1-2.6-1.5-2.4-3.2c0.5-5.9,0.9-11.8,1.5-17.7c0.5-4.4,4.3-7.9,8.8-8.1c3.9-0.1,7.8-0.1,11.8,0c4.7,0.1,8.5,3.8,8.9,8.6
		c0.5,5.7,0.9,11.4,1.4,17c0.2,1.9-0.8,3.2-2.5,3.3c-1.5,0.1-2.8-1.1-3-2.8c-0.2-2.5-0.4-5-0.6-7.5c-0.2-2.8-0.4-5.6-0.7-8.4
		c-0.1-0.7-0.1-1.6-1.1-1.6c-0.9,0.1-0.6,1-0.6,1.6c0,14.7,0,29.4,0,44.1c0,2.4-1.7,4-3.9,3.6c-1.4-0.3-2.5-1.4-2.6-2.8
		c0-0.4,0-0.8,0-1.2c0-7.7,0-15.5,0-23.2C707,348.5,707,348.2,707,347.6z"/>
	<path class="st2" d="M713.3,307.7c0,4.1-3.3,7.5-7.3,7.5c-4.1,0-7.5-3.3-7.5-7.3c0-4.1,3.3-7.5,7.4-7.5
		C710,300.2,713.3,303.6,713.3,307.7z"/>
</g>
<g>
	<path class="st1" d="M759.4,347.6c-0.6,0-1,0-1.5,0c-0.2,0-0.4,0-0.7,0.1c0,0.4,0,0.8,0,1.1c0,7.9,0,15.8,0,23.7
		c0,2.3-1.8,3.9-3.9,3.5c-1.4-0.3-2.5-1.4-2.6-2.8c0-0.4,0-0.8,0-1.2c0-14.5,0-28.9,0-43.4c0-0.4,0-0.8-0.1-1.2
		c-0.1-0.3-0.4-0.7-0.6-0.7c-0.3,0-0.7,0.3-0.9,0.5c-0.2,0.4-0.3,1-0.3,1.4c-0.4,5.2-0.8,10.4-1.3,15.6c-0.2,1.8-1.4,2.9-3,2.8
		c-1.5-0.1-2.6-1.5-2.4-3.2c0.5-5.9,0.9-11.8,1.5-17.7c0.5-4.4,4.3-7.9,8.8-8.1c3.9-0.1,7.8-0.1,11.8,0c4.7,0.1,8.5,3.8,8.9,8.6
		c0.5,5.7,0.9,11.4,1.4,17c0.2,1.9-0.8,3.2-2.5,3.3c-1.5,0.1-2.8-1.1-3-2.8c-0.2-2.5-0.4-5-0.6-7.5c-0.2-2.8-0.4-5.6-0.7-8.4
		c-0.1-0.7-0.1-1.6-1.1-1.6c-0.9,0.1-0.6,1-0.6,1.6c0,14.7,0,29.4,0,44.1c0,2.4-1.7,4-3.9,3.6c-1.4-0.3-2.5-1.4-2.6-2.8
		c0-0.4,0-0.8,0-1.2c0-7.7,0-15.5,0-23.2C759.4,348.5,759.4,348.2,759.4,347.6z"/>
	<path class="st2" d="M765.7,307.7c0,4.1-3.3,7.5-7.3,7.5c-4.1,0-7.5-3.3-7.5-7.3c0-4.1,3.3-7.5,7.4-7.5
		C762.3,300.2,765.7,303.6,765.7,307.7z"/>
</g>
<g>
	<path class="st1" d="M811.7,347.6c-0.6,0-1,0-1.5,0c-0.2,0-0.4,0-0.7,0.1c0,0.4,0,0.8,0,1.1c0,7.9,0,15.8,0,23.7
		c0,2.3-1.8,3.9-3.9,3.5c-1.4-0.3-2.5-1.4-2.6-2.8c0-0.4,0-0.8,0-1.2c0-14.5,0-28.9,0-43.4c0-0.4,0-0.8-0.1-1.2
		c-0.1-0.3-0.4-0.7-0.6-0.7c-0.3,0-0.7,0.3-0.9,0.5c-0.2,0.4-0.3,1-0.3,1.4c-0.4,5.2-0.8,10.4-1.3,15.6c-0.2,1.8-1.4,2.9-3,2.8
		c-1.5-0.1-2.6-1.5-2.4-3.2c0.5-5.9,0.9-11.8,1.5-17.7c0.5-4.4,4.3-7.9,8.8-8.1c3.9-0.1,7.8-0.1,11.8,0c4.7,0.1,8.5,3.8,8.9,8.6
		c0.5,5.7,0.9,11.4,1.4,17c0.2,1.9-0.8,3.2-2.5,3.3c-1.5,0.1-2.8-1.1-3-2.8c-0.2-2.5-0.4-5-0.6-7.5c-0.2-2.8-0.4-5.6-0.7-8.4
		c-0.1-0.7-0.1-1.6-1.1-1.6c-0.9,0.1-0.6,1-0.6,1.6c0,14.7,0,29.4,0,44.1c0,2.4-1.7,4-3.9,3.6c-1.4-0.3-2.5-1.4-2.6-2.8
		c0-0.4,0-0.8,0-1.2c0-7.7,0-15.5,0-23.2C811.7,348.5,811.7,348.2,811.7,347.6z"/>
	<path class="st2" d="M818,307.7c0,4.1-3.3,7.5-7.3,7.5c-4.1,0-7.5-3.3-7.5-7.3c0-4.1,3.3-7.5,7.4-7.5
		C814.7,300.2,818,303.6,818,307.7z"/>
</g>
<g>
	<path class="st1" d="M865,155.9c-0.6,0-1,0-1.5,0c-0.2,0-0.4,0-0.7,0.1c0,0.4,0,0.8,0,1.1c0,7.9,0,15.8,0,23.7
		c0,2.3-1.8,3.9-3.9,3.5c-1.4-0.3-2.5-1.4-2.6-2.8c0-0.4,0-0.8,0-1.2c0-14.5,0-28.9,0-43.4c0-0.4,0-0.8-0.1-1.2
		c-0.1-0.3-0.4-0.7-0.6-0.7c-0.3,0-0.7,0.3-0.9,0.5c-0.2,0.4-0.3,1-0.3,1.4c-0.4,5.2-0.8,10.4-1.3,15.6c-0.2,1.8-1.4,2.9-3,2.8
		c-1.5-0.1-2.6-1.5-2.4-3.2c0.5-5.9,0.9-11.8,1.5-17.7c0.5-4.4,4.3-7.9,8.8-8.1c3.9-0.1,7.8-0.1,11.8,0c4.7,0.1,8.5,3.8,8.9,8.6
		c0.5,5.7,0.9,11.4,1.4,17c0.2,1.9-0.8,3.2-2.5,3.3c-1.5,0.1-2.8-1.1-3-2.8c-0.2-2.5-0.4-5-0.6-7.5c-0.2-2.8-0.4-5.6-0.7-8.4
		c-0.1-0.7-0.1-1.6-1.1-1.6c-0.9,0.1-0.6,1-0.6,1.6c0,14.7,0,29.4,0,44.1c0,2.4-1.7,4-3.9,3.6c-1.4-0.3-2.5-1.4-2.6-2.8
		c0-0.4,0-0.8,0-1.2c0-7.7,0-15.5,0-23.2C865,156.8,865,156.4,865,155.9z"/>
	<path class="st2" d="M871.3,116c0,4.1-3.3,7.5-7.3,7.5c-4.1,0-7.5-3.3-7.5-7.3c0-4.1,3.3-7.5,7.4-7.5
		C867.9,108.5,871.3,111.9,871.3,116z"/>
</g>
<g>
	<path class="st1" d="M864.7,251.8c-0.6,0-1,0-1.5,0c-0.2,0-0.4,0-0.7,0.1c0,0.4,0,0.8,0,1.1c0,7.9,0,15.8,0,23.7
		c0,2.3-1.8,3.9-3.9,3.5c-1.4-0.3-2.5-1.4-2.6-2.8c0-0.4,0-0.8,0-1.2c0-14.5,0-28.9,0-43.4c0-0.4,0-0.8-0.1-1.2
		c-0.1-0.3-0.4-0.7-0.6-0.7c-0.3,0-0.7,0.3-0.9,0.5c-0.2,0.4-0.3,1-0.3,1.4c-0.4,5.2-0.8,10.4-1.3,15.6c-0.2,1.8-1.4,2.9-3,2.8
		c-1.5-0.1-2.6-1.5-2.4-3.2c0.5-5.9,0.9-11.8,1.5-17.7c0.5-4.4,4.3-7.9,8.8-8.1c3.9-0.1,7.8-0.1,11.8,0c4.7,0.1,8.5,3.8,8.9,8.6
		c0.5,5.7,0.9,11.4,1.4,17c0.2,1.9-0.8,3.2-2.5,3.3c-1.5,0.1-2.8-1.1-3-2.8c-0.2-2.5-0.4-5-0.6-7.5c-0.2-2.8-0.4-5.6-0.7-8.4
		c-0.1-0.7-0.1-1.6-1.1-1.6c-0.9,0.1-0.6,1-0.6,1.6c0,14.7,0,29.4,0,44.1c0,2.4-1.7,4-3.9,3.6c-1.4-0.3-2.5-1.4-2.6-2.8
		c0-0.4,0-0.8,0-1.2c0-7.7,0-15.5,0-23.2C864.7,252.7,864.7,252.3,864.7,251.8z"/>
	<path class="st2" d="M871,211.8c0,4.1-3.3,7.5-7.3,7.5c-4.1,0-7.5-3.3-7.5-7.3c0-4.1,3.3-7.5,7.4-7.5
		C867.6,204.4,871,207.7,871,211.8z"/>
</g>
<g>
	<path class="st1" d="M864.7,347.6c-0.6,0-1,0-1.5,0c-0.2,0-0.4,0-0.7,0.1c0,0.4,0,0.8,0,1.1c0,7.9,0,15.8,0,23.7
		c0,2.3-1.8,3.9-3.9,3.5c-1.4-0.3-2.5-1.4-2.6-2.8c0-0.4,0-0.8,0-1.2c0-14.5,0-28.9,0-43.4c0-0.4,0-0.8-0.1-1.2
		c-0.1-0.3-0.4-0.7-0.6-0.7c-0.3,0-0.7,0.3-0.9,0.5c-0.2,0.4-0.3,1-0.3,1.4c-0.4,5.2-0.8,10.4-1.3,15.6c-0.2,1.8-1.4,2.9-3,2.8
		c-1.5-0.1-2.6-1.5-2.4-3.2c0.5-5.9,0.9-11.8,1.5-17.7c0.5-4.4,4.3-7.9,8.8-8.1c3.9-0.1,7.8-0.1,11.8,0c4.7,0.1,8.5,3.8,8.9,8.6
		c0.5,5.7,0.9,11.4,1.4,17c0.2,1.9-0.8,3.2-2.5,3.3c-1.5,0.1-2.8-1.1-3-2.8c-0.2-2.5-0.4-5-0.6-7.5c-0.2-2.8-0.4-5.6-0.7-8.4
		c-0.1-0.7-0.1-1.6-1.1-1.6c-0.9,0.1-0.6,1-0.6,1.6c0,14.7,0,29.4,0,44.1c0,2.4-1.7,4-3.9,3.6c-1.4-0.3-2.5-1.4-2.6-2.8
		c0-0.4,0-0.8,0-1.2c0-7.7,0-15.5,0-23.2C864.7,348.5,864.7,348.2,864.7,347.6z"/>
	<path class="st2" d="M871,307.7c0,4.1-3.3,7.5-7.3,7.5c-4.1,0-7.5-3.3-7.5-7.3c0-4.1,3.3-7.5,7.4-7.5
		C867.6,300.2,871,303.6,871,307.7z"/>
</g>
<g>
	<path class="st1" d="M286.1,155.9c-0.6,0-1,0-1.5,0c-0.2,0-0.4,0-0.7,0.1c0,0.4,0,0.8,0,1.1c0,7.9,0,15.8,0,23.7
		c0,2.3-1.8,3.9-3.9,3.5c-1.4-0.3-2.5-1.4-2.6-2.8c0-0.4,0-0.8,0-1.2c0-14.5,0-28.9,0-43.4c0-0.4,0-0.8-0.1-1.2
		c-0.1-0.3-0.4-0.7-0.6-0.7c-0.3,0-0.7,0.3-0.9,0.5c-0.2,0.4-0.3,1-0.3,1.4c-0.4,5.2-0.8,10.4-1.3,15.6c-0.2,1.8-1.4,2.9-3,2.8
		c-1.5-0.1-2.6-1.5-2.4-3.2c0.5-5.9,0.9-11.8,1.5-17.7c0.5-4.4,4.3-7.9,8.8-8.1c3.9-0.1,7.8-0.1,11.8,0c4.7,0.1,8.5,3.8,8.9,8.6
		c0.5,5.7,0.9,11.4,1.4,17c0.2,1.9-0.8,3.2-2.5,3.3c-1.5,0.1-2.8-1.1-3-2.8c-0.2-2.5-0.4-5-0.6-7.5c-0.2-2.8-0.4-5.6-0.7-8.4
		c-0.1-0.7-0.1-1.6-1.1-1.6c-0.9,0.1-0.6,1-0.6,1.6c0,14.7,0,29.4,0,44.1c0,2.4-1.7,4-3.9,3.6c-1.4-0.3-2.5-1.4-2.6-2.8
		c0-0.4,0-0.8,0-1.2c0-7.7,0-15.5,0-23.2C286.1,156.8,286.1,156.4,286.1,155.9z"/>
	<path class="st2" d="M292.4,116c0,4.1-3.3,7.5-7.3,7.5c-4.1,0-7.5-3.3-7.5-7.3c0-4.1,3.3-7.5,7.4-7.5
		C289.1,108.5,292.4,111.9,292.4,116z"/>
</g>
<g>
	<path class="st1" d="M338.5,155.9c-0.6,0-1,0-1.5,0c-0.2,0-0.4,0-0.7,0.1c0,0.4,0,0.8,0,1.1c0,7.9,0,15.8,0,23.7
		c0,2.3-1.8,3.9-3.9,3.5c-1.4-0.3-2.5-1.4-2.6-2.8c0-0.4,0-0.8,0-1.2c0-14.5,0-28.9,0-43.4c0-0.4,0-0.8-0.1-1.2
		c-0.1-0.3-0.4-0.7-0.6-0.7c-0.3,0-0.7,0.3-0.9,0.5c-0.2,0.4-0.3,1-0.3,1.4c-0.4,5.2-0.8,10.4-1.3,15.6c-0.2,1.8-1.4,2.9-3,2.8
		c-1.5-0.1-2.6-1.5-2.4-3.2c0.5-5.9,0.9-11.8,1.5-17.7c0.5-4.4,4.3-7.9,8.8-8.1c3.9-0.1,7.8-0.1,11.8,0c4.7,0.1,8.5,3.8,8.9,8.6
		c0.5,5.7,0.9,11.4,1.4,17c0.2,1.9-0.8,3.2-2.5,3.3c-1.5,0.1-2.8-1.1-3-2.8c-0.2-2.5-0.4-5-0.6-7.5c-0.2-2.8-0.4-5.6-0.7-8.4
		c-0.1-0.7-0.1-1.6-1.1-1.6c-0.9,0.1-0.6,1-0.6,1.6c0,14.7,0,29.4,0,44.1c0,2.4-1.7,4-3.9,3.6c-1.4-0.3-2.5-1.4-2.6-2.8
		c0-0.4,0-0.8,0-1.2c0-7.7,0-15.5,0-23.2C338.5,156.8,338.5,156.4,338.5,155.9z"/>
	<path class="st2" d="M344.8,116c0,4.1-3.3,7.5-7.3,7.5c-4.1,0-7.5-3.3-7.5-7.3c0-4.1,3.3-7.5,7.4-7.5
		C341.4,108.5,344.8,111.9,344.8,116z"/>
</g>
<g>
	<path class="st1" d="M25.5,443.4c-0.6,0-1,0-1.5,0c-0.2,0-0.4,0-0.7,0.1c0,0.4,0,0.8,0,1.1c0,7.9,0,15.8,0,23.7
		c0,2.3-1.8,3.9-3.9,3.5c-1.4-0.3-2.5-1.4-2.6-2.8c0-0.4,0-0.8,0-1.2c0-14.5,0-28.9,0-43.4c0-0.4,0-0.8-0.1-1.2
		c-0.1-0.3-0.4-0.7-0.6-0.7c-0.3,0-0.7,0.3-0.9,0.5c-0.2,0.4-0.3,1-0.3,1.4c-0.4,5.2-0.8,10.4-1.3,15.6c-0.2,1.8-1.4,2.9-3,2.8
		c-1.5-0.1-2.6-1.5-2.4-3.2c0.5-5.9,0.9-11.8,1.5-17.7c0.5-4.4,4.3-7.9,8.8-8.1c3.9-0.1,7.8-0.1,11.8,0c4.7,0.1,8.5,3.8,8.9,8.6
		c0.5,5.7,0.9,11.4,1.4,17c0.2,1.9-0.8,3.2-2.5,3.3c-1.5,0.1-2.8-1.1-3-2.8c-0.2-2.5-0.4-5-0.6-7.5c-0.2-2.8-0.4-5.6-0.7-8.4
		c-0.1-0.7-0.1-1.6-1.1-1.6c-0.9,0.1-0.6,1-0.6,1.6c0,14.7,0,29.4,0,44.1c0,2.4-1.7,4-3.9,3.6c-1.4-0.3-2.5-1.4-2.6-2.8
		c0-0.4,0-0.8,0-1.2c0-7.7,0-15.5,0-23.2C25.5,444.3,25.5,444,25.5,443.4z"/>
	<path class="st2" d="M31.9,403.5c0,4.1-3.3,7.5-7.3,7.5c-4.1,0-7.5-3.3-7.5-7.3c0-4.1,3.3-7.5,7.4-7.5
		C28.5,396,31.9,399.4,31.9,403.5z"/>
</g>
<g>
	<path class="st1" d="M77.9,443.4c-0.6,0-1,0-1.5,0c-0.2,0-0.4,0-0.7,0.1c0,0.4,0,0.8,0,1.1c0,7.9,0,15.8,0,23.7
		c0,2.3-1.8,3.9-3.9,3.5c-1.4-0.3-2.5-1.4-2.6-2.8c0-0.4,0-0.8,0-1.2c0-14.5,0-28.9,0-43.4c0-0.4,0-0.8-0.1-1.2
		c-0.1-0.3-0.4-0.7-0.6-0.7c-0.3,0-0.7,0.3-0.9,0.5c-0.2,0.4-0.3,1-0.3,1.4c-0.4,5.2-0.8,10.4-1.3,15.6c-0.2,1.8-1.4,2.9-3,2.8
		c-1.5-0.1-2.6-1.5-2.4-3.2c0.5-5.9,0.9-11.8,1.5-17.7c0.5-4.4,4.3-7.9,8.8-8.1c3.9-0.1,7.8-0.1,11.8,0c4.7,0.1,8.5,3.8,8.9,8.6
		c0.5,5.7,0.9,11.4,1.4,17c0.2,1.9-0.8,3.2-2.5,3.3c-1.5,0.1-2.8-1.1-3-2.8c-0.2-2.5-0.4-5-0.6-7.5c-0.2-2.8-0.4-5.6-0.7-8.4
		c-0.1-0.7-0.1-1.6-1.1-1.6c-0.9,0.1-0.6,1-0.6,1.6c0,14.7,0,29.4,0,44.1c0,2.4-1.7,4-3.9,3.6c-1.4-0.3-2.5-1.4-2.6-2.8
		c0-0.4,0-0.8,0-1.2c0-7.7,0-15.5,0-23.2C77.9,444.3,77.9,444,77.9,443.4z"/>
	<path class="st2" d="M84.2,403.5c0,4.1-3.3,7.5-7.3,7.5c-4.1,0-7.5-3.3-7.5-7.3c0-4.1,3.3-7.5,7.4-7.5
		C80.9,396,84.2,399.4,84.2,403.5z"/>
</g>
<g>
	<path class="st1" d="M130.3,443.4c-0.6,0-1,0-1.5,0c-0.2,0-0.4,0-0.7,0.1c0,0.4,0,0.8,0,1.1c0,7.9,0,15.8,0,23.7
		c0,2.3-1.8,3.9-3.9,3.5c-1.4-0.3-2.5-1.4-2.6-2.8c0-0.4,0-0.8,0-1.2c0-14.5,0-28.9,0-43.4c0-0.4,0-0.8-0.1-1.2
		c-0.1-0.3-0.4-0.7-0.6-0.7c-0.3,0-0.7,0.3-0.9,0.5c-0.2,0.4-0.3,1-0.3,1.4c-0.4,5.2-0.8,10.4-1.3,15.6c-0.2,1.8-1.4,2.9-3,2.8
		c-1.5-0.1-2.6-1.5-2.4-3.2c0.5-5.9,0.9-11.8,1.5-17.7c0.5-4.4,4.3-7.9,8.8-8.1c3.9-0.1,7.8-0.1,11.8,0c4.7,0.1,8.5,3.8,8.9,8.6
		c0.5,5.7,0.9,11.4,1.4,17c0.2,1.9-0.8,3.2-2.5,3.3c-1.5,0.1-2.8-1.1-3-2.8c-0.2-2.5-0.4-5-0.6-7.5c-0.2-2.8-0.4-5.6-0.7-8.4
		c-0.1-0.7-0.1-1.6-1.1-1.6c-0.9,0.1-0.6,1-0.6,1.6c0,14.7,0,29.4,0,44.1c0,2.4-1.7,4-3.9,3.6c-1.4-0.3-2.5-1.4-2.6-2.8
		c0-0.4,0-0.8,0-1.2c0-7.7,0-15.5,0-23.2C130.3,444.3,130.3,444,130.3,443.4z"/>
	<path class="st2" d="M136.6,403.5c0,4.1-3.3,7.5-7.3,7.5c-4.1,0-7.5-3.3-7.5-7.3c0-4.1,3.3-7.5,7.4-7.5
		C133.2,396,136.6,399.4,136.6,403.5z"/>
</g>
<g>
	<path class="st1" d="M182.6,443.4c-0.6,0-1,0-1.5,0c-0.2,0-0.4,0-0.7,0.1c0,0.4,0,0.8,0,1.1c0,7.9,0,15.8,0,23.7
		c0,2.3-1.8,3.9-3.9,3.5c-1.4-0.3-2.5-1.4-2.6-2.8c0-0.4,0-0.8,0-1.2c0-14.5,0-28.9,0-43.4c0-0.4,0-0.8-0.1-1.2
		c-0.1-0.3-0.4-0.7-0.6-0.7c-0.3,0-0.7,0.3-0.9,0.5c-0.2,0.4-0.3,1-0.3,1.4c-0.4,5.2-0.8,10.4-1.3,15.6c-0.2,1.8-1.4,2.9-3,2.8
		c-1.5-0.1-2.6-1.5-2.4-3.2c0.5-5.9,0.9-11.8,1.5-17.7c0.5-4.4,4.3-7.9,8.8-8.1c3.9-0.1,7.8-0.1,11.8,0c4.7,0.1,8.5,3.8,8.9,8.6
		c0.5,5.7,0.9,11.4,1.4,17c0.2,1.9-0.8,3.2-2.5,3.3c-1.5,0.1-2.8-1.1-3-2.8c-0.2-2.5-0.4-5-0.6-7.5c-0.2-2.8-0.4-5.6-0.7-8.4
		c-0.1-0.7-0.1-1.6-1.1-1.6c-0.9,0.1-0.6,1-0.6,1.6c0,14.7,0,29.4,0,44.1c0,2.4-1.7,4-3.9,3.6c-1.4-0.3-2.5-1.4-2.6-2.8
		c0-0.4,0-0.8,0-1.2c0-7.7,0-15.5,0-23.2C182.6,444.3,182.6,444,182.6,443.4z"/>
	<path class="st2" d="M188.9,403.5c0,4.1-3.3,7.5-7.3,7.5c-4.1,0-7.5-3.3-7.5-7.3c0-4.1,3.3-7.5,7.4-7.5
		C185.6,396,188.9,399.4,188.9,403.5z"/>
</g>
<g>
	<path class="st1" d="M235,443.4c-0.6,0-1,0-1.5,0c-0.2,0-0.4,0-0.7,0.1c0,0.4,0,0.8,0,1.1c0,7.9,0,15.8,0,23.7
		c0,2.3-1.8,3.9-3.9,3.5c-1.4-0.3-2.5-1.4-2.6-2.8c0-0.4,0-0.8,0-1.2c0-14.5,0-28.9,0-43.4c0-0.4,0-0.8-0.1-1.2
		c-0.1-0.3-0.4-0.7-0.6-0.7c-0.3,0-0.7,0.3-0.9,0.5c-0.2,0.4-0.3,1-0.3,1.4c-0.4,5.2-0.8,10.4-1.3,15.6c-0.2,1.8-1.4,2.9-3,2.8
		c-1.5-0.1-2.6-1.5-2.4-3.2c0.5-5.9,0.9-11.8,1.5-17.7c0.5-4.4,4.3-7.9,8.8-8.1c3.9-0.1,7.8-0.1,11.8,0c4.7,0.1,8.5,3.8,8.9,8.6
		c0.5,5.7,0.9,11.4,1.4,17c0.2,1.9-0.8,3.2-2.5,3.3c-1.5,0.1-2.8-1.1-3-2.8c-0.2-2.5-0.4-5-0.6-7.5c-0.2-2.8-0.4-5.6-0.7-8.4
		c-0.1-0.7-0.1-1.6-1.1-1.6c-0.9,0.1-0.6,1-0.6,1.6c0,14.7,0,29.4,0,44.1c0,2.4-1.7,4-3.9,3.6c-1.4-0.3-2.5-1.4-2.6-2.8
		c0-0.4,0-0.8,0-1.2c0-7.7,0-15.5,0-23.2C235,444.3,235,444,235,443.4z"/>
	<path class="st2" d="M241.3,403.5c0,4.1-3.3,7.5-7.3,7.5c-4.1,0-7.5-3.3-7.5-7.3c0-4.1,3.3-7.5,7.4-7.5
		C237.9,396,241.3,399.4,241.3,403.5z"/>
</g>
<g>
	<path class="st1" d="M287.3,443.4c-0.6,0-1,0-1.5,0c-0.2,0-0.4,0-0.7,0.1c0,0.4,0,0.8,0,1.1c0,7.9,0,15.8,0,23.7
		c0,2.3-1.8,3.9-3.9,3.5c-1.4-0.3-2.5-1.4-2.6-2.8c0-0.4,0-0.8,0-1.2c0-14.5,0-28.9,0-43.4c0-0.4,0-0.8-0.1-1.2
		c-0.1-0.3-0.4-0.7-0.6-0.7c-0.3,0-0.7,0.3-0.9,0.5c-0.2,0.4-0.3,1-0.3,1.4c-0.4,5.2-0.8,10.4-1.3,15.6c-0.2,1.8-1.4,2.9-3,2.8
		c-1.5-0.1-2.6-1.5-2.4-3.2c0.5-5.9,0.9-11.8,1.5-17.7c0.5-4.4,4.3-7.9,8.8-8.1c3.9-0.1,7.8-0.1,11.8,0c4.7,0.1,8.5,3.8,8.9,8.6
		c0.5,5.7,0.9,11.4,1.4,17c0.2,1.9-0.8,3.2-2.5,3.3c-1.5,0.1-2.8-1.1-3-2.8c-0.2-2.5-0.4-5-0.6-7.5c-0.2-2.8-0.4-5.6-0.7-8.4
		c-0.1-0.7-0.1-1.6-1.1-1.6c-0.9,0.1-0.6,1-0.6,1.6c0,14.7,0,29.4,0,44.1c0,2.4-1.7,4-3.9,3.6c-1.4-0.3-2.5-1.4-2.6-2.8
		c0-0.4,0-0.8,0-1.2c0-7.7,0-15.5,0-23.2C287.3,444.3,287.3,444,287.3,443.4z"/>
	<path class="st2" d="M293.7,403.5c0,4.1-3.3,7.5-7.3,7.5c-4.1,0-7.5-3.3-7.5-7.3c0-4.1,3.3-7.5,7.4-7.5
		C290.3,396,293.6,399.4,293.7,403.5z"/>
</g>
<g>
	<path class="st1" d="M339.7,443.4c-0.6,0-1,0-1.5,0c-0.2,0-0.4,0-0.7,0.1c0,0.4,0,0.8,0,1.1c0,7.9,0,15.8,0,23.7
		c0,2.3-1.8,3.9-3.9,3.5c-1.4-0.3-2.5-1.4-2.6-2.8c0-0.4,0-0.8,0-1.2c0-14.5,0-28.9,0-43.4c0-0.4,0-0.8-0.1-1.2
		c-0.1-0.3-0.4-0.7-0.6-0.7c-0.3,0-0.7,0.3-0.9,0.5c-0.2,0.4-0.3,1-0.3,1.4c-0.4,5.2-0.8,10.4-1.3,15.6c-0.2,1.8-1.4,2.9-3,2.8
		c-1.5-0.1-2.6-1.5-2.4-3.2c0.5-5.9,0.9-11.8,1.5-17.7c0.5-4.4,4.3-7.9,8.8-8.1c3.9-0.1,7.8-0.1,11.8,0c4.7,0.1,8.5,3.8,8.9,8.6
		c0.5,5.7,0.9,11.4,1.4,17c0.2,1.9-0.8,3.2-2.5,3.3c-1.5,0.1-2.8-1.1-3-2.8c-0.2-2.5-0.4-5-0.6-7.5c-0.2-2.8-0.4-5.6-0.7-8.4
		c-0.1-0.7-0.1-1.6-1.1-1.6c-0.9,0.1-0.6,1-0.6,1.6c0,14.7,0,29.4,0,44.1c0,2.4-1.7,4-3.9,3.6c-1.4-0.3-2.5-1.4-2.6-2.8
		c0-0.4,0-0.8,0-1.2c0-7.7,0-15.5,0-23.2C339.7,444.3,339.7,444,339.7,443.4z"/>
	<path class="st2" d="M346,403.5c0,4.1-3.3,7.5-7.3,7.5c-4.1,0-7.5-3.3-7.5-7.3c0-4.1,3.3-7.5,7.4-7.5
		C342.6,396,346,399.4,346,403.5z"/>
</g>
<g>
	<path class="st1" d="M392.1,443.4c-0.6,0-1,0-1.5,0c-0.2,0-0.4,0-0.7,0.1c0,0.4,0,0.8,0,1.1c0,7.9,0,15.8,0,23.7
		c0,2.3-1.8,3.9-3.9,3.5c-1.4-0.3-2.5-1.4-2.6-2.8c0-0.4,0-0.8,0-1.2c0-14.5,0-28.9,0-43.4c0-0.4,0-0.8-0.1-1.2
		c-0.1-0.3-0.4-0.7-0.6-0.7c-0.3,0-0.7,0.3-0.9,0.5c-0.2,0.4-0.3,1-0.3,1.4c-0.4,5.2-0.8,10.4-1.3,15.6c-0.2,1.8-1.4,2.9-3,2.8
		c-1.5-0.1-2.6-1.5-2.4-3.2c0.5-5.9,0.9-11.8,1.5-17.7c0.5-4.4,4.3-7.9,8.8-8.1c3.9-0.1,7.8-0.1,11.8,0c4.7,0.1,8.5,3.8,8.9,8.6
		c0.5,5.7,0.9,11.4,1.4,17c0.2,1.9-0.8,3.2-2.5,3.3c-1.5,0.1-2.8-1.1-3-2.8c-0.2-2.5-0.4-5-0.6-7.5c-0.2-2.8-0.4-5.6-0.7-8.4
		c-0.1-0.7-0.1-1.6-1.1-1.6c-0.9,0.1-0.6,1-0.6,1.6c0,14.7,0,29.4,0,44.1c0,2.4-1.7,4-3.9,3.6c-1.4-0.3-2.5-1.4-2.6-2.8
		c0-0.4,0-0.8,0-1.2c0-7.7,0-15.5,0-23.2C392.1,444.3,392.1,444,392.1,443.4z"/>
	<path class="st2" d="M398.4,403.5c0,4.1-3.3,7.5-7.3,7.5c-4.1,0-7.5-3.3-7.5-7.3c0-4.1,3.3-7.5,7.4-7.5
		C395,396,398.4,399.4,398.4,403.5z"/>
</g>
<g>
	<path class="st1" d="M444.4,443.4c-0.6,0-1,0-1.5,0c-0.2,0-0.4,0-0.7,0.1c0,0.4,0,0.8,0,1.1c0,7.9,0,15.8,0,23.7
		c0,2.3-1.8,3.9-3.9,3.5c-1.4-0.3-2.5-1.4-2.6-2.8c0-0.4,0-0.8,0-1.2c0-14.5,0-28.9,0-43.4c0-0.4,0-0.8-0.1-1.2
		c-0.1-0.3-0.4-0.7-0.6-0.7c-0.3,0-0.7,0.3-0.9,0.5c-0.2,0.4-0.3,1-0.3,1.4c-0.4,5.2-0.8,10.4-1.3,15.6c-0.2,1.8-1.4,2.9-3,2.8
		c-1.5-0.1-2.6-1.5-2.4-3.2c0.5-5.9,0.9-11.8,1.5-17.7c0.5-4.4,4.3-7.9,8.8-8.1c3.9-0.1,7.8-0.1,11.8,0c4.7,0.1,8.5,3.8,8.9,8.6
		c0.5,5.7,0.9,11.4,1.4,17c0.2,1.9-0.8,3.2-2.5,3.3c-1.5,0.1-2.8-1.1-3-2.8c-0.2-2.5-0.4-5-0.6-7.5c-0.2-2.8-0.4-5.6-0.7-8.4
		c-0.1-0.7-0.1-1.6-1.1-1.6c-0.9,0.1-0.6,1-0.6,1.6c0,14.7,0,29.4,0,44.1c0,2.4-1.7,4-3.9,3.6c-1.4-0.3-2.5-1.4-2.6-2.8
		c0-0.4,0-0.8,0-1.2c0-7.7,0-15.5,0-23.2C444.4,444.3,444.4,444,444.4,443.4z"/>
	<path class="st2" d="M450.7,403.5c0,4.1-3.3,7.5-7.3,7.5c-4.1,0-7.5-3.3-7.5-7.3c0-4.1,3.3-7.5,7.4-7.5
		C447.4,396,450.7,399.4,450.7,403.5z"/>
</g>
<g>
	<path class="st1" d="M496.8,443.4c-0.6,0-1,0-1.5,0c-0.2,0-0.4,0-0.7,0.1c0,0.4,0,0.8,0,1.1c0,7.9,0,15.8,0,23.7
		c0,2.3-1.8,3.9-3.9,3.5c-1.4-0.3-2.5-1.4-2.6-2.8c0-0.4,0-0.8,0-1.2c0-14.5,0-28.9,0-43.4c0-0.4,0-0.8-0.1-1.2
		c-0.1-0.3-0.4-0.7-0.6-0.7c-0.3,0-0.7,0.3-0.9,0.5c-0.2,0.4-0.3,1-0.3,1.4c-0.4,5.2-0.8,10.4-1.3,15.6c-0.2,1.8-1.4,2.9-3,2.8
		c-1.5-0.1-2.6-1.5-2.4-3.2c0.5-5.9,0.9-11.8,1.5-17.7c0.5-4.4,4.3-7.9,8.8-8.1c3.9-0.1,7.8-0.1,11.8,0c4.7,0.1,8.5,3.8,8.9,8.6
		c0.5,5.7,0.9,11.4,1.4,17c0.2,1.9-0.8,3.2-2.5,3.3c-1.5,0.1-2.8-1.1-3-2.8c-0.2-2.5-0.4-5-0.6-7.5c-0.2-2.8-0.4-5.6-0.7-8.4
		c-0.1-0.7-0.1-1.6-1.1-1.6c-0.9,0.1-0.6,1-0.6,1.6c0,14.7,0,29.4,0,44.1c0,2.4-1.7,4-3.9,3.6c-1.4-0.3-2.5-1.4-2.6-2.8
		c0-0.4,0-0.8,0-1.2c0-7.7,0-15.5,0-23.2C496.8,444.3,496.8,444,496.8,443.4z"/>
	<path class="st2" d="M503.1,403.5c0,4.1-3.3,7.5-7.3,7.5c-4.1,0-7.5-3.3-7.5-7.3c0-4.1,3.3-7.5,7.4-7.5
		C499.7,396,503.1,399.4,503.1,403.5z"/>
</g>
<g>
	<path class="st1" d="M549.1,443.4c-0.6,0-1,0-1.5,0c-0.2,0-0.4,0-0.7,0.1c0,0.4,0,0.8,0,1.1c0,7.9,0,15.8,0,23.7
		c0,2.3-1.8,3.9-3.9,3.5c-1.4-0.3-2.5-1.4-2.6-2.8c0-0.4,0-0.8,0-1.2c0-14.5,0-28.9,0-43.4c0-0.4,0-0.8-0.1-1.2
		c-0.1-0.3-0.4-0.7-0.6-0.7c-0.3,0-0.7,0.3-0.9,0.5c-0.2,0.4-0.3,1-0.3,1.4c-0.4,5.2-0.8,10.4-1.3,15.6c-0.2,1.8-1.4,2.9-3,2.8
		c-1.5-0.1-2.6-1.5-2.4-3.2c0.5-5.9,0.9-11.8,1.5-17.7c0.5-4.4,4.3-7.9,8.8-8.1c3.9-0.1,7.8-0.1,11.8,0c4.7,0.1,8.5,3.8,8.9,8.6
		c0.5,5.7,0.9,11.4,1.4,17c0.2,1.9-0.8,3.2-2.5,3.3c-1.5,0.1-2.8-1.1-3-2.8c-0.2-2.5-0.4-5-0.6-7.5c-0.2-2.8-0.4-5.6-0.7-8.4
		c-0.1-0.7-0.1-1.6-1.1-1.6c-0.9,0.1-0.6,1-0.6,1.6c0,14.7,0,29.4,0,44.1c0,2.4-1.7,4-3.9,3.6c-1.4-0.3-2.5-1.4-2.6-2.8
		c0-0.4,0-0.8,0-1.2c0-7.7,0-15.5,0-23.2C549.1,444.3,549.1,444,549.1,443.4z"/>
	<path class="st2" d="M555.4,403.5c0,4.1-3.3,7.5-7.3,7.5c-4.1,0-7.5-3.3-7.5-7.3c0-4.1,3.3-7.5,7.4-7.5
		C552,396,555.4,399.4,555.4,403.5z"/>
</g>
<g>
	<path class="st1" d="M601.4,443.4c-0.6,0-1,0-1.5,0c-0.2,0-0.4,0-0.7,0.1c0,0.4,0,0.8,0,1.1c0,7.9,0,15.8,0,23.7
		c0,2.3-1.8,3.9-3.9,3.5c-1.4-0.3-2.5-1.4-2.6-2.8c0-0.4,0-0.8,0-1.2c0-14.5,0-28.9,0-43.4c0-0.4,0-0.8-0.1-1.2
		c-0.1-0.3-0.4-0.7-0.6-0.7c-0.3,0-0.7,0.3-0.9,0.5c-0.2,0.4-0.3,1-0.3,1.4c-0.4,5.2-0.8,10.4-1.3,15.6c-0.2,1.8-1.4,2.9-3,2.8
		c-1.5-0.1-2.6-1.5-2.4-3.2c0.5-5.9,0.9-11.8,1.5-17.7c0.5-4.4,4.3-7.9,8.8-8.1c3.9-0.1,7.8-0.1,11.8,0c4.7,0.1,8.5,3.8,8.9,8.6
		c0.5,5.7,0.9,11.4,1.4,17c0.2,1.9-0.8,3.2-2.5,3.3c-1.5,0.1-2.8-1.1-3-2.8c-0.2-2.5-0.4-5-0.6-7.5c-0.2-2.8-0.4-5.6-0.7-8.4
		c-0.1-0.7-0.1-1.6-1.1-1.6c-0.9,0.1-0.6,1-0.6,1.6c0,14.7,0,29.4,0,44.1c0,2.4-1.7,4-3.9,3.6c-1.4-0.3-2.5-1.4-2.6-2.8
		c0-0.4,0-0.8,0-1.2c0-7.7,0-15.5,0-23.2C601.4,444.3,601.4,444,601.4,443.4z"/>
	<path class="st2" d="M607.8,403.5c0,4.1-3.3,7.5-7.3,7.5c-4.1,0-7.5-3.3-7.5-7.3c0-4.1,3.3-7.5,7.4-7.5
		C604.4,396,607.7,399.4,607.8,403.5z"/>
</g>
<g>
	<path class="st1" d="M653.8,443.4c-0.6,0-1,0-1.5,0c-0.2,0-0.4,0-0.7,0.1c0,0.4,0,0.8,0,1.1c0,7.9,0,15.8,0,23.7
		c0,2.3-1.8,3.9-3.9,3.5c-1.4-0.3-2.5-1.4-2.6-2.8c0-0.4,0-0.8,0-1.2c0-14.5,0-28.9,0-43.4c0-0.4,0-0.8-0.1-1.2
		c-0.1-0.3-0.4-0.7-0.6-0.7c-0.3,0-0.7,0.3-0.9,0.5c-0.2,0.4-0.3,1-0.3,1.4c-0.4,5.2-0.8,10.4-1.3,15.6c-0.2,1.8-1.4,2.9-3,2.8
		c-1.5-0.1-2.6-1.5-2.4-3.2c0.5-5.9,0.9-11.8,1.5-17.7c0.5-4.4,4.3-7.9,8.8-8.1c3.9-0.1,7.8-0.1,11.8,0c4.7,0.1,8.5,3.8,8.9,8.6
		c0.5,5.7,0.9,11.4,1.4,17c0.2,1.9-0.8,3.2-2.5,3.3c-1.5,0.1-2.8-1.1-3-2.8c-0.2-2.5-0.4-5-0.6-7.5c-0.2-2.8-0.4-5.6-0.7-8.4
		c-0.1-0.7-0.1-1.6-1.1-1.6c-0.9,0.1-0.6,1-0.6,1.6c0,14.7,0,29.4,0,44.1c0,2.4-1.7,4-3.9,3.6c-1.4-0.3-2.5-1.4-2.6-2.8
		c0-0.4,0-0.8,0-1.2c0-7.7,0-15.5,0-23.2C653.8,444.3,653.8,444,653.8,443.4z"/>
	<path class="st2" d="M660.1,403.5c0,4.1-3.3,7.5-7.3,7.5c-4.1,0-7.5-3.3-7.5-7.3c0-4.1,3.3-7.5,7.4-7.5
		C656.7,396,660.1,399.4,660.1,403.5z"/>
</g>
<g>
	<path class="st1" d="M707,443.4c-0.6,0-1,0-1.5,0c-0.2,0-0.4,0-0.7,0.1c0,0.4,0,0.8,0,1.1c0,7.9,0,15.8,0,23.7
		c0,2.3-1.8,3.9-3.9,3.5c-1.4-0.3-2.5-1.4-2.6-2.8c0-0.4,0-0.8,0-1.2c0-14.5,0-28.9,0-43.4c0-0.4,0-0.8-0.1-1.2
		c-0.1-0.3-0.4-0.7-0.6-0.7c-0.3,0-0.7,0.3-0.9,0.5c-0.2,0.4-0.3,1-0.3,1.4c-0.4,5.2-0.8,10.4-1.3,15.6c-0.2,1.8-1.4,2.9-3,2.8
		c-1.5-0.1-2.6-1.5-2.4-3.2c0.5-5.9,0.9-11.8,1.5-17.7c0.5-4.4,4.3-7.9,8.8-8.1c3.9-0.1,7.8-0.1,11.8,0c4.7,0.1,8.5,3.8,8.9,8.6
		c0.5,5.7,0.9,11.4,1.4,17c0.2,1.9-0.8,3.2-2.5,3.3c-1.5,0.1-2.8-1.1-3-2.8c-0.2-2.5-0.4-5-0.6-7.5c-0.2-2.8-0.4-5.6-0.7-8.4
		c-0.1-0.7-0.1-1.6-1.1-1.6c-0.9,0.1-0.6,1-0.6,1.6c0,14.7,0,29.4,0,44.1c0,2.4-1.7,4-3.9,3.6c-1.4-0.3-2.5-1.4-2.6-2.8
		c0-0.4,0-0.8,0-1.2c0-7.7,0-15.5,0-23.2C707,444.3,707,444,707,443.4z"/>
	<path class="st2" d="M713.3,403.5c0,4.1-3.3,7.5-7.3,7.5c-4.1,0-7.5-3.3-7.5-7.3c0-4.1,3.3-7.5,7.4-7.5
		C710,396,713.3,399.4,713.3,403.5z"/>
</g>
<g>
	<path class="st1" d="M759.4,443.4c-0.6,0-1,0-1.5,0c-0.2,0-0.4,0-0.7,0.1c0,0.4,0,0.8,0,1.1c0,7.9,0,15.8,0,23.7
		c0,2.3-1.8,3.9-3.9,3.5c-1.4-0.3-2.5-1.4-2.6-2.8c0-0.4,0-0.8,0-1.2c0-14.5,0-28.9,0-43.4c0-0.4,0-0.8-0.1-1.2
		c-0.1-0.3-0.4-0.7-0.6-0.7c-0.3,0-0.7,0.3-0.9,0.5c-0.2,0.4-0.3,1-0.3,1.4c-0.4,5.2-0.8,10.4-1.3,15.6c-0.2,1.8-1.4,2.9-3,2.8
		c-1.5-0.1-2.6-1.5-2.4-3.2c0.5-5.9,0.9-11.8,1.5-17.7c0.5-4.4,4.3-7.9,8.8-8.1c3.9-0.1,7.8-0.1,11.8,0c4.7,0.1,8.5,3.8,8.9,8.6
		c0.5,5.7,0.9,11.4,1.4,17c0.2,1.9-0.8,3.2-2.5,3.3c-1.5,0.1-2.8-1.1-3-2.8c-0.2-2.5-0.4-5-0.6-7.5c-0.2-2.8-0.4-5.6-0.7-8.4
		c-0.1-0.7-0.1-1.6-1.1-1.6c-0.9,0.1-0.6,1-0.6,1.6c0,14.7,0,29.4,0,44.1c0,2.4-1.7,4-3.9,3.6c-1.4-0.3-2.5-1.4-2.6-2.8
		c0-0.4,0-0.8,0-1.2c0-7.7,0-15.5,0-23.2C759.4,444.3,759.4,444,759.4,443.4z"/>
	<path class="st2" d="M765.7,403.5c0,4.1-3.3,7.5-7.3,7.5c-4.1,0-7.5-3.3-7.5-7.3c0-4.1,3.3-7.5,7.4-7.5
		C762.3,396,765.7,399.4,765.7,403.5z"/>
</g>
<g>
	<path class="st1" d="M811.7,443.4c-0.6,0-1,0-1.5,0c-0.2,0-0.4,0-0.7,0.1c0,0.4,0,0.8,0,1.1c0,7.9,0,15.8,0,23.7
		c0,2.3-1.8,3.9-3.9,3.5c-1.4-0.3-2.5-1.4-2.6-2.8c0-0.4,0-0.8,0-1.2c0-14.5,0-28.9,0-43.4c0-0.4,0-0.8-0.1-1.2
		c-0.1-0.3-0.4-0.7-0.6-0.7c-0.3,0-0.7,0.3-0.9,0.5c-0.2,0.4-0.3,1-0.3,1.4c-0.4,5.2-0.8,10.4-1.3,15.6c-0.2,1.8-1.4,2.9-3,2.8
		c-1.5-0.1-2.6-1.5-2.4-3.2c0.5-5.9,0.9-11.8,1.5-17.7c0.5-4.4,4.3-7.9,8.8-8.1c3.9-0.1,7.8-0.1,11.8,0c4.7,0.1,8.5,3.8,8.9,8.6
		c0.5,5.7,0.9,11.4,1.4,17c0.2,1.9-0.8,3.2-2.5,3.3c-1.5,0.1-2.8-1.1-3-2.8c-0.2-2.5-0.4-5-0.6-7.5c-0.2-2.8-0.4-5.6-0.7-8.4
		c-0.1-0.7-0.1-1.6-1.1-1.6c-0.9,0.1-0.6,1-0.6,1.6c0,14.7,0,29.4,0,44.1c0,2.4-1.7,4-3.9,3.6c-1.4-0.3-2.5-1.4-2.6-2.8
		c0-0.4,0-0.8,0-1.2c0-7.7,0-15.5,0-23.2C811.7,444.3,811.7,444,811.7,443.4z"/>
	<path class="st2" d="M818,403.5c0,4.1-3.3,7.5-7.3,7.5c-4.1,0-7.5-3.3-7.5-7.3c0-4.1,3.3-7.5,7.4-7.5
		C814.7,396,818,399.4,818,403.5z"/>
</g>
<g>
	<path class="st1" d="M864.7,443.4c-0.6,0-1,0-1.5,0c-0.2,0-0.4,0-0.7,0.1c0,0.4,0,0.8,0,1.1c0,7.9,0,15.8,0,23.7
		c0,2.3-1.8,3.9-3.9,3.5c-1.4-0.3-2.5-1.4-2.6-2.8c0-0.4,0-0.8,0-1.2c0-14.5,0-28.9,0-43.4c0-0.4,0-0.8-0.1-1.2
		c-0.1-0.3-0.4-0.7-0.6-0.7c-0.3,0-0.7,0.3-0.9,0.5c-0.2,0.4-0.3,1-0.3,1.4c-0.4,5.2-0.8,10.4-1.3,15.6c-0.2,1.8-1.4,2.9-3,2.8
		c-1.5-0.1-2.6-1.5-2.4-3.2c0.5-5.9,0.9-11.8,1.5-17.7c0.5-4.4,4.3-7.9,8.8-8.1c3.9-0.1,7.8-0.1,11.8,0c4.7,0.1,8.5,3.8,8.9,8.6
		c0.5,5.7,0.9,11.4,1.4,17c0.2,1.9-0.8,3.2-2.5,3.3c-1.5,0.1-2.8-1.1-3-2.8c-0.2-2.5-0.4-5-0.6-7.5c-0.2-2.8-0.4-5.6-0.7-8.4
		c-0.1-0.7-0.1-1.6-1.1-1.6c-0.9,0.1-0.6,1-0.6,1.6c0,14.7,0,29.4,0,44.1c0,2.4-1.7,4-3.9,3.6c-1.4-0.3-2.5-1.4-2.6-2.8
		c0-0.4,0-0.8,0-1.2c0-7.7,0-15.5,0-23.2C864.7,444.3,864.7,444,864.7,443.4z"/>
	<path class="st2" d="M871,403.5c0,4.1-3.3,7.5-7.3,7.5c-4.1,0-7.5-3.3-7.5-7.3c0-4.1,3.3-7.5,7.4-7.5
		C867.6,396,871,399.4,871,403.5z"/>
</g>
<g>
	<path class="st1" d="M25.5,539.2c-0.6,0-1,0-1.5,0c-0.2,0-0.4,0-0.7,0.1c0,0.4,0,0.8,0,1.1c0,7.9,0,15.8,0,23.7
		c0,2.3-1.8,3.9-3.9,3.5c-1.4-0.3-2.5-1.4-2.6-2.8c0-0.4,0-0.8,0-1.2c0-14.5,0-28.9,0-43.4c0-0.4,0-0.8-0.1-1.2
		c-0.1-0.3-0.4-0.7-0.6-0.7c-0.3,0-0.7,0.3-0.9,0.5c-0.2,0.4-0.3,1-0.3,1.4c-0.4,5.2-0.8,10.4-1.3,15.6c-0.2,1.8-1.4,2.9-3,2.8
		c-1.5-0.1-2.6-1.5-2.4-3.2c0.5-5.9,0.9-11.8,1.5-17.7c0.5-4.4,4.3-7.9,8.8-8.1c3.9-0.1,7.8-0.1,11.8,0c4.7,0.1,8.5,3.8,8.9,8.6
		c0.5,5.7,0.9,11.4,1.4,17c0.2,1.9-0.8,3.2-2.5,3.3c-1.5,0.1-2.8-1.1-3-2.8c-0.2-2.5-0.4-5-0.6-7.5c-0.2-2.8-0.4-5.6-0.7-8.4
		c-0.1-0.7-0.1-1.6-1.1-1.6c-0.9,0.1-0.6,1-0.6,1.6c0,14.7,0,29.4,0,44.1c0,2.4-1.7,4-3.9,3.6c-1.4-0.3-2.5-1.4-2.6-2.8
		c0-0.4,0-0.8,0-1.2c0-7.7,0-15.5,0-23.2C25.5,540.1,25.5,539.8,25.5,539.2z"/>
	<path class="st2" d="M31.9,499.3c0,4.1-3.3,7.5-7.3,7.5c-4.1,0-7.5-3.3-7.5-7.3c0-4.1,3.3-7.5,7.4-7.5
		C28.5,491.8,31.9,495.2,31.9,499.3z"/>
</g>
<g>
	<path class="st1" d="M77.9,539.2c-0.6,0-1,0-1.5,0c-0.2,0-0.4,0-0.7,0.1c0,0.4,0,0.8,0,1.1c0,7.9,0,15.8,0,23.7
		c0,2.3-1.8,3.9-3.9,3.5c-1.4-0.3-2.5-1.4-2.6-2.8c0-0.4,0-0.8,0-1.2c0-14.5,0-28.9,0-43.4c0-0.4,0-0.8-0.1-1.2
		c-0.1-0.3-0.4-0.7-0.6-0.7c-0.3,0-0.7,0.3-0.9,0.5c-0.2,0.4-0.3,1-0.3,1.4c-0.4,5.2-0.8,10.4-1.3,15.6c-0.2,1.8-1.4,2.9-3,2.8
		c-1.5-0.1-2.6-1.5-2.4-3.2c0.5-5.9,0.9-11.8,1.5-17.7c0.5-4.4,4.3-7.9,8.8-8.1c3.9-0.1,7.8-0.1,11.8,0c4.7,0.1,8.5,3.8,8.9,8.6
		c0.5,5.7,0.9,11.4,1.4,17c0.2,1.9-0.8,3.2-2.5,3.3c-1.5,0.1-2.8-1.1-3-2.8c-0.2-2.5-0.4-5-0.6-7.5c-0.2-2.8-0.4-5.6-0.7-8.4
		c-0.1-0.7-0.1-1.6-1.1-1.6c-0.9,0.1-0.6,1-0.6,1.6c0,14.7,0,29.4,0,44.1c0,2.4-1.7,4-3.9,3.6c-1.4-0.3-2.5-1.4-2.6-2.8
		c0-0.4,0-0.8,0-1.2c0-7.7,0-15.5,0-23.2C77.9,540.1,77.9,539.8,77.9,539.2z"/>
	<path class="st2" d="M84.2,499.3c0,4.1-3.3,7.5-7.3,7.5c-4.1,0-7.5-3.3-7.5-7.3c0-4.1,3.3-7.5,7.4-7.5
		C80.9,491.8,84.2,495.2,84.2,499.3z"/>
</g>
<g>
	<path class="st1" d="M130.3,539.2c-0.6,0-1,0-1.5,0c-0.2,0-0.4,0-0.7,0.1c0,0.4,0,0.8,0,1.1c0,7.9,0,15.8,0,23.7
		c0,2.3-1.8,3.9-3.9,3.5c-1.4-0.3-2.5-1.4-2.6-2.8c0-0.4,0-0.8,0-1.2c0-14.5,0-28.9,0-43.4c0-0.4,0-0.8-0.1-1.2
		c-0.1-0.3-0.4-0.7-0.6-0.7c-0.3,0-0.7,0.3-0.9,0.5c-0.2,0.4-0.3,1-0.3,1.4c-0.4,5.2-0.8,10.4-1.3,15.6c-0.2,1.8-1.4,2.9-3,2.8
		c-1.5-0.1-2.6-1.5-2.4-3.2c0.5-5.9,0.9-11.8,1.5-17.7c0.5-4.4,4.3-7.9,8.8-8.1c3.9-0.1,7.8-0.1,11.8,0c4.7,0.1,8.5,3.8,8.9,8.6
		c0.5,5.7,0.9,11.4,1.4,17c0.2,1.9-0.8,3.2-2.5,3.3c-1.5,0.1-2.8-1.1-3-2.8c-0.2-2.5-0.4-5-0.6-7.5c-0.2-2.8-0.4-5.6-0.7-8.4
		c-0.1-0.7-0.1-1.6-1.1-1.6c-0.9,0.1-0.6,1-0.6,1.6c0,14.7,0,29.4,0,44.1c0,2.4-1.7,4-3.9,3.6c-1.4-0.3-2.5-1.4-2.6-2.8
		c0-0.4,0-0.8,0-1.2c0-7.7,0-15.5,0-23.2C130.3,540.1,130.3,539.8,130.3,539.2z"/>
	<path class="st2" d="M136.6,499.3c0,4.1-3.3,7.5-7.3,7.5c-4.1,0-7.5-3.3-7.5-7.3c0-4.1,3.3-7.5,7.4-7.5
		C133.2,491.8,136.6,495.2,136.6,499.3z"/>
</g>
<g>
	<path class="st1" d="M182.6,539.2c-0.6,0-1,0-1.5,0c-0.2,0-0.4,0-0.7,0.1c0,0.4,0,0.8,0,1.1c0,7.9,0,15.8,0,23.7
		c0,2.3-1.8,3.9-3.9,3.5c-1.4-0.3-2.5-1.4-2.6-2.8c0-0.4,0-0.8,0-1.2c0-14.5,0-28.9,0-43.4c0-0.4,0-0.8-0.1-1.2
		c-0.1-0.3-0.4-0.7-0.6-0.7c-0.3,0-0.7,0.3-0.9,0.5c-0.2,0.4-0.3,1-0.3,1.4c-0.4,5.2-0.8,10.4-1.3,15.6c-0.2,1.8-1.4,2.9-3,2.8
		c-1.5-0.1-2.6-1.5-2.4-3.2c0.5-5.9,0.9-11.8,1.5-17.7c0.5-4.4,4.3-7.9,8.8-8.1c3.9-0.1,7.8-0.1,11.8,0c4.7,0.1,8.5,3.8,8.9,8.6
		c0.5,5.7,0.9,11.4,1.4,17c0.2,1.9-0.8,3.2-2.5,3.3c-1.5,0.1-2.8-1.1-3-2.8c-0.2-2.5-0.4-5-0.6-7.5c-0.2-2.8-0.4-5.6-0.7-8.4
		c-0.1-0.7-0.1-1.6-1.1-1.6c-0.9,0.1-0.6,1-0.6,1.6c0,14.7,0,29.4,0,44.1c0,2.4-1.7,4-3.9,3.6c-1.4-0.3-2.5-1.4-2.6-2.8
		c0-0.4,0-0.8,0-1.2c0-7.7,0-15.5,0-23.2C182.6,540.1,182.6,539.8,182.6,539.2z"/>
	<path class="st2" d="M188.9,499.3c0,4.1-3.3,7.5-7.3,7.5c-4.1,0-7.5-3.3-7.5-7.3c0-4.1,3.3-7.5,7.4-7.5
		C185.6,491.8,188.9,495.2,188.9,499.3z"/>
</g>
<g>
	<path class="st1" d="M235,539.2c-0.6,0-1,0-1.5,0c-0.2,0-0.4,0-0.7,0.1c0,0.4,0,0.8,0,1.1c0,7.9,0,15.8,0,23.7
		c0,2.3-1.8,3.9-3.9,3.5c-1.4-0.3-2.5-1.4-2.6-2.8c0-0.4,0-0.8,0-1.2c0-14.5,0-28.9,0-43.4c0-0.4,0-0.8-0.1-1.2
		c-0.1-0.3-0.4-0.7-0.6-0.7c-0.3,0-0.7,0.3-0.9,0.5c-0.2,0.4-0.3,1-0.3,1.4c-0.4,5.2-0.8,10.4-1.3,15.6c-0.2,1.8-1.4,2.9-3,2.8
		c-1.5-0.1-2.6-1.5-2.4-3.2c0.5-5.9,0.9-11.8,1.5-17.7c0.5-4.4,4.3-7.9,8.8-8.1c3.9-0.1,7.8-0.1,11.8,0c4.7,0.1,8.5,3.8,8.9,8.6
		c0.5,5.7,0.9,11.4,1.4,17c0.2,1.9-0.8,3.2-2.5,3.3c-1.5,0.1-2.8-1.1-3-2.8c-0.2-2.5-0.4-5-0.6-7.5c-0.2-2.8-0.4-5.6-0.7-8.4
		c-0.1-0.7-0.1-1.6-1.1-1.6c-0.9,0.1-0.6,1-0.6,1.6c0,14.7,0,29.4,0,44.1c0,2.4-1.7,4-3.9,3.6c-1.4-0.3-2.5-1.4-2.6-2.8
		c0-0.4,0-0.8,0-1.2c0-7.7,0-15.5,0-23.2C235,540.1,235,539.8,235,539.2z"/>
	<path class="st2" d="M241.3,499.3c0,4.1-3.3,7.5-7.3,7.5c-4.1,0-7.5-3.3-7.5-7.3c0-4.1,3.3-7.5,7.4-7.5
		C237.9,491.8,241.3,495.2,241.3,499.3z"/>
</g>
<g>
	<path class="st1" d="M287.3,539.2c-0.6,0-1,0-1.5,0c-0.2,0-0.4,0-0.7,0.1c0,0.4,0,0.8,0,1.1c0,7.9,0,15.8,0,23.7
		c0,2.3-1.8,3.9-3.9,3.5c-1.4-0.3-2.5-1.4-2.6-2.8c0-0.4,0-0.8,0-1.2c0-14.5,0-28.9,0-43.4c0-0.4,0-0.8-0.1-1.2
		c-0.1-0.3-0.4-0.7-0.6-0.7c-0.3,0-0.7,0.3-0.9,0.5c-0.2,0.4-0.3,1-0.3,1.4c-0.4,5.2-0.8,10.4-1.3,15.6c-0.2,1.8-1.4,2.9-3,2.8
		c-1.5-0.1-2.6-1.5-2.4-3.2c0.5-5.9,0.9-11.8,1.5-17.7c0.5-4.4,4.3-7.9,8.8-8.1c3.9-0.1,7.8-0.1,11.8,0c4.7,0.1,8.5,3.8,8.9,8.6
		c0.5,5.7,0.9,11.4,1.4,17c0.2,1.9-0.8,3.2-2.5,3.3c-1.5,0.1-2.8-1.1-3-2.8c-0.2-2.5-0.4-5-0.6-7.5c-0.2-2.8-0.4-5.6-0.7-8.4
		c-0.1-0.7-0.1-1.6-1.1-1.6c-0.9,0.1-0.6,1-0.6,1.6c0,14.7,0,29.4,0,44.1c0,2.4-1.7,4-3.9,3.6c-1.4-0.3-2.5-1.4-2.6-2.8
		c0-0.4,0-0.8,0-1.2c0-7.7,0-15.5,0-23.2C287.3,540.1,287.3,539.8,287.3,539.2z"/>
	<path class="st2" d="M293.7,499.3c0,4.1-3.3,7.5-7.3,7.5c-4.1,0-7.5-3.3-7.5-7.3c0-4.1,3.3-7.5,7.4-7.5
		C290.3,491.8,293.6,495.2,293.7,499.3z"/>
</g>
<g>
	<path class="st1" d="M339.7,539.2c-0.6,0-1,0-1.5,0c-0.2,0-0.4,0-0.7,0.1c0,0.4,0,0.8,0,1.1c0,7.9,0,15.8,0,23.7
		c0,2.3-1.8,3.9-3.9,3.5c-1.4-0.3-2.5-1.4-2.6-2.8c0-0.4,0-0.8,0-1.2c0-14.5,0-28.9,0-43.4c0-0.4,0-0.8-0.1-1.2
		c-0.1-0.3-0.4-0.7-0.6-0.7c-0.3,0-0.7,0.3-0.9,0.5c-0.2,0.4-0.3,1-0.3,1.4c-0.4,5.2-0.8,10.4-1.3,15.6c-0.2,1.8-1.4,2.9-3,2.8
		c-1.5-0.1-2.6-1.5-2.4-3.2c0.5-5.9,0.9-11.8,1.5-17.7c0.5-4.4,4.3-7.9,8.8-8.1c3.9-0.1,7.8-0.1,11.8,0c4.7,0.1,8.5,3.8,8.9,8.6
		c0.5,5.7,0.9,11.4,1.4,17c0.2,1.9-0.8,3.2-2.5,3.3c-1.5,0.1-2.8-1.1-3-2.8c-0.2-2.5-0.4-5-0.6-7.5c-0.2-2.8-0.4-5.6-0.7-8.4
		c-0.1-0.7-0.1-1.6-1.1-1.6c-0.9,0.1-0.6,1-0.6,1.6c0,14.7,0,29.4,0,44.1c0,2.4-1.7,4-3.9,3.6c-1.4-0.3-2.5-1.4-2.6-2.8
		c0-0.4,0-0.8,0-1.2c0-7.7,0-15.5,0-23.2C339.7,540.1,339.7,539.8,339.7,539.2z"/>
	<path class="st2" d="M346,499.3c0,4.1-3.3,7.5-7.3,7.5c-4.1,0-7.5-3.3-7.5-7.3c0-4.1,3.3-7.5,7.4-7.5
		C342.6,491.8,346,495.2,346,499.3z"/>
</g>
<g>
	<path class="st1" d="M392.1,539.2c-0.6,0-1,0-1.5,0c-0.2,0-0.4,0-0.7,0.1c0,0.4,0,0.8,0,1.1c0,7.9,0,15.8,0,23.7
		c0,2.3-1.8,3.9-3.9,3.5c-1.4-0.3-2.5-1.4-2.6-2.8c0-0.4,0-0.8,0-1.2c0-14.5,0-28.9,0-43.4c0-0.4,0-0.8-0.1-1.2
		c-0.1-0.3-0.4-0.7-0.6-0.7c-0.3,0-0.7,0.3-0.9,0.5c-0.2,0.4-0.3,1-0.3,1.4c-0.4,5.2-0.8,10.4-1.3,15.6c-0.2,1.8-1.4,2.9-3,2.8
		c-1.5-0.1-2.6-1.5-2.4-3.2c0.5-5.9,0.9-11.8,1.5-17.7c0.5-4.4,4.3-7.9,8.8-8.1c3.9-0.1,7.8-0.1,11.8,0c4.7,0.1,8.5,3.8,8.9,8.6
		c0.5,5.7,0.9,11.4,1.4,17c0.2,1.9-0.8,3.2-2.5,3.3c-1.5,0.1-2.8-1.1-3-2.8c-0.2-2.5-0.4-5-0.6-7.5c-0.2-2.8-0.4-5.6-0.7-8.4
		c-0.1-0.7-0.1-1.6-1.1-1.6c-0.9,0.1-0.6,1-0.6,1.6c0,14.7,0,29.4,0,44.1c0,2.4-1.7,4-3.9,3.6c-1.4-0.3-2.5-1.4-2.6-2.8
		c0-0.4,0-0.8,0-1.2c0-7.7,0-15.5,0-23.2C392.1,540.1,392.1,539.8,392.1,539.2z"/>
	<path class="st2" d="M398.4,499.3c0,4.1-3.3,7.5-7.3,7.5c-4.1,0-7.5-3.3-7.5-7.3c0-4.1,3.3-7.5,7.4-7.5
		C395,491.8,398.4,495.2,398.4,499.3z"/>
</g>
<g>
	<path class="st1" d="M444.4,539.2c-0.6,0-1,0-1.5,0c-0.2,0-0.4,0-0.7,0.1c0,0.4,0,0.8,0,1.1c0,7.9,0,15.8,0,23.7
		c0,2.3-1.8,3.9-3.9,3.5c-1.4-0.3-2.5-1.4-2.6-2.8c0-0.4,0-0.8,0-1.2c0-14.5,0-28.9,0-43.4c0-0.4,0-0.8-0.1-1.2
		c-0.1-0.3-0.4-0.7-0.6-0.7c-0.3,0-0.7,0.3-0.9,0.5c-0.2,0.4-0.3,1-0.3,1.4c-0.4,5.2-0.8,10.4-1.3,15.6c-0.2,1.8-1.4,2.9-3,2.8
		c-1.5-0.1-2.6-1.5-2.4-3.2c0.5-5.9,0.9-11.8,1.5-17.7c0.5-4.4,4.3-7.9,8.8-8.1c3.9-0.1,7.8-0.1,11.8,0c4.7,0.1,8.5,3.8,8.9,8.6
		c0.5,5.7,0.9,11.4,1.4,17c0.2,1.9-0.8,3.2-2.5,3.3c-1.5,0.1-2.8-1.1-3-2.8c-0.2-2.5-0.4-5-0.6-7.5c-0.2-2.8-0.4-5.6-0.7-8.4
		c-0.1-0.7-0.1-1.6-1.1-1.6c-0.9,0.1-0.6,1-0.6,1.6c0,14.7,0,29.4,0,44.1c0,2.4-1.7,4-3.9,3.6c-1.4-0.3-2.5-1.4-2.6-2.8
		c0-0.4,0-0.8,0-1.2c0-7.7,0-15.5,0-23.2C444.4,540.1,444.4,539.8,444.4,539.2z"/>
	<path class="st2" d="M450.7,499.3c0,4.1-3.3,7.5-7.3,7.5c-4.1,0-7.5-3.3-7.5-7.3c0-4.1,3.3-7.5,7.4-7.5
		C447.4,491.8,450.7,495.2,450.7,499.3z"/>
</g>
<g>
	<path class="st1" d="M496.8,539.2c-0.6,0-1,0-1.5,0c-0.2,0-0.4,0-0.7,0.1c0,0.4,0,0.8,0,1.1c0,7.9,0,15.8,0,23.7
		c0,2.3-1.8,3.9-3.9,3.5c-1.4-0.3-2.5-1.4-2.6-2.8c0-0.4,0-0.8,0-1.2c0-14.5,0-28.9,0-43.4c0-0.4,0-0.8-0.1-1.2
		c-0.1-0.3-0.4-0.7-0.6-0.7c-0.3,0-0.7,0.3-0.9,0.5c-0.2,0.4-0.3,1-0.3,1.4c-0.4,5.2-0.8,10.4-1.3,15.6c-0.2,1.8-1.4,2.9-3,2.8
		c-1.5-0.1-2.6-1.5-2.4-3.2c0.5-5.9,0.9-11.8,1.5-17.7c0.5-4.4,4.3-7.9,8.8-8.1c3.9-0.1,7.8-0.1,11.8,0c4.7,0.1,8.5,3.8,8.9,8.6
		c0.5,5.7,0.9,11.4,1.4,17c0.2,1.9-0.8,3.2-2.5,3.3c-1.5,0.1-2.8-1.1-3-2.8c-0.2-2.5-0.4-5-0.6-7.5c-0.2-2.8-0.4-5.6-0.7-8.4
		c-0.1-0.7-0.1-1.6-1.1-1.6c-0.9,0.1-0.6,1-0.6,1.6c0,14.7,0,29.4,0,44.1c0,2.4-1.7,4-3.9,3.6c-1.4-0.3-2.5-1.4-2.6-2.8
		c0-0.4,0-0.8,0-1.2c0-7.7,0-15.5,0-23.2C496.8,540.1,496.8,539.8,496.8,539.2z"/>
	<path class="st2" d="M503.1,499.3c0,4.1-3.3,7.5-7.3,7.5c-4.1,0-7.5-3.3-7.5-7.3c0-4.1,3.3-7.5,7.4-7.5
		C499.7,491.8,503.1,495.2,503.1,499.3z"/>
</g>
<g>
	<path class="st1" d="M549.1,539.2c-0.6,0-1,0-1.5,0c-0.2,0-0.4,0-0.7,0.1c0,0.4,0,0.8,0,1.1c0,7.9,0,15.8,0,23.7
		c0,2.3-1.8,3.9-3.9,3.5c-1.4-0.3-2.5-1.4-2.6-2.8c0-0.4,0-0.8,0-1.2c0-14.5,0-28.9,0-43.4c0-0.4,0-0.8-0.1-1.2
		c-0.1-0.3-0.4-0.7-0.6-0.7c-0.3,0-0.7,0.3-0.9,0.5c-0.2,0.4-0.3,1-0.3,1.4c-0.4,5.2-0.8,10.4-1.3,15.6c-0.2,1.8-1.4,2.9-3,2.8
		c-1.5-0.1-2.6-1.5-2.4-3.2c0.5-5.9,0.9-11.8,1.5-17.7c0.5-4.4,4.3-7.9,8.8-8.1c3.9-0.1,7.8-0.1,11.8,0c4.7,0.1,8.5,3.8,8.9,8.6
		c0.5,5.7,0.9,11.4,1.4,17c0.2,1.9-0.8,3.2-2.5,3.3c-1.5,0.1-2.8-1.1-3-2.8c-0.2-2.5-0.4-5-0.6-7.5c-0.2-2.8-0.4-5.6-0.7-8.4
		c-0.1-0.7-0.1-1.6-1.1-1.6c-0.9,0.1-0.6,1-0.6,1.6c0,14.7,0,29.4,0,44.1c0,2.4-1.7,4-3.9,3.6c-1.4-0.3-2.5-1.4-2.6-2.8
		c0-0.4,0-0.8,0-1.2c0-7.7,0-15.5,0-23.2C549.1,540.1,549.1,539.8,549.1,539.2z"/>
	<path class="st2" d="M555.4,499.3c0,4.1-3.3,7.5-7.3,7.5c-4.1,0-7.5-3.3-7.5-7.3c0-4.1,3.3-7.5,7.4-7.5
		C552,491.8,555.4,495.2,555.4,499.3z"/>
</g>
<g>
	<path class="st1" d="M601.4,539.2c-0.6,0-1,0-1.5,0c-0.2,0-0.4,0-0.7,0.1c0,0.4,0,0.8,0,1.1c0,7.9,0,15.8,0,23.7
		c0,2.3-1.8,3.9-3.9,3.5c-1.4-0.3-2.5-1.4-2.6-2.8c0-0.4,0-0.8,0-1.2c0-14.5,0-28.9,0-43.4c0-0.4,0-0.8-0.1-1.2
		c-0.1-0.3-0.4-0.7-0.6-0.7c-0.3,0-0.7,0.3-0.9,0.5c-0.2,0.4-0.3,1-0.3,1.4c-0.4,5.2-0.8,10.4-1.3,15.6c-0.2,1.8-1.4,2.9-3,2.8
		c-1.5-0.1-2.6-1.5-2.4-3.2c0.5-5.9,0.9-11.8,1.5-17.7c0.5-4.4,4.3-7.9,8.8-8.1c3.9-0.1,7.8-0.1,11.8,0c4.7,0.1,8.5,3.8,8.9,8.6
		c0.5,5.7,0.9,11.4,1.4,17c0.2,1.9-0.8,3.2-2.5,3.3c-1.5,0.1-2.8-1.1-3-2.8c-0.2-2.5-0.4-5-0.6-7.5c-0.2-2.8-0.4-5.6-0.7-8.4
		c-0.1-0.7-0.1-1.6-1.1-1.6c-0.9,0.1-0.6,1-0.6,1.6c0,14.7,0,29.4,0,44.1c0,2.4-1.7,4-3.9,3.6c-1.4-0.3-2.5-1.4-2.6-2.8
		c0-0.4,0-0.8,0-1.2c0-7.7,0-15.5,0-23.2C601.4,540.1,601.4,539.8,601.4,539.2z"/>
	<path class="st2" d="M607.8,499.3c0,4.1-3.3,7.5-7.3,7.5c-4.1,0-7.5-3.3-7.5-7.3c0-4.1,3.3-7.5,7.4-7.5
		C604.4,491.8,607.7,495.2,607.8,499.3z"/>
</g>
<g>
	<path class="st1" d="M653.8,539.2c-0.6,0-1,0-1.5,0c-0.2,0-0.4,0-0.7,0.1c0,0.4,0,0.8,0,1.1c0,7.9,0,15.8,0,23.7
		c0,2.3-1.8,3.9-3.9,3.5c-1.4-0.3-2.5-1.4-2.6-2.8c0-0.4,0-0.8,0-1.2c0-14.5,0-28.9,0-43.4c0-0.4,0-0.8-0.1-1.2
		c-0.1-0.3-0.4-0.7-0.6-0.7c-0.3,0-0.7,0.3-0.9,0.5c-0.2,0.4-0.3,1-0.3,1.4c-0.4,5.2-0.8,10.4-1.3,15.6c-0.2,1.8-1.4,2.9-3,2.8
		c-1.5-0.1-2.6-1.5-2.4-3.2c0.5-5.9,0.9-11.8,1.5-17.7c0.5-4.4,4.3-7.9,8.8-8.1c3.9-0.1,7.8-0.1,11.8,0c4.7,0.1,8.5,3.8,8.9,8.6
		c0.5,5.7,0.9,11.4,1.4,17c0.2,1.9-0.8,3.2-2.5,3.3c-1.5,0.1-2.8-1.1-3-2.8c-0.2-2.5-0.4-5-0.6-7.5c-0.2-2.8-0.4-5.6-0.7-8.4
		c-0.1-0.7-0.1-1.6-1.1-1.6c-0.9,0.1-0.6,1-0.6,1.6c0,14.7,0,29.4,0,44.1c0,2.4-1.7,4-3.9,3.6c-1.4-0.3-2.5-1.4-2.6-2.8
		c0-0.4,0-0.8,0-1.2c0-7.7,0-15.5,0-23.2C653.8,540.1,653.8,539.8,653.8,539.2z"/>
	<path class="st2" d="M660.1,499.3c0,4.1-3.3,7.5-7.3,7.5c-4.1,0-7.5-3.3-7.5-7.3c0-4.1,3.3-7.5,7.4-7.5
		C656.7,491.8,660.1,495.2,660.1,499.3z"/>
</g>
<g>
	<path class="st1" d="M707,539.2c-0.6,0-1,0-1.5,0c-0.2,0-0.4,0-0.7,0.1c0,0.4,0,0.8,0,1.1c0,7.9,0,15.8,0,23.7
		c0,2.3-1.8,3.9-3.9,3.5c-1.4-0.3-2.5-1.4-2.6-2.8c0-0.4,0-0.8,0-1.2c0-14.5,0-28.9,0-43.4c0-0.4,0-0.8-0.1-1.2
		c-0.1-0.3-0.4-0.7-0.6-0.7c-0.3,0-0.7,0.3-0.9,0.5c-0.2,0.4-0.3,1-0.3,1.4c-0.4,5.2-0.8,10.4-1.3,15.6c-0.2,1.8-1.4,2.9-3,2.8
		c-1.5-0.1-2.6-1.5-2.4-3.2c0.5-5.9,0.9-11.8,1.5-17.7c0.5-4.4,4.3-7.9,8.8-8.1c3.9-0.1,7.8-0.1,11.8,0c4.7,0.1,8.5,3.8,8.9,8.6
		c0.5,5.7,0.9,11.4,1.4,17c0.2,1.9-0.8,3.2-2.5,3.3c-1.5,0.1-2.8-1.1-3-2.8c-0.2-2.5-0.4-5-0.6-7.5c-0.2-2.8-0.4-5.6-0.7-8.4
		c-0.1-0.7-0.1-1.6-1.1-1.6c-0.9,0.1-0.6,1-0.6,1.6c0,14.7,0,29.4,0,44.1c0,2.4-1.7,4-3.9,3.6c-1.4-0.3-2.5-1.4-2.6-2.8
		c0-0.4,0-0.8,0-1.2c0-7.7,0-15.5,0-23.2C707,540.1,707,539.8,707,539.2z"/>
	<path class="st2" d="M713.3,499.3c0,4.1-3.3,7.5-7.3,7.5c-4.1,0-7.5-3.3-7.5-7.3c0-4.1,3.3-7.5,7.4-7.5
		C710,491.8,713.3,495.2,713.3,499.3z"/>
</g>
<g>
	<path class="st1" d="M759.4,539.2c-0.6,0-1,0-1.5,0c-0.2,0-0.4,0-0.7,0.1c0,0.4,0,0.8,0,1.1c0,7.9,0,15.8,0,23.7
		c0,2.3-1.8,3.9-3.9,3.5c-1.4-0.3-2.5-1.4-2.6-2.8c0-0.4,0-0.8,0-1.2c0-14.5,0-28.9,0-43.4c0-0.4,0-0.8-0.1-1.2
		c-0.1-0.3-0.4-0.7-0.6-0.7c-0.3,0-0.7,0.3-0.9,0.5c-0.2,0.4-0.3,1-0.3,1.4c-0.4,5.2-0.8,10.4-1.3,15.6c-0.2,1.8-1.4,2.9-3,2.8
		c-1.5-0.1-2.6-1.5-2.4-3.2c0.5-5.9,0.9-11.8,1.5-17.7c0.5-4.4,4.3-7.9,8.8-8.1c3.9-0.1,7.8-0.1,11.8,0c4.7,0.1,8.5,3.8,8.9,8.6
		c0.5,5.7,0.9,11.4,1.4,17c0.2,1.9-0.8,3.2-2.5,3.3c-1.5,0.1-2.8-1.1-3-2.8c-0.2-2.5-0.4-5-0.6-7.5c-0.2-2.8-0.4-5.6-0.7-8.4
		c-0.1-0.7-0.1-1.6-1.1-1.6c-0.9,0.1-0.6,1-0.6,1.6c0,14.7,0,29.4,0,44.1c0,2.4-1.7,4-3.9,3.6c-1.4-0.3-2.5-1.4-2.6-2.8
		c0-0.4,0-0.8,0-1.2c0-7.7,0-15.5,0-23.2C759.4,540.1,759.4,539.8,759.4,539.2z"/>
	<path class="st2" d="M765.7,499.3c0,4.1-3.3,7.5-7.3,7.5c-4.1,0-7.5-3.3-7.5-7.3c0-4.1,3.3-7.5,7.4-7.5
		C762.3,491.8,765.7,495.2,765.7,499.3z"/>
</g>
<g>
	<path class="st1" d="M811.7,539.2c-0.6,0-1,0-1.5,0c-0.2,0-0.4,0-0.7,0.1c0,0.4,0,0.8,0,1.1c0,7.9,0,15.8,0,23.7
		c0,2.3-1.8,3.9-3.9,3.5c-1.4-0.3-2.5-1.4-2.6-2.8c0-0.4,0-0.8,0-1.2c0-14.5,0-28.9,0-43.4c0-0.4,0-0.8-0.1-1.2
		c-0.1-0.3-0.4-0.7-0.6-0.7c-0.3,0-0.7,0.3-0.9,0.5c-0.2,0.4-0.3,1-0.3,1.4c-0.4,5.2-0.8,10.4-1.3,15.6c-0.2,1.8-1.4,2.9-3,2.8
		c-1.5-0.1-2.6-1.5-2.4-3.2c0.5-5.9,0.9-11.8,1.5-17.7c0.5-4.4,4.3-7.9,8.8-8.1c3.9-0.1,7.8-0.1,11.8,0c4.7,0.1,8.5,3.8,8.9,8.6
		c0.5,5.7,0.9,11.4,1.4,17c0.2,1.9-0.8,3.2-2.5,3.3c-1.5,0.1-2.8-1.1-3-2.8c-0.2-2.5-0.4-5-0.6-7.5c-0.2-2.8-0.4-5.6-0.7-8.4
		c-0.1-0.7-0.1-1.6-1.1-1.6c-0.9,0.1-0.6,1-0.6,1.6c0,14.7,0,29.4,0,44.1c0,2.4-1.7,4-3.9,3.6c-1.4-0.3-2.5-1.4-2.6-2.8
		c0-0.4,0-0.8,0-1.2c0-7.7,0-15.5,0-23.2C811.7,540.1,811.7,539.8,811.7,539.2z"/>
	<path class="st2" d="M818,499.3c0,4.1-3.3,7.5-7.3,7.5c-4.1,0-7.5-3.3-7.5-7.3c0-4.1,3.3-7.5,7.4-7.5
		C814.7,491.8,818,495.2,818,499.3z"/>
</g>
<g>
	<path class="st1" d="M864.7,539.2c-0.6,0-1,0-1.5,0c-0.2,0-0.4,0-0.7,0.1c0,0.4,0,0.8,0,1.1c0,7.9,0,15.8,0,23.7
		c0,2.3-1.8,3.9-3.9,3.5c-1.4-0.3-2.5-1.4-2.6-2.8c0-0.4,0-0.8,0-1.2c0-14.5,0-28.9,0-43.4c0-0.4,0-0.8-0.1-1.2
		c-0.1-0.3-0.4-0.7-0.6-0.7c-0.3,0-0.7,0.3-0.9,0.5c-0.2,0.4-0.3,1-0.3,1.4c-0.4,5.2-0.8,10.4-1.3,15.6c-0.2,1.8-1.4,2.9-3,2.8
		c-1.5-0.1-2.6-1.5-2.4-3.2c0.5-5.9,0.9-11.8,1.5-17.7c0.5-4.4,4.3-7.9,8.8-8.1c3.9-0.1,7.8-0.1,11.8,0c4.7,0.1,8.5,3.8,8.9,8.6
		c0.5,5.7,0.9,11.4,1.4,17c0.2,1.9-0.8,3.2-2.5,3.3c-1.5,0.1-2.8-1.1-3-2.8c-0.2-2.5-0.4-5-0.6-7.5c-0.2-2.8-0.4-5.6-0.7-8.4
		c-0.1-0.7-0.1-1.6-1.1-1.6c-0.9,0.1-0.6,1-0.6,1.6c0,14.7,0,29.4,0,44.1c0,2.4-1.7,4-3.9,3.6c-1.4-0.3-2.5-1.4-2.6-2.8
		c0-0.4,0-0.8,0-1.2c0-7.7,0-15.5,0-23.2C864.7,540.1,864.7,539.8,864.7,539.2z"/>
	<path class="st2" d="M871,499.3c0,4.1-3.3,7.5-7.3,7.5c-4.1,0-7.5-3.3-7.5-7.3c0-4.1,3.3-7.5,7.4-7.5
		C867.6,491.8,871,495.2,871,499.3z"/>
</g>
<g>
	<path class="st0" d="M125.6,155.6c0,0.5,0,0.9,0,1.3c0,7.8,0,15.6,0,23.4c0,0.4,0,0.8,0,1.2c0.2,1.4,1.2,2.6,2.6,2.8
		c2.2,0.4,4-1.2,4-3.6c0-14.8,0-29.7,0-44.5c0-0.6-0.3-1.5,0.6-1.6c0.9-0.1,1,0.9,1.1,1.6c0.3,2.8,0.5,5.6,0.7,8.5
		c0.2,2.5,0.4,5.1,0.6,7.6c0.2,1.8,1.5,3,3,2.8c1.7-0.1,2.6-1.5,2.5-3.3c-0.5-5.7-0.9-11.5-1.4-17.2c-0.4-4.8-4.2-8.5-9-8.6
		c-4-0.1-7.9-0.1-11.9,0c-4.5,0.1-8.4,3.7-8.9,8.1c-0.6,5.9-1.1,11.9-1.5,17.8c-0.1,1.8,0.9,3.1,2.5,3.2c1.6,0.1,2.9-1,3-2.8
		c0.4-5.2,0.9-10.5,1.3-15.7c0-0.5,0.1-1,0.3-1.5c0.1-0.3,0.6-0.5,0.9-0.5c0.2,0,0.5,0.4,0.6,0.7c0.1,0.4,0.1,0.8,0.1,1.2
		c0,14.6,0,29.2,0,43.8c0,0.4,0,0.8,0,1.2c0.2,1.4,1.2,2.6,2.6,2.8c2.2,0.4,4-1.2,4-3.5c0-8,0-16,0-24c0-0.4,0-0.7,0-1.2
		c0.3,0,0.5-0.1,0.7-0.1C124.5,155.6,125,155.6,125.6,155.6z M131.9,116c0-4.1-3.4-7.5-7.5-7.5c-4.2,0-7.5,3.4-7.5,7.6
		c0,4.1,3.4,7.4,7.6,7.4C128.6,123.5,131.9,120.1,131.9,116z"/>
</g>
<g>
	<path class="st0" d="M178.2,155.6c0,0.5,0,0.9,0,1.3c0,7.8,0,15.6,0,23.4c0,0.4,0,0.8,0,1.2c0.2,1.4,1.2,2.6,2.6,2.8
		c2.2,0.4,4-1.2,4-3.6c0-14.8,0-29.7,0-44.5c0-0.6-0.3-1.5,0.6-1.6c0.9-0.1,1,0.9,1.1,1.6c0.3,2.8,0.5,5.6,0.7,8.5
		c0.2,2.5,0.4,5.1,0.6,7.6c0.2,1.8,1.5,3,3,2.8c1.7-0.1,2.6-1.5,2.5-3.3c-0.5-5.7-0.9-11.5-1.4-17.2c-0.4-4.8-4.2-8.5-9-8.6
		c-4-0.1-7.9-0.1-11.9,0c-4.5,0.1-8.4,3.7-8.9,8.1c-0.6,5.9-1.1,11.9-1.5,17.8c-0.1,1.8,0.9,3.1,2.5,3.2c1.6,0.1,2.9-1,3-2.8
		c0.4-5.2,0.9-10.5,1.3-15.7c0-0.5,0.1-1,0.3-1.5c0.1-0.3,0.6-0.5,0.9-0.5c0.2,0,0.5,0.4,0.6,0.7c0.1,0.4,0.1,0.8,0.1,1.2
		c0,14.6,0,29.2,0,43.8c0,0.4,0,0.8,0,1.2c0.2,1.4,1.2,2.6,2.6,2.8c2.2,0.4,4-1.2,4-3.5c0-8,0-16,0-24c0-0.4,0-0.7,0-1.2
		c0.3,0,0.5-0.1,0.7-0.1C177.2,155.6,177.6,155.6,178.2,155.6z M184.6,116c0-4.1-3.4-7.5-7.5-7.5c-4.2,0-7.5,3.4-7.5,7.6
		c0,4.1,3.4,7.4,7.6,7.4C181.3,123.5,184.6,120.1,184.6,116z"/>
</g>
<g>
	<path class="st0" d="M230.9,155.6c0,0.5,0,0.9,0,1.3c0,7.8,0,15.6,0,23.4c0,0.4,0,0.8,0,1.2c0.2,1.4,1.2,2.6,2.6,2.8
		c2.2,0.4,4-1.2,4-3.6c0-14.8,0-29.7,0-44.5c0-0.6-0.3-1.5,0.6-1.6c0.9-0.1,1,0.9,1.1,1.6c0.3,2.8,0.5,5.6,0.7,8.5
		c0.2,2.5,0.4,5.1,0.6,7.6c0.2,1.8,1.5,3,3,2.8c1.7-0.1,2.6-1.5,2.5-3.3c-0.5-5.7-0.9-11.5-1.4-17.2c-0.4-4.8-4.2-8.5-9-8.6
		c-4-0.1-7.9-0.1-11.9,0c-4.5,0.1-8.4,3.7-8.9,8.1c-0.6,5.9-1.1,11.9-1.5,17.8c-0.1,1.8,0.9,3.1,2.5,3.2c1.6,0.1,2.9-1,3-2.8
		c0.4-5.2,0.9-10.5,1.3-15.7c0-0.5,0.1-1,0.3-1.5c0.1-0.3,0.6-0.5,0.9-0.5c0.2,0,0.5,0.4,0.6,0.7c0.1,0.4,0.1,0.8,0.1,1.2
		c0,14.6,0,29.2,0,43.8c0,0.4,0,0.8,0,1.2c0.2,1.4,1.2,2.6,2.6,2.8c2.2,0.4,4-1.2,4-3.5c0-8,0-16,0-24c0-0.4,0-0.7,0-1.2
		c0.3,0,0.5-0.1,0.7-0.1C229.8,155.6,230.3,155.6,230.9,155.6z M237.2,116c0-4.1-3.4-7.5-7.5-7.5c-4.2,0-7.5,3.4-7.5,7.6
		c0,4.1,3.4,7.4,7.6,7.4C233.9,123.5,237.2,120.1,237.2,116z"/>
</g>
</svg>
