<?xml version="1.0" encoding="utf-8"?>
<!-- Generator: Adobe Illustrator 23.1.1, SVG Export Plug-In . SVG Version: 6.00 Build 0)  -->
<svg version="1.1" id="Camada_1" xmlns="http://www.w3.org/2000/svg" xmlns:xlink="http://www.w3.org/1999/xlink" x="0px" y="0px"
	 viewBox="0 0 443 317" style="enable-background:new 0 0 443 317;" xml:space="preserve">
<style type="text/css">
	.st0{fill:none;stroke:#FFFFFF;stroke-width:2;stroke-miterlimit:10;}
	.st1{fill:none;stroke:#FFFFFF;stroke-miterlimit:10;}
</style>
<polygon class="st0" points="261.5,38.2 261.2,49.1 256.8,245 424.8,250 431.5,51.2 261.5,6.2 261.5,29.2 373,55.7 373,62.7 "/>
<polyline class="st0" points="260,49.7 260,48.7 222,62.7 219,268.7 227,268.7 227,245.7 248,244.7 248,268.7 "/>
<polyline class="st0" points="20,272.7 19,234.7 61,227.7 61,221.7 56,222.7 56,204.7 219,166.3 "/>
<polygon class="st0" points="103,177.7 129,171.7 146,174.7 146,183.5 103,193.6 "/>
<line class="st0" x1="129" y1="172.7" x2="129.4" y2="187.2"/>
<polygon class="st1" points="79.9,297.6 81,232.7 66.1,235.8 64,303.7 "/>
<polyline class="st1" points="152,277.7 152,273.7 148,273.7 148,269.7 143,269.7 143,266.7 137,266.7 137,263.7 132,263.7 
	132,261.7 126,261.7 126,257.7 120,257.7 120,255.7 115,255.7 115,251.7 110,251.7 110,248.7 104,248.7 104,245.7 98,245.7 
	98,241.7 92,241.7 92,237.7 87,237.7 "/>
<path class="st0" d="M0,309.7c4.2,1.2,11.2,2.8,20,3c3.9,0.1,16.8,0.2,44-9c11.8-4,20.4-7.7,21-8c0.1,0,0,0,0,0
	c55.3-24.2,152-27,152-27c50.3-1.4,75.5-2.2,95,1c8,1.3,15,1.9,21,2c9.8,0.2,17.5-0.5,33-2c10.3-1,12.6-1.5,21-2
	c11.5-0.7,16.8-0.5,21,0c6.3,0.7,11.5,2,15,3"/>
<line class="st0" x1="416.8" y1="250" x2="417" y2="266.7"/>
<path class="st0" d="M-1,276.7c6.9-1.7,15-3.2,24-4c15.8-1.3,31.5,1.1,42,3"/>
<path class="st0" d="M16.3,269.2"/>
<polyline class="st1" points="355.3,249 354.9,271.7 351.8,271.7 352.4,248.6 "/>
<polyline class="st1" points="329.7,246.9 329.2,269.3 326.1,268.9 326.7,246.6 "/>
<polyline class="st1" points="302.3,246.5 301.6,267.2 298.6,267.2 299.3,245.5 "/>
<polyline class="st1" points="372.3,249 372.2,271 375.2,270.7 375.3,249 "/>
<line class="st0" x1="384.8" y1="249" x2="384.8" y2="269.8"/>
<polygon class="st1" points="152,256.7 152,276.7 169.6,274.5 174.7,274 175,255.7 "/>
<line class="st1" x1="170" y1="274.7" x2="170" y2="255.9"/>
<polygon class="st1" points="362.5,94.2 370.5,95.2 370.5,100.2 362.5,99.2 "/>
<polygon class="st1" points="362.5,129.2 371.5,130.2 371.5,135.2 362.5,134.2 "/>
<polygon class="st1" points="358.5,156.8 367.5,157.8 367.5,162.8 358.5,161.8 "/>
<polygon class="st1" points="357.5,190.7 366,191.6 366,196 357.5,195.1 "/>
<polygon class="st1" points="357.7,224.7 366.2,225.8 366.2,231.2 357.7,230.1 "/>
<polygon class="st1" points="241.5,82.2 241.5,89.2 253.5,85.2 253.5,78.2 "/>
<polyline class="st1" points="258.3,245 258,268.1 260,268.1 260.3,245 "/>
<line class="st1" x1="270.3" y1="267.7" x2="270.3" y2="245"/>
<line class="st1" x1="260" y1="256.7" x2="270.3" y2="256.7"/>
<line class="st1" x1="260" y1="262.3" x2="270.3" y2="262.3"/>
<line class="st1" x1="352.1" y1="50.7" x2="352.1" y2="58.1"/>
<polyline class="st1" points="345.7,49.2 345.7,56.7 342,55.9 342,48.7 "/>
<line class="st1" x1="323.5" y1="45.2" x2="323.5" y2="51.8"/>
<polyline class="st1" points="317.7,42.6 317.7,50.5 313.8,49.7 313.8,41.6 "/>
<line class="st1" x1="294.9" y1="37.1" x2="294.3" y2="45.2"/>
<line class="st1" x1="287.8" y1="35.5" x2="287.8" y2="44"/>
<line class="st1" x1="280.5" y1="33.7" x2="284.6" y2="43.3"/>
<polyline class="st1" points="80.5,233.2 86.5,233.2 86.5,238.2 "/>
<line class="st1" x1="272.3" y1="268.1" x2="272.2" y2="245.4"/>
</svg>
